SplineFontDB: 3.0
FontName: Vazir-Medium
FullName: Vazir Medium
FamilyName: Vazir
Weight: Medium
Copyright: Copyright (c) 2003 by Bitstream, Inc. All Rights Reserved.\nDejaVu changes are in public domain\nChanges by Saber Rastikerdar are in public domain.\nNon-Arabic(Latin) glyphs and data in extended version are imported from Roboto font under the Apache License, Version 2.0.
Version: 17.1.0
ItalicAngle: 0
UnderlinePosition: -500
UnderlineWidth: 100
Ascent: 1638
Descent: 410
InvalidEm: 0
LayerCount: 2
Layer: 0 1 "Back" 1
Layer: 1 1 "Fore" 0
PreferredKerning: 4
XUID: [1021 502 1027637223 14252028]
UniqueID: 4231313
UseUniqueID: 1
FSType: 0
OS2Version: 1
OS2_WeightWidthSlopeOnly: 0
OS2_UseTypoMetrics: 1
CreationTime: 1431850356
ModificationTime: 1515587934
PfmFamily: 33
TTFWeight: 500
TTFWidth: 5
LineGap: 0
VLineGap: 0
Panose: 2 11 6 3 3 8 4 2 2 4
OS2TypoAscent: 2100
OS2TypoAOffset: 0
OS2TypoDescent: -1100
OS2TypoDOffset: 0
OS2TypoLinegap: 0
OS2WinAscent: 2100
OS2WinAOffset: 0
OS2WinDescent: 1100
OS2WinDOffset: 0
HheadAscent: 2100
HheadAOffset: 0
HheadDescent: -1100
HheadDOffset: 0
OS2SubXSize: 1331
OS2SubYSize: 1433
OS2SubXOff: 0
OS2SubYOff: 286
OS2SupXSize: 1331
OS2SupYSize: 1433
OS2SupXOff: 0
OS2SupYOff: 983
OS2StrikeYSize: 102
OS2StrikeYPos: 530
OS2CapHeight: 1638
OS2XHeight: 1082
OS2Vendor: 'PfEd'
OS2CodePages: 00000041.20080000
OS2UnicodeRanges: 80002003.80000000.00000008.00000000
Lookup: 1 9 0 "'fina' Terminal Forms in Arabic lookup 9" { "'fina' Terminal Forms in Arabic lookup 9 subtable"  } ['fina' ('arab' <'KUR ' 'SND ' 'URD ' 'dflt' > ) ]
Lookup: 1 9 0 "'medi' Medial Forms in Arabic lookup 11" { "'medi' Medial Forms in Arabic lookup 11 subtable"  } ['medi' ('arab' <'KUR ' 'SND ' 'URD ' 'dflt' > ) ]
Lookup: 1 9 0 "'init' Initial Forms in Arabic lookup 13" { "'init' Initial Forms in Arabic lookup 13 subtable"  } ['init' ('arab' <'KUR ' 'SND ' 'URD ' 'dflt' > ) ]

StartChar: exclam
Encoding: 33 33 1
GlifName: exclam
Width: 641
VWidth: 2784
GlyphClass: 2
Flags: W
LayerCount: 2
Fore
SplineSet
165.091796875 160.493164062 m 0,0,1
 165.091796875 224.65234375 165.091796875 224.65234375 210.60546875 270.165039062 c 128,-1,2
 256.119140625 315.6796875 256.119140625 315.6796875 320.278320312 315.6796875 c 128,-1,3
 384.438476562 315.6796875 384.438476562 315.6796875 429.952148438 270.165039062 c 128,-1,4
 475.463867188 224.65234375 475.463867188 224.65234375 475.463867188 160.493164062 c 128,-1,5
 475.463867188 96.333984375 475.463867188 96.333984375 429.952148438 50.8212890625 c 128,-1,6
 384.438476562 5.306640625 384.438476562 5.306640625 320.278320312 5.306640625 c 0,7,8
 301.837890625 5.306640625 301.837890625 5.306640625 284.638671875 9.2197265625 c 128,-1,9
 267.439453125 13.1328125 267.439453125 13.1328125 251.71484375 20.9345703125 c 128,-1,10
 235.990234375 28.736328125 235.990234375 28.736328125 222.126953125 40.2861328125 c 0,11,12
 206.693359375 53.1435546875 206.693359375 53.1435546875 195.208007812 68.3876953125 c 128,-1,13
 183.72265625 83.6318359375 183.72265625 83.6318359375 176.513671875 100.998046875 c 0,14,15
 165.091796875 128.512695312 165.091796875 128.512695312 165.091796875 160.493164062 c 0,0,1
213.161132812 1407.07128906 m 5,16,-1
 430.612304688 1407.07128906 l 5,17,-1
 451.130859375 1407.07128906 l 5,18,-1
 450.60546875 1386.55957031 l 5,19,-1
 426.087890625 468.8125 l 1,20,-1
 425.588867188 449.32421875 l 1,21,-1
 406.094726562 449.32421875 l 1,22,-1
 238.90234375 449.32421875 l 1,23,-1
 219.432617188 449.32421875 l 1,24,-1
 218.909179688 468.787109375 l 1,25,-1
 193.16796875 1386.53417969 l 5,26,-1
 192.616210938 1407.07128906 l 5,27,-1
 213.161132812 1407.07128906 l 5,16,-1
EndSplineSet
EndChar

StartChar: period
Encoding: 46 46 2
GlifName: period
Width: 641
VWidth: 2784
GlyphClass: 2
Flags: W
LayerCount: 2
Fore
SplineSet
165.091796875 160.493164062 m 0,0,1
 165.091796875 224.65234375 165.091796875 224.65234375 210.60546875 270.165039062 c 128,-1,2
 256.119140625 315.6796875 256.119140625 315.6796875 320.278320312 315.6796875 c 128,-1,3
 384.438476562 315.6796875 384.438476562 315.6796875 429.952148438 270.165039062 c 128,-1,4
 475.463867188 224.65234375 475.463867188 224.65234375 475.463867188 160.493164062 c 128,-1,5
 475.463867188 96.333984375 475.463867188 96.333984375 429.952148438 50.8212890625 c 128,-1,6
 384.438476562 5.306640625 384.438476562 5.306640625 320.278320312 5.306640625 c 0,7,8
 301.837890625 5.306640625 301.837890625 5.306640625 284.638671875 9.2197265625 c 128,-1,9
 267.439453125 13.1328125 267.439453125 13.1328125 251.71484375 20.9345703125 c 128,-1,10
 235.990234375 28.736328125 235.990234375 28.736328125 222.126953125 40.2861328125 c 0,11,12
 206.693359375 53.1435546875 206.693359375 53.1435546875 195.208007812 68.3876953125 c 128,-1,13
 183.72265625 83.6318359375 183.72265625 83.6318359375 176.513671875 100.998046875 c 0,14,15
 165.091796875 128.512695312 165.091796875 128.512695312 165.091796875 160.493164062 c 0,0,1
EndSplineSet
EndChar

StartChar: colon
Encoding: 58 58 3
GlifName: colon
Width: 641
VWidth: 2784
GlyphClass: 2
Flags: W
LayerCount: 2
Fore
SplineSet
165.091796875 1030.49316406 m 0,0,1
 165.091796875 1094.65234375 165.091796875 1094.65234375 210.60546875 1140.16503906 c 128,-1,2
 256.119140625 1185.6796875 256.119140625 1185.6796875 320.278320312 1185.6796875 c 0,3,4
 336.087890625 1185.6796875 336.087890625 1185.6796875 351.020507812 1182.77441406 c 128,-1,5
 365.953125 1179.86914062 365.953125 1179.86914062 379.729492188 1174.15039062 c 128,-1,6
 393.505859375 1168.43066406 393.505859375 1168.43066406 406.125 1159.90136719 c 128,-1,7
 418.744140625 1151.37304688 418.744140625 1151.37304688 429.952148438 1140.16503906 c 0,8,9
 452.404296875 1117.71289062 452.404296875 1117.71289062 463.93359375 1089.93652344 c 128,-1,10
 475.463867188 1062.16113281 475.463867188 1062.16113281 475.463867188 1030.49316406 c 0,11,12
 475.463867188 966.333984375 475.463867188 966.333984375 429.952148438 920.821289062 c 0,13,14
 407.499023438 898.368164062 407.499023438 898.368164062 379.72265625 886.836914062 c 128,-1,15
 351.946289062 875.306640625 351.946289062 875.306640625 320.278320312 875.306640625 c 0,16,17
 309.220703125 875.306640625 309.220703125 875.306640625 298.583007812 876.719726562 c 128,-1,18
 287.9453125 878.131835938 287.9453125 878.131835938 277.80078125 880.952148438 c 128,-1,19
 267.65625 883.772460938 267.65625 883.772460938 258.069335938 887.966796875 c 128,-1,20
 248.481445312 892.162109375 248.481445312 892.162109375 239.46484375 897.7578125 c 128,-1,21
 230.44921875 903.353515625 230.44921875 903.353515625 222.126953125 910.286132812 c 0,22,23
 206.693359375 923.143554688 206.693359375 923.143554688 195.208007812 938.387695312 c 128,-1,24
 183.72265625 953.631835938 183.72265625 953.631835938 176.513671875 970.998046875 c 0,25,26
 165.091796875 998.512695312 165.091796875 998.512695312 165.091796875 1030.49316406 c 0,0,1
165.091796875 160.493164062 m 0,27,28
 165.091796875 224.65234375 165.091796875 224.65234375 210.60546875 270.165039062 c 128,-1,29
 256.119140625 315.6796875 256.119140625 315.6796875 320.278320312 315.6796875 c 128,-1,30
 384.438476562 315.6796875 384.438476562 315.6796875 429.952148438 270.165039062 c 128,-1,31
 475.463867188 224.65234375 475.463867188 224.65234375 475.463867188 160.493164062 c 128,-1,32
 475.463867188 96.333984375 475.463867188 96.333984375 429.952148438 50.8212890625 c 128,-1,33
 384.438476562 5.306640625 384.438476562 5.306640625 320.278320312 5.306640625 c 0,34,35
 301.837890625 5.306640625 301.837890625 5.306640625 284.638671875 9.2197265625 c 128,-1,36
 267.439453125 13.1328125 267.439453125 13.1328125 251.71484375 20.9345703125 c 128,-1,37
 235.990234375 28.736328125 235.990234375 28.736328125 222.126953125 40.2861328125 c 0,38,39
 206.693359375 53.1435546875 206.693359375 53.1435546875 195.208007812 68.3876953125 c 128,-1,40
 183.72265625 83.6318359375 183.72265625 83.6318359375 176.513671875 100.998046875 c 0,41,42
 165.091796875 128.512695312 165.091796875 128.512695312 165.091796875 160.493164062 c 0,27,28
EndSplineSet
EndChar

StartChar: afii57388
Encoding: 1548 1548 5
GlifName: afii57388
Width: 739
VWidth: 2792
GlyphClass: 2
Flags: W
LayerCount: 2
Fore
SplineSet
215.892578125 313.9453125 m 0,0,1
 266.893554688 566.372070312 266.893554688 566.372070312 470.081054688 720.37890625 c 2,2,-1
 481.044921875 728.689453125 l 1,3,-1
 492.725585938 721.422851562 l 1,4,-1
 540.959960938 691.418945312 l 1,5,-1
 563.559570312 677.361328125 l 1,6,-1
 543.76953125 659.565429688 l 2,7,8
 399.161132812 529.52734375 399.161132812 529.52734375 377.8203125 329.026367188 c 1,9,10
 504.287109375 325.057617188 504.287109375 325.057617188 540.494140625 253.907226562 c 0,11,12
 562.11328125 210.474609375 562.11328125 210.474609375 561.083007812 167.609375 c 0,13,14
 560.510742188 129.45703125 560.510742188 129.45703125 549.276367188 99.7138671875 c 128,-1,15
 538.041992188 69.970703125 538.041992188 69.970703125 517.079101562 49.904296875 c 128,-1,16
 496.116210938 29.837890625 496.116210938 29.837890625 465.546875 19.3857421875 c 128,-1,17
 434.9765625 8.9326171875 434.9765625 8.9326171875 396.047851562 8.9072265625 c 0,18,19
 365.9609375 8.78125 365.9609375 8.78125 340.470703125 13.802734375 c 0,20,21
 251.349609375 31.3603515625 251.349609375 31.3603515625 220.854492188 108.931640625 c 128,-1,22
 190.359375 186.501953125 190.359375 186.501953125 215.892578125 313.9453125 c 0,0,1
EndSplineSet
EndChar

StartChar: uni0615
Encoding: 1557 1557 6
GlifName: uni0615
Width: -29
VWidth: 2714
GlyphClass: 4
Flags: W
AnchorPoint: "Anchor-10" 658.199 1624.46 mark 0
AnchorPoint: "Anchor-9" 658.199 1624.46 mark 0
AnchorPoint: "Anchor-1" 672.366 2447.86 basemark 0
AnchorPoint: "Anchor-1" 658.199 1624.46 mark 0
LayerCount: 2
Fore
SplineSet
912.769755624 1920.01350395 m 0,0,1
 912.769755624 1994.96856117 912.769755624 1994.96856117 836.782727051 1994.96856117 c 4,2,3
 730.412315598 1994.96856117 730.412315598 1994.96856117 541.2421875 1790.00390625 c 1,4,-1
 677.703125 1790.00390625 l 2,5,6
 781.798204784 1790.00390625 781.798204784 1790.00390625 845.899102392 1824.50195312 c 0,7,8
 912.769755624 1860.49063684 912.769755624 1860.49063684 912.769755624 1920.01350395 c 0,0,1
991.1328125 1928.79980469 m 0,9,10
 991.00004589 1714.07421875 991.00004589 1714.07421875 668.384765625 1714.07421875 c 2,11,-1
 354.936523438 1714.07421875 l 1,12,-1
 354.936523438 1790.00390625 l 1,13,-1
 462.987304688 1790.00390625 l 1,14,-1
 462.987304688 2322.15039062 l 1,15,-1
 540.234375 2321.18359375 l 1,16,-1
 539.275390625 1893.90234375 l 1,17,18
 703.078829305 2080.07964876 703.078829305 2080.07964876 840.555998274 2080.07964876 c 4,19,20
 990.947121021 2080.07964876 990.947121021 2080.07964876 991.1328125 1928.79980469 c 0,9,10
EndSplineSet
EndChar

StartChar: uni061B
Encoding: 1563 1563 7
GlifName: uni061B_
Width: 739
VWidth: 2792
GlyphClass: 2
Flags: W
LayerCount: 2
Fore
SplineSet
242.091796875 160.493164062 m 0,0,1
 242.091796875 224.65234375 242.091796875 224.65234375 287.60546875 270.165039062 c 128,-1,2
 333.119140625 315.6796875 333.119140625 315.6796875 397.278320312 315.6796875 c 128,-1,3
 461.438476562 315.6796875 461.438476562 315.6796875 506.952148438 270.165039062 c 128,-1,4
 552.463867188 224.65234375 552.463867188 224.65234375 552.463867188 160.493164062 c 128,-1,5
 552.463867188 96.333984375 552.463867188 96.333984375 506.952148438 50.8212890625 c 128,-1,6
 461.438476562 5.306640625 461.438476562 5.306640625 397.278320312 5.306640625 c 0,7,8
 341.115234375 5.306640625 341.115234375 5.306640625 299.126953125 40.2861328125 c 0,9,10
 267.924804688 66.2802734375 267.924804688 66.2802734375 253.513671875 100.998046875 c 0,11,12
 242.091796875 128.512695312 242.091796875 128.512695312 242.091796875 160.493164062 c 0,0,1
215.892578125 753.9453125 m 0,13,14
 266.893554688 1006.37207031 266.893554688 1006.37207031 470.081054688 1160.37890625 c 2,15,-1
 481.044921875 1168.68945312 l 1,16,-1
 492.725585938 1161.42285156 l 1,17,-1
 540.959960938 1131.41894531 l 1,18,-1
 563.559570312 1117.36132812 l 1,19,-1
 543.76953125 1099.56542969 l 2,20,21
 399.161132812 969.52734375 399.161132812 969.52734375 377.8203125 769.026367188 c 1,22,23
 504.287109375 765.057617188 504.287109375 765.057617188 540.494140625 693.907226562 c 0,24,25
 562.11328125 650.474609375 562.11328125 650.474609375 561.083007812 607.609375 c 0,26,27
 559.93359375 531.041015625 559.93359375 531.041015625 517.122070312 489.999023438 c 128,-1,28
 474.309570312 448.958007812 474.309570312 448.958007812 396.047851562 448.907226562 c 0,29,30
 365.9609375 448.78125 365.9609375 448.78125 340.470703125 453.802734375 c 0,31,32
 280.759765625 465.56640625 280.759765625 465.56640625 246.90234375 505.291015625 c 128,-1,33
 213.044921875 545.015625 213.044921875 545.015625 206.454101562 607.55859375 c 128,-1,34
 199.86328125 670.1015625 199.86328125 670.1015625 215.892578125 753.9453125 c 0,13,14
EndSplineSet
EndChar

StartChar: uni061F
Encoding: 1567 1567 8
GlifName: uni061F_
Width: 974
VWidth: 2784
GlyphClass: 2
Flags: W
LayerCount: 2
Fore
SplineSet
398.091796875 160.493164062 m 0,0,1
 398.091796875 224.65234375 398.091796875 224.65234375 443.60546875 270.165039062 c 128,-1,2
 489.119140625 315.6796875 489.119140625 315.6796875 553.278320312 315.6796875 c 0,3,4
 584.9453125 315.6796875 584.9453125 315.6796875 612.721679688 304.149414062 c 128,-1,5
 640.498046875 292.619140625 640.498046875 292.619140625 662.952148438 270.165039062 c 0,6,7
 677.897460938 255.219726562 677.897460938 255.219726562 688.041992188 237.841796875 c 128,-1,8
 698.1875 220.463867188 698.1875 220.463867188 703.325195312 201.020507812 c 128,-1,9
 708.463867188 181.576171875 708.463867188 181.576171875 708.463867188 160.493164062 c 0,10,11
 708.463867188 96.333984375 708.463867188 96.333984375 662.952148438 50.8212890625 c 128,-1,12
 617.438476562 5.306640625 617.438476562 5.306640625 553.278320312 5.306640625 c 0,13,14
 497.115234375 5.306640625 497.115234375 5.306640625 455.126953125 40.2861328125 c 0,15,16
 423.924804688 66.2802734375 423.924804688 66.2802734375 409.513671875 100.998046875 c 0,17,18
 398.091796875 128.512695312 398.091796875 128.512695312 398.091796875 160.493164062 c 0,0,1
695.799804688 976.248046875 m 1,19,-1
 695.799804688 1004.88574219 l 2,20,21
 696 1181 696 1181 517.583007812 1180.89453125 c 0,22,23
 369 1181 369 1181 329.809570312 1070.17285156 c 4,24,25
 318 1036 318 1036 318.392578125 998.234375 c 0,26,27
 318 909 318 909 453.021484375 787.544921875 c 0,28,29
 674.98046875 586.017733357 674.98046875 586.017733357 674.98046875 476.999023438 c 2,30,-1
 674.98046875 466.33203125 l 1,31,-1
 674.979492188 446.333007812 l 1,32,-1
 654.98046875 446.333007812 l 1,33,-1
 452.350585938 446.330078125 l 1,34,-1
 432.350585938 446.330078125 l 1,35,-1
 432.349609375 466.329101562 l 1,36,-1
 432.349609375 473.959960938 l 2,37,38
 432 542 432 542 267.203125 671.428710938 c 0,39,40
 85 814 85 814 84.912061853 1045.41513024 c 0,41,42
 85 1167 85 1167 177.002929688 1272.23242188 c 0,43,44
 303 1414 303 1414 500.212890625 1414.37792969 c 0,45,46
 896 1414 896 1414 896 1006 c 2,47,-1
 896 976.25 l 1,48,-1
 876 976.25 l 1,49,-1
 715.799804688 976.248046875 l 1,50,-1
 695.799804688 976.248046875 l 1,19,-1
EndSplineSet
EndChar

StartChar: uni0621
Encoding: 1569 1569 9
GlifName: uni0621
Width: 868
VWidth: 2972
GlyphClass: 2
Flags: W
AnchorPoint: "Anchor-7" 471.326 -75.6465 basechar 0
AnchorPoint: "Anchor-10" 467.848 1201.06 basechar 0
LayerCount: 2
Fore
SplineSet
97.76953125 31.8525390625 m 1,0,-1
 97.76953125 209.793945312 l 1,1,-1
 97.76953125 220.655273438 l 1,2,-1
 106.879882812 226.569335938 l 2,3,4
 194.381835938 283.372070312 194.381835938 283.372070312 268.788085938 312.458984375 c 1,5,6
 118.01171875 408.100585938 118.01171875 408.100585938 118.256835938 560.693359375 c 0,7,8
 119.041015625 703.477539062 119.041015625 703.477539062 194.90625 791.490234375 c 0,9,10
 302.865234375 915.994140625 302.865234375 915.994140625 475.288085938 916.10546875 c 0,11,12
 651.333984375 915.995117188 651.333984375 915.995117188 746.83984375 819.754882812 c 2,13,-1
 756.181640625 810.340820312 l 1,14,-1
 751.145507812 798.072265625 l 1,15,-1
 694.569335938 660.25390625 l 1,16,-1
 684.927734375 636.766601562 l 1,17,-1
 664.3515625 651.639648438 l 2,18,19
 590.549804688 704.984375 590.549804688 704.984375 487.14453125 704.736328125 c 0,20,21
 446.943359375 704.396484375 446.943359375 704.396484375 416.348632812 693.380859375 c 128,-1,22
 385.75390625 682.366210938 385.75390625 682.366210938 363.623046875 660.9375 c 0,23,24
 323.967773438 622.500976562 323.967773438 622.500976562 323.731445312 560.557617188 c 0,25,26
 323.836914062 524.868164062 323.836914062 524.868164062 361.9375 486.927734375 c 128,-1,27
 400.038085938 448.98828125 400.038085938 448.98828125 478.684570312 412.3515625 c 1,28,-1
 724.794921875 467.955078125 l 1,29,-1
 745.559570312 472.646484375 l 1,30,-1
 748.947265625 451.629882812 l 1,31,-1
 776.745117188 279.182617188 l 1,32,-1
 780.0625 258.604492188 l 1,33,-1
 759.364257812 256.140625 l 2,34,35
 511.251953125 226.603515625 511.251953125 226.603515625 127.448242188 14.3505859375 c 2,36,-1
 97.76953125 -2.0625 l 1,37,-1
 97.76953125 31.8525390625 l 1,0,-1
EndSplineSet
EndChar

StartChar: uni0627
Encoding: 1575 1575 15
GlifName: uni0627
Width: 477
VWidth: 2972
GlyphClass: 2
Flags: W
AnchorPoint: "Anchor-10" 229.871 1553.46 basechar 0
AnchorPoint: "Anchor-7" 233.587 -216.365 basechar 0
LayerCount: 2
Fore
SplineSet
150.890625 1408.15039062 m 5,0,-1
 324.205078125 1408.15039062 l 5,1,-1
 344.205078125 1408.15039062 l 5,2,-1
 344.205078125 1388.15039062 l 5,3,-1
 344.205078125 20.751953125 l 5,4,-1
 344.205078125 0.751953125 l 5,5,-1
 324.205078125 0.751953125 l 5,6,-1
 150.890625 0.751953125 l 5,7,-1
 130.890625 0.751953125 l 5,8,-1
 130.890625 20.751953125 l 5,9,-1
 130.890625 1388.15039062 l 5,10,-1
 130.890625 1408.15039062 l 5,11,-1
 150.890625 1408.15039062 l 5,0,-1
EndSplineSet
Substitution2: "'fina' Terminal Forms in Arabic lookup 9 subtable" uniFE8E
EndChar

StartChar: uni062D
Encoding: 1581 1581 21
GlifName: uni062D_
Width: 1386
VWidth: 2972
GlyphClass: 2
Flags: W
AnchorPoint: "Anchor-7" 580.833 -790.619 basechar 0
AnchorPoint: "Anchor-10" 649.478 1282.07 basechar 0
LayerCount: 2
Fore
SplineSet
104.987304688 -124.852539062 m 0,0,1
 104.987304688 163.37890625 104.987304688 163.37890625 276.095703125 351.393554688 c 128,-1,2
 447.203125 539.408203125 447.203125 539.408203125 784.044921875 624.821289062 c 1,3,4
 772.123046875 629.545898438 772.123046875 629.545898438 758.640625 634.90234375 c 128,-1,5
 745.158203125 640.259765625 745.158203125 640.259765625 729.424804688 646.5234375 c 0,6,7
 538.145507812 723.983398438 538.145507812 723.983398438 469.56640625 723.6875 c 0,8,9
 434.750976562 723.784179688 434.750976562 723.784179688 404.62109375 714.477539062 c 128,-1,10
 374.491210938 705.171875 374.491210938 705.171875 348.290039062 686.110351562 c 128,-1,11
 322.087890625 667.048828125 322.087890625 667.048828125 299.436523438 637.872070312 c 2,12,-1
 271.408203125 601.76953125 l 1,13,-1
 261.396484375 588.873046875 l 1,14,-1
 246.756835938 596.100585938 l 1,15,-1
 92.896484375 672.060546875 l 1,16,-1
 73.3515625 681.709960938 l 1,17,-1
 84.642578125 700.353515625 l 1,18,-1
 101.336914062 727.923828125 l 2,19,20
 166.436523438 835.477539062 166.436523438 835.477539062 259.547851562 890.440429688 c 128,-1,21
 352.66015625 945.40234375 352.66015625 945.40234375 471.036132812 945.840820312 c 0,22,23
 515.952148438 945.897460938 515.952148438 945.897460938 565.646484375 936.01953125 c 128,-1,24
 615.341796875 926.141601562 615.341796875 926.141601562 669.334960938 906.75 c 128,-1,25
 723.328125 887.358398438 723.328125 887.358398438 783.751953125 858.008789062 c 0,26,27
 1092.015625 707.803710938 1092.015625 707.803710938 1258.76269531 700.672851562 c 2,28,-1
 1279.39160156 699.791015625 l 1,29,-1
 1277.85253906 679.200195312 l 1,30,-1
 1264.86328125 505.438476562 l 1,31,-1
 1263.56347656 488.049804688 l 1,32,-1
 1246.15917969 486.967773438 l 2,33,34
 1221.21289062 485.41796875 1221.21289062 485.41796875 1197.44628906 483.55078125 c 128,-1,35
 1173.68066406 481.682617188 1173.68066406 481.682617188 1151.1875 479.505859375 c 128,-1,36
 1128.69433594 477.329101562 1128.69433594 477.329101562 1107.40234375 474.840820312 c 128,-1,37
 1086.11132812 472.3515625 1086.11132812 472.3515625 1066.09375 469.559570312 c 128,-1,38
 1046.07617188 466.767578125 1046.07617188 466.767578125 1027.28320312 463.66796875 c 128,-1,39
 1008.49023438 460.569335938 1008.49023438 460.569335938 990.97265625 457.172851562 c 128,-1,40
 973.455078125 453.775390625 973.455078125 453.775390625 957.182617188 450.077148438 c 0,41,42
 315.008789062 301.110351562 315.008789062 301.110351562 315.249023438 -109.31640625 c 0,43,44
 315.130859375 -283.9609375 315.130859375 -283.9609375 440.446289062 -370.92578125 c 128,-1,45
 565.760742188 -457.889648438 565.760742188 -457.889648438 826.403320312 -457.783203125 c 0,46,47
 1038.4765625 -457.995117188 1038.4765625 -457.995117188 1234.68847656 -364.23828125 c 2,48,-1
 1257.84375 -353.173828125 l 1,49,-1
 1262.91699219 -378.331054688 l 1,50,-1
 1298.9765625 -557.157226562 l 1,51,-1
 1302.03613281 -572.33203125 l 1,52,-1
 1288.11328125 -579.098632812 l 2,53,54
 1084.61132812 -677.99609375 1084.61132812 -677.99609375 811.515625 -678.249023438 c 0,55,56
 681.081054688 -678.165039062 681.081054688 -678.165039062 574.313476562 -657.143554688 c 128,-1,57
 467.544921875 -636.122070312 467.544921875 -636.122070312 383.330078125 -593.283203125 c 128,-1,58
 299.115234375 -550.4453125 299.115234375 -550.4453125 239.325195312 -485.895507812 c 0,59,60
 104.987304688 -340.82421875 104.987304688 -340.82421875 104.987304688 -124.852539062 c 0,0,1
EndSplineSet
Substitution2: "'fina' Terminal Forms in Arabic lookup 9 subtable" uniFEA2
Substitution2: "'medi' Medial Forms in Arabic lookup 11 subtable" uniFEA4
Substitution2: "'init' Initial Forms in Arabic lookup 13 subtable" uniFEA3
EndChar

StartChar: uni062F
Encoding: 1583 1583 23
GlifName: uni062F_
Width: 994
VWidth: 2972
GlyphClass: 2
Flags: W
AnchorPoint: "Anchor-10" 396.137 1251.03 basechar 0
AnchorPoint: "Anchor-7" 437.24 -219.316 basechar 0
LayerCount: 2
Fore
SplineSet
105.0546875 250.7890625 m 2,0,1
 229.048828125 225.001953125 229.048828125 225.001953125 341.668945312 225.107421875 c 0,2,3
 691.995117188 225.005859375 691.995117188 225.005859375 691.954101562 386.385742188 c 0,4,5
 691.998046875 583.953125 691.998046875 583.953125 286.352539062 839.0703125 c 2,6,-1
 269.056640625 849.947265625 l 1,7,-1
 280.30078125 867.006835938 l 1,8,-1
 380.553710938 1019.10644531 l 1,9,-1
 391.077148438 1035.07128906 l 1,10,-1
 407.498046875 1025.27636719 l 2,11,12
 911.983398438 724.368164062 911.983398438 724.368164062 912.479492188 388.8984375 c 0,13,14
 912.2265625 196.094726562 912.2265625 196.094726562 770.3359375 99.3662109375 c 128,-1,15
 628.4453125 2.63671875 628.4453125 2.63671875 354.845703125 2.259765625 c 0,16,17
 205.815429688 1.99609375 205.815429688 1.99609375 96.630859375 26.337890625 c 2,18,-1
 80.982421875 29.826171875 l 1,19,-1
 80.982421875 45.8583984375 l 1,20,-1
 80.982421875 231.208007812 l 1,21,-1
 80.982421875 255.794921875 l 1,22,-1
 105.0546875 250.7890625 l 2,0,1
EndSplineSet
Substitution2: "'fina' Terminal Forms in Arabic lookup 9 subtable" uniFEAA
EndChar

StartChar: uni0631
Encoding: 1585 1585 25
GlifName: uni0631
Width: 826
VWidth: 2164
GlyphClass: 2
Flags: W
AnchorPoint: "Anchor-10" 507.256 946.2 basechar 0
AnchorPoint: "Anchor-7" 322.969 -647.998 basechar 0
LayerCount: 2
Fore
SplineSet
663.4453125 559.634765625 m 2,0,1
 748.991210938 365.225585938 748.991210938 365.225585938 749.375 184.0078125 c 0,2,3
 749.182617188 -123.6171875 749.182617188 -123.6171875 568.1328125 -297.986328125 c 128,-1,4
 387.083984375 -472.35546875 387.083984375 -472.35546875 31.5458984375 -510.04296875 c 2,5,-1
 14.251953125 -511.875976562 l 1,6,-1
 10.0341796875 -495.004882812 l 1,7,-1
 -32.5341796875 -324.729492188 l 1,8,-1
 -38.14453125 -302.287109375 l 1,9,-1
 -15.126953125 -299.978515625 l 2,10,11
 263.1640625 -272.068359375 263.1640625 -272.068359375 398.387695312 -154.556640625 c 128,-1,12
 533.611328125 -37.0458984375 533.611328125 -37.0458984375 533.250976562 172.209960938 c 0,13,14
 533.006835938 320.543945312 533.006835938 320.543945312 456.87890625 483.536132812 c 2,15,-1
 447.522460938 503.568359375 l 1,16,-1
 468.389648438 510.875976562 l 1,17,-1
 638.529296875 570.455078125 l 1,18,-1
 655.993164062 576.5703125 l 1,19,-1
 663.4453125 559.634765625 l 2,0,1
EndSplineSet
PairPos2: "'kern' Horizontal Kerning lookup 15-2" uniFBFE dx=60 dy=0 dh=60 dv=0 dx=0 dy=0 dh=0 dv=0
PairPos2: "'kern' Horizontal Kerning lookup 15-1" uniFEE7 dx=-178 dy=0 dh=-178 dv=0 dx=0 dy=0 dh=0 dv=0
PairPos2: "'kern' Horizontal Kerning lookup 15-2" uniFB90 dx=-226 dy=0 dh=-226 dv=0 dx=0 dy=0 dh=0 dv=0
PairPos2: "'kern' Horizontal Kerning lookup 15-2" uniFB8E dx=-226 dy=0 dh=-226 dv=0 dx=0 dy=0 dh=0 dv=0
PairPos2: "'kern' Horizontal Kerning lookup 15-2" uni06A9 dx=-226 dy=0 dh=-226 dv=0 dx=0 dy=0 dh=0 dv=0
PairPos2: "'kern' Horizontal Kerning lookup 15-2" uni064A dx=-60 dy=0 dh=-60 dv=0 dx=0 dy=0 dh=0 dv=0
PairPos2: "'kern' Horizontal Kerning lookup 15-2" afii57414 dx=-60 dy=0 dh=-60 dv=0 dx=0 dy=0 dh=0 dv=0
PairPos2: "'kern' Horizontal Kerning lookup 15-2" uni0649 dx=-60 dy=0 dh=-60 dv=0 dx=0 dy=0 dh=0 dv=0
PairPos2: "'kern' Horizontal Kerning lookup 15-2" uniFEEB dx=-178 dy=0 dh=-178 dv=0 dx=0 dy=0 dh=0 dv=0
PairPos2: "'kern' Horizontal Kerning lookup 15-2" uni0647 dx=-178 dy=0 dh=-178 dv=0 dx=0 dy=0 dh=0 dv=0
PairPos2: "'kern' Horizontal Kerning lookup 15-2" uni0646 dx=-60 dy=0 dh=-60 dv=0 dx=0 dy=0 dh=0 dv=0
PairPos2: "'kern' Horizontal Kerning lookup 15-2" uniFEE3 dx=-178 dy=0 dh=-178 dv=0 dx=0 dy=0 dh=0 dv=0
PairPos2: "'kern' Horizontal Kerning lookup 15-2" uni0645 dx=-178 dy=0 dh=-178 dv=0 dx=0 dy=0 dh=0 dv=0
PairPos2: "'kern' Horizontal Kerning lookup 15-2" uniFEFB dx=-143 dy=0 dh=-143 dv=0 dx=0 dy=0 dh=0 dv=0
PairPos2: "'kern' Horizontal Kerning lookup 15-2" uniFEDF dx=-143 dy=0 dh=-143 dv=0 dx=0 dy=0 dh=0 dv=0
PairPos2: "'kern' Horizontal Kerning lookup 15-2" uni0644 dx=-60 dy=0 dh=-60 dv=0 dx=0 dy=0 dh=0 dv=0
PairPos2: "'kern' Horizontal Kerning lookup 15-2" uniFEDB dx=-226 dy=0 dh=-226 dv=0 dx=0 dy=0 dh=0 dv=0
PairPos2: "'kern' Horizontal Kerning lookup 15-2" uni0643 dx=-143 dy=0 dh=-143 dv=0 dx=0 dy=0 dh=0 dv=0
PairPos2: "'kern' Horizontal Kerning lookup 15-2" uniFED7 dx=-178 dy=0 dh=-178 dv=0 dx=0 dy=0 dh=0 dv=0
PairPos2: "'kern' Horizontal Kerning lookup 15-2" uni0642 dx=-60 dy=0 dh=-60 dv=0 dx=0 dy=0 dh=0 dv=0
PairPos2: "'kern' Horizontal Kerning lookup 15-2" uniFED3 dx=-178 dy=0 dh=-178 dv=0 dx=0 dy=0 dh=0 dv=0
PairPos2: "'kern' Horizontal Kerning lookup 15-2" uni0641 dx=-178 dy=0 dh=-178 dv=0 dx=0 dy=0 dh=0 dv=0
PairPos2: "'kern' Horizontal Kerning lookup 15-2" uniFECF dx=-178 dy=0 dh=-178 dv=0 dx=0 dy=0 dh=0 dv=0
PairPos2: "'kern' Horizontal Kerning lookup 15-2" uniFECB dx=-178 dy=0 dh=-178 dv=0 dx=0 dy=0 dh=0 dv=0
PairPos2: "'kern' Horizontal Kerning lookup 15-2" uniFEC7 dx=-178 dy=0 dh=-178 dv=0 dx=0 dy=0 dh=0 dv=0
PairPos2: "'kern' Horizontal Kerning lookup 15-2" uni0638 dx=-178 dy=0 dh=-178 dv=0 dx=0 dy=0 dh=0 dv=0
PairPos2: "'kern' Horizontal Kerning lookup 15-2" uniFEC3 dx=-178 dy=0 dh=-178 dv=0 dx=0 dy=0 dh=0 dv=0
PairPos2: "'kern' Horizontal Kerning lookup 15-2" uni0637 dx=-178 dy=0 dh=-178 dv=0 dx=0 dy=0 dh=0 dv=0
PairPos2: "'kern' Horizontal Kerning lookup 15-2" uniFEBF dx=-178 dy=0 dh=-178 dv=0 dx=0 dy=0 dh=0 dv=0
PairPos2: "'kern' Horizontal Kerning lookup 15-2" uni0636 dx=-178 dy=0 dh=-178 dv=0 dx=0 dy=0 dh=0 dv=0
PairPos2: "'kern' Horizontal Kerning lookup 15-2" uniFEBB dx=-178 dy=0 dh=-178 dv=0 dx=0 dy=0 dh=0 dv=0
PairPos2: "'kern' Horizontal Kerning lookup 15-2" uni0635 dx=-178 dy=0 dh=-178 dv=0 dx=0 dy=0 dh=0 dv=0
PairPos2: "'kern' Horizontal Kerning lookup 15-2" uniFEB7 dx=-178 dy=0 dh=-178 dv=0 dx=0 dy=0 dh=0 dv=0
PairPos2: "'kern' Horizontal Kerning lookup 15-2" uni0634 dx=-178 dy=0 dh=-178 dv=0 dx=0 dy=0 dh=0 dv=0
PairPos2: "'kern' Horizontal Kerning lookup 15-2" uniFEB3 dx=-178 dy=0 dh=-178 dv=0 dx=0 dy=0 dh=0 dv=0
PairPos2: "'kern' Horizontal Kerning lookup 15-2" uni0633 dx=-178 dy=0 dh=-178 dv=0 dx=0 dy=0 dh=0 dv=0
PairPos2: "'kern' Horizontal Kerning lookup 15-2" uni0630 dx=-178 dy=0 dh=-178 dv=0 dx=0 dy=0 dh=0 dv=0
PairPos2: "'kern' Horizontal Kerning lookup 15-2" uni062F dx=-178 dy=0 dh=-178 dv=0 dx=0 dy=0 dh=0 dv=0
PairPos2: "'kern' Horizontal Kerning lookup 15-2" uniFEA7 dx=-178 dy=0 dh=-178 dv=0 dx=0 dy=0 dh=0 dv=0
PairPos2: "'kern' Horizontal Kerning lookup 15-2" uniFEA3 dx=-178 dy=0 dh=-178 dv=0 dx=0 dy=0 dh=0 dv=0
PairPos2: "'kern' Horizontal Kerning lookup 15-2" uniFE9F dx=-178 dy=0 dh=-178 dv=0 dx=0 dy=0 dh=0 dv=0
PairPos2: "'kern' Horizontal Kerning lookup 15-2" uniFE9B dx=-178 dy=0 dh=-178 dv=0 dx=0 dy=0 dh=0 dv=0
PairPos2: "'kern' Horizontal Kerning lookup 15-2" uni062B dx=-178 dy=0 dh=-178 dv=0 dx=0 dy=0 dh=0 dv=0
PairPos2: "'kern' Horizontal Kerning lookup 15-2" uniFE97 dx=-178 dy=0 dh=-178 dv=0 dx=0 dy=0 dh=0 dv=0
PairPos2: "'kern' Horizontal Kerning lookup 15-2" uni062A dx=-178 dy=0 dh=-178 dv=0 dx=0 dy=0 dh=0 dv=0
PairPos2: "'kern' Horizontal Kerning lookup 15-2" uni0629 dx=-178 dy=0 dh=-178 dv=0 dx=0 dy=0 dh=0 dv=0
PairPos2: "'kern' Horizontal Kerning lookup 15-2" uni0628 dx=-178 dy=0 dh=-178 dv=0 dx=0 dy=0 dh=0 dv=0
PairPos2: "'kern' Horizontal Kerning lookup 15-2" uni0627 dx=-143 dy=0 dh=-143 dv=0 dx=0 dy=0 dh=0 dv=0
PairPos2: "'kern' Horizontal Kerning lookup 15-2" uni0623 dx=-143 dy=0 dh=-143 dv=0 dx=0 dy=0 dh=0 dv=0
PairPos2: "'kern' Horizontal Kerning lookup 15-2" uni0622 dx=-143 dy=0 dh=-143 dv=0 dx=0 dy=0 dh=0 dv=0
PairPos2: "'kern' Horizontal Kerning lookup 15-2" uni0621 dx=-178 dy=0 dh=-178 dv=0 dx=0 dy=0 dh=0 dv=0
PairPos2: "'kern' Horizontal Kerning lookup 15-2" uniFB94 dx=-226 dy=0 dh=-226 dv=0 dx=0 dy=0 dh=0 dv=0
PairPos2: "'kern' Horizontal Kerning lookup 15-2" uniFB92 dx=-226 dy=0 dh=-226 dv=0 dx=0 dy=0 dh=0 dv=0
PairPos2: "'kern' Horizontal Kerning lookup 15-2" uni06AF dx=-226 dy=0 dh=-226 dv=0 dx=0 dy=0 dh=0 dv=0
PairPos2: "'kern' Horizontal Kerning lookup 15-2" afii57506 dx=-178 dy=0 dh=-178 dv=0 dx=0 dy=0 dh=0 dv=0
PairPos2: "'kern' Horizontal Kerning lookup 15-2" afii57440 dx=-178 dy=0 dh=-178 dv=0 dx=0 dy=0 dh=0 dv=0
PairPos2: "'kern' Horizontal Kerning lookup 15-2" uniFE8B dx=-178 dy=0 dh=-178 dv=0 dx=0 dy=0 dh=0 dv=0
Substitution2: "'fina' Terminal Forms in Arabic lookup 9 subtable" uniFEAE
EndChar

StartChar: uni0633
Encoding: 1587 1587 27
GlifName: uni0633
Width: 2500
VWidth: 2972
GlyphClass: 2
Flags: W
AnchorPoint: "Anchor-10" 1818.53 1157.1 basechar 0
AnchorPoint: "Anchor-7" 681.902 -736.086 basechar 0
LayerCount: 2
Fore
SplineSet
1552.80371094 -0.0810546875 m 0,0,1
 1455.57519531 -0.0810546875 1455.57519531 -0.0810546875 1388.54785156 38.822265625 c 1,2,3
 1380.03515625 -85.1533203125 1380.03515625 -85.1533203125 1321.88769531 -205.663085938 c 0,4,5
 1170.56542969 -520.0078125 1170.56542969 -520.0078125 707.34375 -519.724609375 c 0,6,7
 211.76171875 -519.950195312 211.76171875 -519.950195312 108.120117188 -149.85546875 c 0,8,9
 81.9287109375 -55.220703125 81.9287109375 -55.220703125 81.7529296875 61.0517578125 c 0,10,11
 82.0048828125 269.986328125 82.0048828125 269.986328125 184.547851562 517.772460938 c 2,12,-1
 192.185546875 536.2265625 l 1,13,-1
 210.649414062 528.616210938 l 1,14,-1
 369.169921875 463.278320312 l 1,15,-1
 387.381835938 455.771484375 l 1,16,-1
 380.153320312 437.447265625 l 2,17,18
 298.005859375 229.212890625 298.005859375 229.212890625 298.268554688 62.869140625 c 0,19,20
 298.139648438 -122.18359375 298.139648438 -122.18359375 400.309570312 -212.64453125 c 128,-1,21
 502.479492188 -303.104492188 502.479492188 -303.104492188 714.353515625 -303.203125 c 0,22,23
 868.444335938 -303.137695312 868.444335938 -303.137695312 969.397460938 -256.380859375 c 128,-1,24
 1070.34960938 -209.625 1070.34960938 -209.625 1120.20214844 -115.548828125 c 128,-1,25
 1170.05371094 -21.47265625 1170.05371094 -21.47265625 1170.5546875 121.982421875 c 0,26,27
 1170.98925781 301.408203125 1170.98925781 301.408203125 1082.46875 483.004882812 c 2,28,-1
 1072.61035156 503.228515625 l 1,29,-1
 1093.84960938 510.649414062 l 1,30,-1
 1266.49121094 570.966796875 l 1,31,-1
 1285.8125 577.716796875 l 1,32,-1
 1292.11621094 558.245117188 l 1,33,-1
 1352.03515625 373.135742188 l 2,34,35
 1376.28320312 297.594726562 1376.28320312 297.594726562 1425.91210938 261.295898438 c 128,-1,36
 1475.54003906 224.99609375 1475.54003906 224.99609375 1554.5 224.9921875 c 0,37,38
 1641.83496094 224.99609375 1641.83496094 224.99609375 1682.22949219 264.514648438 c 128,-1,39
 1722.62304688 304.034179688 1722.62304688 304.034179688 1722.30175781 388.596679688 c 0,40,41
 1722.00878906 445.252929688 1722.00878906 445.252929688 1719.2578125 488.399414062 c 2,42,-1
 1713.85742188 573.115234375 l 1,43,-1
 1712.65136719 592.041015625 l 1,44,-1
 1731.48632812 594.250976562 l 1,45,-1
 1896.21191406 613.583984375 l 1,46,-1
 1917.04003906 616.029296875 l 1,47,-1
 1918.49511719 595.107421875 l 1,48,-1
 1934.56835938 363.91015625 l 2,49,50
 1939.33007812 292.584960938 1939.33007812 292.584960938 1972.69140625 259.9296875 c 128,-1,51
 2006.05175781 227.274414062 2006.05175781 227.274414062 2072.93261719 227.5 c 0,52,53
 2137.3046875 227.717773438 2137.3046875 227.717773438 2169.00097656 273.220703125 c 128,-1,54
 2200.69726562 318.724609375 2200.69726562 318.724609375 2200.42285156 419.235351562 c 0,55,56
 2200.01171875 519.153320312 2200.01171875 519.153320312 2157.19140625 668.721679688 c 2,57,-1
 2151.58984375 688.287109375 l 1,58,-1
 2171.25 693.546875 l 1,59,-1
 2342.20117188 739.287109375 l 1,60,-1
 2360.67480469 744.23046875 l 1,61,-1
 2366.43945312 725.99609375 l 2,62,63
 2417.01171875 566.047851562 2417.01171875 566.047851562 2416.43652344 420.360351562 c 0,64,65
 2415.98242188 183.896484375 2415.98242188 183.896484375 2287.91503906 72.080078125 c 0,66,67
 2205.67675781 1.3359375 2205.67675781 1.3359375 2075.15234375 0.912109375 c 0,68,69
 1987.93261719 0.953125 1987.93261719 0.953125 1925.34277344 31.6044921875 c 128,-1,70
 1862.75195312 62.255859375 1862.75195312 62.255859375 1827.35058594 123.515625 c 1,71,72
 1775.078125 61.7333984375 1775.078125 61.7333984375 1706.20019531 30.826171875 c 128,-1,73
 1637.32226562 -0.0810546875 1637.32226562 -0.0810546875 1552.80371094 -0.0810546875 c 0,0,1
EndSplineSet
Substitution2: "'fina' Terminal Forms in Arabic lookup 9 subtable" uniFEB2
Substitution2: "'medi' Medial Forms in Arabic lookup 11 subtable" uniFEB4
Substitution2: "'init' Initial Forms in Arabic lookup 13 subtable" uniFEB3
EndChar

StartChar: uni0635
Encoding: 1589 1589 29
GlifName: uni0635
Width: 2597
VWidth: 2972
GlyphClass: 2
Flags: W
AnchorPoint: "Anchor-7" 681.902 -736.086 basechar 0
AnchorPoint: "Anchor-10" 2066.53 1256.1 basechar 0
LayerCount: 2
Fore
SplineSet
1423.89160156 255.604492188 m 1,0,1
 1771.42773438 837.012695312 1771.42773438 837.012695312 2119.38769531 836.42578125 c 0,2,3
 2281.203125 835.98046875 2281.203125 835.98046875 2380.7109375 753.98046875 c 0,4,5
 2515.02050781 643.424804688 2515.02050781 643.424804688 2514.59667969 443.733398438 c 0,6,7
 2514.17480469 331.84765625 2514.17480469 331.84765625 2466.07421875 247.967773438 c 128,-1,8
 2417.97265625 164.086914062 2417.97265625 164.086914062 2323.79394531 109.297851562 c 128,-1,9
 2229.61523438 54.5087890625 2229.61523438 54.5087890625 2092.00195312 27.25390625 c 128,-1,10
 1954.38867188 0 1954.38867188 0 1773.15136719 0 c 2,11,-1
 1722.34082031 0 l 2,12,13
 1614.47070312 0 1614.47070312 0 1530.88183594 11.447265625 c 128,-1,14
 1447.29296875 22.8935546875 1447.29296875 22.8935546875 1388.97753906 45.7958984375 c 1,15,16
 1381.68066406 -81.7431640625 1381.68066406 -81.7431640625 1321.88769531 -205.663085938 c 0,17,18
 1170.56542969 -520.0078125 1170.56542969 -520.0078125 707.34375 -519.724609375 c 0,19,20
 211.76171875 -519.950195312 211.76171875 -519.950195312 108.120117188 -149.85546875 c 0,21,22
 81.9287109375 -55.220703125 81.9287109375 -55.220703125 81.7529296875 61.0517578125 c 0,23,24
 82.0048828125 269.986328125 82.0048828125 269.986328125 184.547851562 517.772460938 c 2,25,-1
 192.185546875 536.2265625 l 1,26,-1
 210.649414062 528.616210938 l 1,27,-1
 369.169921875 463.278320312 l 1,28,-1
 387.381835938 455.771484375 l 1,29,-1
 380.153320312 437.447265625 l 2,30,31
 298.005859375 229.212890625 298.005859375 229.212890625 298.268554688 62.869140625 c 0,32,33
 298.139648438 -122.18359375 298.139648438 -122.18359375 400.309570312 -212.64453125 c 128,-1,34
 502.479492188 -303.104492188 502.479492188 -303.104492188 714.353515625 -303.203125 c 0,35,36
 868.444335938 -303.137695312 868.444335938 -303.137695312 969.397460938 -256.380859375 c 128,-1,37
 1070.34960938 -209.625 1070.34960938 -209.625 1120.20214844 -115.548828125 c 128,-1,38
 1170.05371094 -21.47265625 1170.05371094 -21.47265625 1170.5546875 121.982421875 c 0,39,40
 1170.98925781 301.408203125 1170.98925781 301.408203125 1082.46875 483.004882812 c 2,41,-1
 1072.61035156 503.228515625 l 1,42,-1
 1093.84960938 510.649414062 l 1,43,-1
 1266.49121094 570.966796875 l 1,44,-1
 1285.84765625 577.729492188 l 1,45,-1
 1292.12695312 558.2109375 l 1,46,-1
 1360.0390625 347.125 l 2,47,48
 1373.03417969 306.734375 1373.03417969 306.734375 1389.46679688 284.392578125 c 128,-1,49
 1405.89941406 262.05078125 1405.89941406 262.05078125 1423.89160156 255.604492188 c 1,0,1
1768.73925781 224.534179688 m 2,50,51
 2292.05761719 224.982421875 2292.05761719 224.982421875 2292.66113281 435.440429688 c 0,52,53
 2292.96484375 526.533203125 2292.96484375 526.533203125 2223.64355469 574.424804688 c 0,54,55
 2180.69140625 604.0546875 2180.69140625 604.0546875 2121.96679688 604.57421875 c 0,56,57
 1913.36621094 605.87890625 1913.36621094 605.87890625 1661.50683594 224.447265625 c 1,58,-1
 1768.73925781 224.534179688 l 2,50,51
EndSplineSet
Substitution2: "'fina' Terminal Forms in Arabic lookup 9 subtable" uniFEBA
Substitution2: "'medi' Medial Forms in Arabic lookup 11 subtable" uniFEBC
Substitution2: "'init' Initial Forms in Arabic lookup 13 subtable" uniFEBB
EndChar

StartChar: uni0637
Encoding: 1591 1591 31
GlifName: uni0637
Width: 1480
VWidth: 2972
GlyphClass: 2
Flags: W
AnchorPoint: "Anchor-10" 471.36 1566.58 basechar 0
AnchorPoint: "Anchor-7" 641.602 -216.453 basechar 0
LayerCount: 2
Fore
SplineSet
1004.41210938 836.42578125 m 0,0,1
 1078 836 1078 836 1139.48730469 818.86328125 c 0,2,3
 1201 801 1201 801 1249.44433594 766.391601562 c 0,4,5
 1298 731 1298 731 1332.75390625 679.06640625 c 0,6,7
 1366 629 1366 629 1383.109375 569.545898438 c 0,8,9
 1400 511 1400 511 1399.67382812 443.712890625 c 0,10,11
 1399 221 1399 221 1210.73144531 110.438476562 c 0,12,13
 1023 0 1023 0 658.228515625 0 c 2,14,-1
 101.302734375 0 l 1,15,-1
 81.302734375 0 l 1,16,-1
 81.302734375 20 l 1,17,-1
 81.302734375 204.221679688 l 1,18,-1
 81.302734375 224.208007812 l 1,19,-1
 101.2890625 224.221679688 l 1,20,-1
 313.149414062 224.37109375 l 1,21,22
 334 254 334 254 375.6328125 323.381835938 c 1,23,-1
 375.6328125 1388.87402344 l 5,24,-1
 375.6328125 1408.87402344 l 5,25,-1
 395.6328125 1408.87402344 l 5,26,-1
 568.946289062 1408.87402344 l 5,27,-1
 588.946289062 1408.87402344 l 5,28,-1
 588.946289062 1388.87402344 l 5,29,-1
 588.946289062 618.904296875 l 1,30,31
 784 838 784 838 1004.41210938 836.42578125 c 0,0,1
1007.11328125 604.573242188 m 0,32,33
 903.599609375 604.764648438 903.599609375 604.764648438 787.520507812 510.107421875 c 128,-1,34
 671.442382812 415.44921875 671.442382812 415.44921875 546.415039062 224.534179688 c 1,35,-1
 653.815429688 224.534179688 l 2,36,37
 1177.06347656 224.983398438 1177.06347656 224.983398438 1177.73828125 435.442382812 c 0,38,39
 1177.85839844 470.541992188 1177.85839844 470.541992188 1168.44238281 498.06640625 c 128,-1,40
 1159.02636719 525.590820312 1159.02636719 525.590820312 1140.234375 546.614257812 c 0,41,42
 1088.09277344 604.056640625 1088.09277344 604.056640625 1007.11328125 604.573242188 c 0,32,33
EndSplineSet
Substitution2: "'fina' Terminal Forms in Arabic lookup 9 subtable" uniFEC2
Substitution2: "'medi' Medial Forms in Arabic lookup 11 subtable" uniFEC4
Substitution2: "'init' Initial Forms in Arabic lookup 13 subtable" uniFEC3
EndChar

StartChar: uni0639
Encoding: 1593 1593 33
GlifName: uni0639
Width: 1330
VWidth: 2972
GlyphClass: 2
Flags: W
AnchorPoint: "Anchor-7" 580.833 -790.619 basechar 0
AnchorPoint: "Anchor-10" 723.478 1386.07 basechar 0
LayerCount: 2
Fore
SplineSet
643.482421875 504.947265625 m 1,0,1
 816.834960938 534.012695312 816.834960938 534.012695312 941.107421875 534.546875 c 0,2,3
 1036.09179688 535.005859375 1036.09179688 535.005859375 1126.01367188 524.719726562 c 2,4,-1
 1146.14550781 522.416992188 l 1,5,-1
 1143.58007812 502.318359375 l 1,6,-1
 1121.22753906 327.158203125 l 1,7,-1
 1118.91113281 309.002929688 l 1,8,-1
 1100.62304688 309.704101562 l 2,9,10
 1072.15917969 310.794921875 1072.15917969 310.794921875 1049.4921875 311.439453125 c 128,-1,11
 1026.82421875 312.083007812 1026.82421875 312.083007812 1011.04882812 312.258789062 c 128,-1,12
 995.272460938 312.43359375 995.272460938 312.43359375 985.594726562 312.180664062 c 0,13,14
 635.22265625 302.2265625 635.22265625 302.2265625 465.173828125 192.701171875 c 128,-1,15
 295.125976562 83.17578125 295.125976562 83.17578125 295.240234375 -124.868164062 c 0,16,17
 295.165039062 -235.776367188 295.165039062 -235.776367188 348.426757812 -309.271484375 c 128,-1,18
 401.688476562 -382.766601562 401.688476562 -382.766601562 513.0859375 -420.47265625 c 128,-1,19
 624.482421875 -458.178710938 624.482421875 -458.178710938 795.296875 -458.266601562 c 0,20,21
 896.879882812 -458.135742188 896.879882812 -458.135742188 996.670898438 -434.778320312 c 128,-1,22
 1096.46191406 -411.420898438 1096.46191406 -411.420898438 1194.72460938 -364.705078125 c 2,23,-1
 1217.85449219 -353.708007812 l 1,24,-1
 1222.91699219 -378.814453125 l 1,25,-1
 1258.9765625 -557.640625 l 1,26,-1
 1262.0234375 -572.751953125 l 1,27,-1
 1248.18652344 -579.545898438 l 2,28,29
 1222.81738281 -592.002929688 1222.81738281 -592.002929688 1196.4921875 -602.8984375 c 128,-1,30
 1170.16699219 -613.79296875 1170.16699219 -613.79296875 1142.93066406 -623.110351562 c 128,-1,31
 1115.69335938 -632.427734375 1115.69335938 -632.427734375 1087.52246094 -640.185546875 c 128,-1,32
 1059.3515625 -647.943359375 1059.3515625 -647.943359375 1030.26660156 -654.1328125 c 128,-1,33
 1001.18164062 -660.321289062 1001.18164062 -660.321289062 971.186523438 -664.954101562 c 128,-1,34
 941.190429688 -669.586914062 941.190429688 -669.586914062 910.280273438 -672.658203125 c 128,-1,35
 879.370117188 -675.73046875 879.370117188 -675.73046875 847.571289062 -677.249023438 c 128,-1,36
 815.7734375 -678.767578125 815.7734375 -678.767578125 783.060546875 -678.733398438 c 0,37,38
 207.043945312 -678.959960938 207.043945312 -678.959960938 105.834960938 -302.793945312 c 0,39,40
 85.1015625 -224.64453125 85.1015625 -224.64453125 84.9755859375 -132.310546875 c 0,41,42
 85 259.260742188 85 259.260742188 430.791015625 425.5 c 1,43,44
 394.6640625 470.877929688 394.6640625 470.877929688 370.497070312 518.090820312 c 128,-1,45
 346.330078125 565.303710938 346.330078125 565.303710938 334.112304688 614.63671875 c 128,-1,46
 321.89453125 663.969726562 321.89453125 663.969726562 321.84375 715.083007812 c 0,47,48
 321.884765625 733.334960938 321.884765625 733.334960938 323.719726562 751.586914062 c 128,-1,49
 325.553710938 769.837890625 325.553710938 769.837890625 329.177734375 788.076171875 c 128,-1,50
 332.801757812 806.313476562 332.801757812 806.313476562 338.1953125 824.537109375 c 128,-1,51
 343.588867188 842.76171875 343.588867188 842.76171875 350.765625 861.0390625 c 0,52,53
 364.850585938 896.107421875 364.850585938 896.107421875 385.963867188 928.4609375 c 128,-1,54
 407.077148438 960.814453125 407.077148438 960.814453125 435.16015625 990.501953125 c 0,55,56
 542.380859375 1104 542.380859375 1104 734 1104 c 0,57,58
 893.190429688 1104 893.190429688 1104 1076.95996094 978.18359375 c 2,59,-1
 1090.77539062 968.724609375 l 1,60,-1
 1083.89355469 953.459960938 l 1,61,-1
 1016.54492188 804.086914062 l 1,62,-1
 1007.34375 783.680664062 l 1,63,-1
 988.098632812 795.112304688 l 2,64,65
 915.436523438 838.2734375 915.436523438 838.2734375 854.161132812 859.583984375 c 128,-1,66
 792.884765625 880.89453125 792.884765625 880.89453125 743.947265625 880.802734375 c 0,67,68
 626.3046875 880.982421875 626.3046875 880.982421875 572.971679688 792.219726562 c 0,69,70
 546.022460938 748.380859375 546.022460938 748.380859375 546.20703125 702.16015625 c 0,71,72
 546.021484375 661.618164062 546.021484375 661.618164062 567.469726562 618.110351562 c 0,73,74
 577.278320312 598.348632812 577.278320312 598.348632812 596.474609375 569.721679688 c 128,-1,75
 615.670898438 541.094726562 615.670898438 541.094726562 643.482421875 504.947265625 c 1,0,1
EndSplineSet
Substitution2: "'fina' Terminal Forms in Arabic lookup 9 subtable" uniFECA
Substitution2: "'medi' Medial Forms in Arabic lookup 11 subtable" uniFECC
Substitution2: "'init' Initial Forms in Arabic lookup 13 subtable" uniFECB
EndChar

StartChar: afii57440
Encoding: 1600 1600 35
GlifName: afii57440
Width: 286
VWidth: 2972
GlyphClass: 2
Flags: W
AnchorPoint: "Anchor-10" 143.774 1396.11 basechar 0
AnchorPoint: "Anchor-7" 147.7 -214.739 basechar 0
LayerCount: 2
Fore
SplineSet
-6.9384765625 0 m 2,0,1
 -84.7783203125 0 -84.7783203125 0 -84.7783203125 108.313476562 c 2,2,-1
 -84.7783203125 127.163085938 l 2,3,4
 -84.9999977644 223.999023438 -84.9999977644 223.999023438 -6.9384765625 223.999023438 c 2,5,-1
 294.643554688 223.999023438 l 2,6,7
 334.771484375 224.003211718 334.771484375 224.003211718 334.771484375 127.174804688 c 2,8,-1
 334.771484375 108.350585938 l 2,9,10
 335 0 335 0 294.69140625 0 c 2,11,-1
 -6.9384765625 0 l 2,0,1
EndSplineSet
EndChar

StartChar: uni0643
Encoding: 1603 1603 38
GlifName: uni0643
Width: 1971
VWidth: 2972
GlyphClass: 2
Flags: W
AnchorPoint: "Anchor-7" 740.268 -216.468 basechar 0
AnchorPoint: "Anchor-10" 948.11 1484.05 basechar 0
LayerCount: 2
Fore
SplineSet
940.447265625 224.215820312 m 0,0,1
 963 224 963 224 987.697265625 224.791015625 c 0,2,3
 1012 225 1012 225 1038.01367188 226.731445312 c 0,4,5
 1064 228 1064 228 1091.41992188 230.041992188 c 128,-1,6
 1119 232 1119 232 1147.87597656 234.724609375 c 0,7,8
 1387 257 1387 257 1500.97460938 345.909179688 c 0,9,10
 1611.82910156 432.865943411 1611.82910156 432.865943411 1611.82910156 561.778320312 c 6,11,-1
 1611.82910156 1384.56640625 l 5,12,-1
 1611.82910156 1404.56640625 l 5,13,-1
 1631.82910156 1404.56640625 l 5,14,-1
 1809.70996094 1404.56640625 l 5,15,-1
 1829.70996094 1404.56640625 l 5,16,-1
 1829.70996094 1384.56640625 l 5,17,-1
 1829.70996094 564.360351562 l 6,18,19
 1830 317 1830 317 1655.28613281 172.72265625 c 0,20,21
 1448 0 1448 0 942.133789062 0 c 0,22,23
 446 -0 446 -0 253.907226562 139.625976562 c 0,24,25
 80 266 80 266 79.1611328125 524.484375 c 0,26,27
 78.9997057515 662.2511206 78.9997057515 662.2511206 127.391601562 770.921875 c 2,28,-1
 135.454101562 789.02734375 l 1,29,-1
 153.631835938 781.129882812 l 1,30,-1
 311.403320312 712.584960938 l 1,31,-1
 329.022460938 704.9296875 l 1,32,-1
 322.083007812 687.017578125 l 2,33,34
 297 622 297 622 298.451171875 537.138671875 c 0,35,36
 299 485 299 485 311.688476562 443.369140625 c 0,37,38
 324 402 324 402 349.188476562 369.697265625 c 0,39,40
 374 338 374 338 411.21484375 314.48046875 c 0,41,42
 550 228 550 228 940.447265625 224.215820312 c 0,0,1
718.282226562 741.901367188 m 6,43,44
 811.047914637 731.999480737 811.047914637 731.999480737 878.673828125 731.266601562 c 4,45,46
 930 731 930 731 968.388671875 736.358398438 c 4,47,48
 1007 742 1007 742 1030.90136719 751.40234375 c 4,49,50
 1042 756 1042 756 1050.390625 761.571289062 c 4,51,52
 1058 767 1058 767 1063.29199219 773.33984375 c 4,53,54
 1068 780 1068 780 1070.38183594 786.584960938 c 4,55,56
 1073 794 1073 794 1072.74804688 801.861328125 c 4,57,58
 1073 836 1073 836 1049.26953125 855.299804688 c 4,59,60
 1023 878 1023 878 968.215820312 885.658203125 c 4,61,62
 855 903 855 903 797.135742188 961.916015625 c 4,63,64
 739 1021 739 1021 740.935546875 1118.95507812 c 4,65,66
 745.990766383 1343.58969339 745.990766383 1343.58969339 1152.140625 1373.49902344 c 6,67,-1
 1173.61035156 1375.08007812 l 5,68,-1
 1173.61035156 1353.55273438 l 5,69,-1
 1173.61035156 1224.98925781 l 5,70,-1
 1173.61035156 1206.75195312 l 5,71,-1
 1155.45019531 1205.07421875 l 6,72,73
 1076 1198 1076 1198 1014.69824219 1181.58203125 c 4,74,75
 959 1166 959 1166 936.404296875 1148.25390625 c 4,76,77
 914 1131 914 1131 914.139648438 1110.44238281 c 4,78,79
 914 1053 914 1053 1035.96191406 1034.5234375 c 4,80,81
 1087 1027 1087 1027 1126.15234375 1008.08398438 c 4,82,83
 1165 990 1165 990 1191.87402344 960.833984375 c 4,84,85
 1218 932 1218 932 1231.96972656 893.1953125 c 4,86,87
 1246 854 1246 854 1245.36425781 806.06640625 c 4,88,89
 1245 762 1245 762 1230.38964844 724.353515625 c 4,90,91
 1216 687 1216 687 1186.81640625 656.131835938 c 4,92,93
 1158 626 1158 626 1115.99707031 602.692382812 c 4,94,95
 1036 559 1036 559 896.004882812 559.088867188 c 4,96,97
 814.450666155 559.000488379 814.450666155 559.000488379 713.118164062 574.598632812 c 6,98,-1
 696.16015625 577.208984375 l 5,99,-1
 696.16015625 594.366210938 l 5,100,-1
 696.16015625 722.014648438 l 5,101,-1
 696.16015625 744.262695312 l 5,102,-1
 718.282226562 741.901367188 l 6,43,44
EndSplineSet
Substitution2: "'fina' Terminal Forms in Arabic lookup 9 subtable" uniFEDA
Substitution2: "'medi' Medial Forms in Arabic lookup 11 subtable" uniFEDC
Substitution2: "'init' Initial Forms in Arabic lookup 13 subtable" uniFEDB
EndChar

StartChar: uni0644
Encoding: 1604 1604 39
GlifName: uni0644
Width: 1441
VWidth: 2972
GlyphClass: 2
Flags: W
AnchorPoint: "Anchor-7" 681.902 -736.086 basechar 0
AnchorPoint: "Anchor-10" 593.908 1191.66 basechar 0
LayerCount: 2
Fore
SplineSet
1092.60449219 119.841796875 m 2,0,-1
 1095.91699219 1388.04296875 l 5,1,-1
 1095.96679688 1407.99316406 l 5,2,-1
 1115.91699219 1407.99316406 l 5,3,-1
 1287.88574219 1407.99316406 l 5,4,-1
 1307.8984375 1407.99316406 l 5,5,-1
 1307.88574219 1387.98046875 l 5,6,-1
 1307.18554688 319.295898438 l 2,7,8
 1307 178 1307 178 1297.80371094 47.005859375 c 0,9,10
 1284 -140 1284 -140 1209.51464844 -266.458007812 c 0,11,12
 1136 -393 1136 -393 1003.03808594 -456.270507812 c 0,13,14
 871 -520 871 -520 681.438476562 -519.734375 c 0,15,16
 384 -520 384 -520 233.11328125 -373.37109375 c 0,17,18
 82 -227 82 -227 82.740234375 60.7822265625 c 0,19,20
 83 164 83 164 103.879882812 265.490234375 c 0,21,22
 125.729651699 370.698255805 125.729651699 370.698255805 167.806640625 474.016601562 c 2,23,-1
 175.381835938 492.6171875 l 1,24,-1
 193.950195312 484.963867188 l 1,25,-1
 352.474609375 419.624023438 l 1,26,-1
 370.662109375 412.126953125 l 1,27,-1
 363.467773438 393.818359375 l 2,28,29
 298 227 298 227 298.24609375 58.1943359375 c 0,30,31
 298 -125 298 -125 392.360351562 -214.045898438 c 0,32,33
 487 -303 487 -303 681.774414062 -303.2265625 c 0,34,35
 890 -303 890 -303 990.9765625 -198.908203125 c 128,-1,36
 1092 -95 1092 -95 1092.60449219 119.841796875 c 2,0,-1
EndSplineSet
Substitution2: "'fina' Terminal Forms in Arabic lookup 9 subtable" uniFEDE
Substitution2: "'medi' Medial Forms in Arabic lookup 11 subtable" uniFEE0
Substitution2: "'init' Initial Forms in Arabic lookup 13 subtable" uniFEDF
EndChar

StartChar: uni0645
Encoding: 1605 1605 40
GlifName: uni0645
Width: 1242
VWidth: 2642
GlyphClass: 2
Flags: W
AnchorPoint: "Anchor-7" 724.983 -316.909 basechar 0
AnchorPoint: "Anchor-10" 769.239 1154.48 basechar 0
LayerCount: 2
Fore
SplineSet
842.077148438 198 m 0,0,1
 899.614257812 197.557617188 899.614257812 197.557617188 925.79296875 225.495117188 c 128,-1,2
 951.970703125 253.432617188 951.970703125 253.432617188 952.357421875 316.479492188 c 0,3,4
 951.59765625 344.670898438 951.59765625 344.670898438 946.564453125 369.8671875 c 128,-1,5
 941.53125 395.063476562 941.53125 395.063476562 931.921875 419.423828125 c 0,6,7
 893.438476562 514.233398438 893.438476562 514.233398438 791.478515625 516.0078125 c 0,8,9
 733.681640625 516.856445312 733.681640625 516.856445312 687.158203125 472.82421875 c 128,-1,10
 640.634765625 428.79296875 640.634765625 428.79296875 604.899414062 334.682617188 c 1,11,12
 764.21484375 198 764.21484375 198 842.077148438 198 c 0,0,1
1163.39257812 329.012695312 m 0,13,14
 1163 255 1163 255 1145.03417969 193.318359375 c 0,15,16
 1127 131 1127 131 1090.60351562 82.1904296875 c 0,17,18
 1071 56 1071 56 1046.52734375 35.9248046875 c 128,-1,19
 1022 16 1022 16 991.5859375 3.0146484375 c 0,20,21
 962 -10 962 -10 926.629882812 -16.5654296875 c 0,22,23
 892 -23 892 -23 851.995117188 -23.13671875 c 0,24,25
 744 -23 744 -23 596.375976562 67.5869140625 c 0,26,27
 590.703798625 71.1084511202 590.703798625 71.1084511202 495.06640625 124.192382812 c 0,28,29
 481 132 481 132 464.392578125 134.913085938 c 0,30,31
 448 138 448 138 428.778320312 137.75 c 0,32,33
 367 137 367 137 331.404296875 25.1503906248 c 0,34,35
 295 -87 295 -87 295.751953125 -317.974609375 c 4,36,37
 296.000207742 -513.163336258 296.000207742 -513.163336258 309.740234375 -673.1015625 c 6,38,-1
 311.60546875 -694.813476562 l 5,39,-1
 289.813476562 -694.813476562 l 5,40,-1
 110.231445312 -694.813476562 l 5,41,-1
 91.478515625 -694.813476562 l 5,42,-1
 90.2724609375 -676.099609375 l 6,43,44
 78 -486 78 -486 79.0625 -313.857421875 c 4,45,46
 82 34 82 34 160.170898438 188.061523438 c 0,47,48
 199 265 199 265 254.3828125 311.051757812 c 0,49,50
 309 357 309 357 378.265625 370.521484375 c 1,51,52
 530 744 530 744 788.821289062 745.381835938 c 0,53,54
 960 746 960 746 1062.46191406 621.686523438 c 0,55,56
 1164 497 1164 497 1163.39257812 329.012695312 c 0,13,14
EndSplineSet
Substitution2: "'init' Initial Forms in Arabic lookup 13 subtable" uniFEE3
Substitution2: "'medi' Medial Forms in Arabic lookup 11 subtable" uniFEE4
Substitution2: "'fina' Terminal Forms in Arabic lookup 9 subtable" uniFEE2
EndChar

StartChar: uni0647
Encoding: 1607 1607 42
GlifName: uni0647
Width: 942
VWidth: 2972
GlyphClass: 2
Flags: W
AnchorPoint: "Anchor-10" 424.775 1231.01 basechar 0
AnchorPoint: "Anchor-7" 450.63 -220.576 basechar 0
LayerCount: 2
Fore
SplineSet
462.4765625 637.9765625 m 1,0,1
 427.625 606.634765625 427.625 606.634765625 399.786132812 576.685546875 c 128,-1,2
 371.946289062 546.735351562 371.946289062 546.735351562 351.8046875 519.223632812 c 128,-1,3
 331.6640625 491.7109375 331.6640625 491.7109375 318.252929688 465.772460938 c 128,-1,4
 304.841796875 439.833007812 304.841796875 439.833007812 298.373046875 416.299804688 c 128,-1,5
 291.904296875 392.766601562 291.904296875 392.766601562 291.884765625 370.987304688 c 0,6,7
 291.936523438 295.940429688 291.936523438 295.940429688 335.745117188 259.967773438 c 128,-1,8
 379.5546875 223.99609375 379.5546875 223.99609375 475.344726562 223.9921875 c 0,9,10
 572.327148438 223.99609375 572.327148438 223.99609375 616.51171875 260.241210938 c 128,-1,11
 660.696289062 296.486328125 660.696289062 296.486328125 660.423828125 372.075195312 c 0,12,13
 660.379882812 384.234375 660.379882812 384.234375 657.358398438 397.560546875 c 128,-1,14
 654.3359375 410.88671875 654.3359375 410.88671875 648.336914062 425.424804688 c 128,-1,15
 642.336914062 439.962890625 642.336914062 439.962890625 633.163085938 455.66796875 c 128,-1,16
 623.98828125 471.374023438 623.98828125 471.374023438 611.846679688 488.073242188 c 128,-1,17
 599.704101562 504.7734375 599.704101562 504.7734375 584.177734375 522.654296875 c 128,-1,18
 568.650390625 540.534179688 568.650390625 540.534179688 550.165039062 559.19140625 c 128,-1,19
 531.6796875 577.848632812 531.6796875 577.848632812 509.599609375 597.700195312 c 128,-1,20
 487.51953125 617.551757812 487.51953125 617.551757812 462.4765625 637.9765625 c 1,0,1
395.482421875 983.55859375 m 2,21,22
 871.0078125 635.133789062 871.0078125 635.133789062 870.791992188 366.379882812 c 0,23,24
 871.012695312 165.896484375 871.012695312 165.896484375 696.852539062 57.53515625 c 0,25,26
 668.47265625 39.8115234375 668.47265625 39.8115234375 634.196289062 28.0068359375 c 128,-1,27
 599.920898438 16.203125 599.920898438 16.203125 560.59765625 10.337890625 c 128,-1,28
 521.2734375 4.47265625 521.2734375 4.47265625 476.127929688 4.1943359375 c 0,29,30
 350.291015625 3.9921875 350.291015625 3.9921875 260.5078125 48.91015625 c 0,31,32
 80.978515625 138.6484375 80.978515625 138.6484375 81.3681640625 365.788085938 c 0,33,34
 80.998046875 574.041015625 80.998046875 574.041015625 299.583984375 793.672851562 c 1,35,-1
 270.795898438 818.978515625 l 1,36,-1
 256.923828125 831.171875 l 1,37,-1
 267.9765625 845.96875 l 1,38,-1
 367.638671875 979.39453125 l 1,39,-1
 379.498046875 995.271484375 l 1,40,-1
 395.482421875 983.55859375 l 2,21,22
EndSplineSet
Substitution2: "'fina' Terminal Forms in Arabic lookup 9 subtable" uniFEEA
Substitution2: "'medi' Medial Forms in Arabic lookup 11 subtable" uniFEEC
Substitution2: "'init' Initial Forms in Arabic lookup 13 subtable" uniFEEB
EndChar

StartChar: uni0648
Encoding: 1608 1608 43
GlifName: uni0648
Width: 890
VWidth: 2164
GlyphClass: 2
Flags: W
AnchorPoint: "Anchor-7" 382.969 -647.998 basechar 0
AnchorPoint: "Anchor-10" 443.256 1132.2 basechar 0
LayerCount: 2
Fore
SplineSet
599.541015625 236.173828125 m 5,0,1
 576.250976562 535.016601562 576.250976562 535.016601562 427.411132812 535.124023438 c 4,2,3
 345.359375 535.018554688 345.359375 535.018554688 309.36328125 428.494140625 c 4,4,5
 300.619140625 402.90234375 300.619140625 402.90234375 296.352539062 378.9921875 c 132,-1,6
 292.084960938 355.08203125 292.084960938 355.08203125 292.159179688 332.583984375 c 4,7,8
 292.090820312 273.453125 292.090820312 273.453125 333.766601562 244.584960938 c 132,-1,9
 375.44140625 215.716796875 375.44140625 215.716796875 468.797851562 216.362304688 c 4,10,11
 531.59375 216.91015625 531.59375 216.91015625 599.541015625 236.173828125 c 5,0,1
468.241210938 -2.1884765625 m 4,12,13
 280 -2 280 -2 181.344726562 78.8271484375 c 4,14,15
 83 160 83 160 83.0048828125 318.352539062 c 4,16,17
 83 444 83 444 136.618164062 556.088867188 c 4,18,19
 236 764 236 764 439.11328125 764.077148438 c 4,20,21
 657 764 657 764 749.64453125 522.150390625 c 4,22,23
 812 361 812 361 810.833007812 160.032226562 c 4,24,25
 809 -138 809 -138 630.877929688 -306.045898438 c 4,26,27
 452.55078125 -474.424804688 452.55078125 -474.424804688 105.352539062 -510.05859375 c 6,28,-1
 88.111328125 -511.828125 l 5,29,-1
 83.9072265625 -495.013671875 l 5,30,-1
 41.33203125 -324.712890625 l 5,31,-1
 35.7353515625 -302.323242188 l 5,32,-1
 58.693359375 -299.966796875 l 6,33,34
 278 -277 278 -277 408 -200 c 4,35,36
 543 -119 543 -119 592.361328125 9.34765625 c 5,37,38
 499 -2 499 -2 468.241210938 -2.1884765625 c 4,12,13
EndSplineSet
Substitution2: "'fina' Terminal Forms in Arabic lookup 9 subtable" uniFEEE
EndChar

StartChar: uni0649
Encoding: 1609 1609 44
GlifName: uni0649
Width: 1504
VWidth: 2972
GlyphClass: 2
Flags: MW
AnchorPoint: "Anchor-7" 671.902 -696.086 basechar 0
AnchorPoint: "Anchor-10" 727.6 976.22 basechar 0
LayerCount: 2
Fore
SplineSet
298.268554688 61.2392578125 m 0,0,1
 298.140625 -111.64453125 298.140625 -111.64453125 406.6484375 -197.234375 c 128,-1,2
 515.157226562 -282.823242188 515.157226562 -282.823242188 740.958007812 -283.607421875 c 0,3,4
 914.595703125 -283.990234375 914.595703125 -283.990234375 1050.58398438 -220.720703125 c 0,5,6
 1120.23925781 -188.408203125 1120.23925781 -188.408203125 1172.51464844 -134.6953125 c 0,7,8
 1221.97851562 -83.8935546875 1221.97851562 -83.8935546875 1221.80761719 -20.359375 c 0,9,10
 1221.83886719 -10.8916015625 1221.83886719 -10.8916015625 1219.39648438 -4.4501953125 c 128,-1,11
 1216.953125 1.9912109375 1216.953125 1.9912109375 1210.64453125 7.0283203125 c 128,-1,12
 1204.33496094 12.0654296875 1204.33496094 12.0654296875 1192.70214844 14.4873046875 c 128,-1,13
 1181.06933594 16.9091796875 1181.06933594 16.9091796875 1163.44628906 17.0146484375 c 2,14,-1
 1050.27929688 17.693359375 l 2,15,16
 919.901367188 18.376953125 919.901367188 18.376953125 850.403320312 73.796875 c 128,-1,17
 780.905273438 129.217773438 780.905273438 129.217773438 780.791992188 236.795898438 c 0,18,19
 781.008789062 433.78515625 781.008789062 433.78515625 906.260742188 570.518554688 c 0,20,21
 986.584960938 658.09765625 986.584960938 658.09765625 1099.69335938 701.82421875 c 128,-1,22
 1212.80175781 745.549804688 1212.80175781 745.549804688 1357 745.549804688 c 2,23,-1
 1378.37597656 745.549804688 l 1,24,-1
 1398.40722656 745.549804688 l 1,25,-1
 1398.37597656 725.518554688 l 1,26,-1
 1398.0703125 532.708984375 l 1,27,-1
 1398.0390625 512.740234375 l 1,28,-1
 1378.0703125 512.740234375 l 1,29,-1
 1355.98339844 512.740234375 l 2,30,31
 1202.27929688 512.990234375 1202.27929688 512.990234375 1102.7578125 443.46875 c 0,32,33
 1052.36132812 408.307617188 1052.36132812 408.307617188 1027.75195312 366.748046875 c 128,-1,34
 1003.14257812 325.188476562 1003.14257812 325.188476562 1002.43164062 275.7109375 c 0,35,36
 1002.34375 269.669921875 1002.34375 269.669921875 1002.98144531 264.916015625 c 132,-1,37
 1003.61816406 260.161132812 1003.61816406 260.161132812 1004.8515625 257.041992188 c 132,-1,38
 1006.0859375 253.922851562 1006.0859375 253.922851562 1007.44628906 251.958007812 c 132,-1,39
 1008.80664062 249.993164062 1008.80664062 249.993164062 1010.53613281 248.588867188 c 0,40,41
 1021.97460938 239.166015625 1021.97460938 239.166015625 1051.96679688 239.215820312 c 2,42,-1
 1171.01074219 239.413085938 l 2,43,44
 1295.51171875 239.721679688 1295.51171875 239.721679688 1361.8359375 184.03515625 c 128,-1,45
 1428.16113281 128.348632812 1428.16113281 128.348632812 1428.3515625 20.142578125 c 0,46,47
 1427.984375 -282.852539062 1427.984375 -282.852539062 1128.31835938 -419.8984375 c 0,48,49
 955.365234375 -498.99609375 955.365234375 -498.99609375 735.979492188 -499.208984375 c 0,50,51
 208.947265625 -499.03515625 208.947265625 -499.03515625 106.555664062 -131.502929688 c 0,52,53
 82.9326171875 -45.6083984375 82.9326171875 -45.6083984375 82.76171875 58.0302734375 c 0,54,55
 83.00390625 300.25390625 83.00390625 300.25390625 214.200195312 595.461914062 c 2,56,-1
 222.104492188 613.247070312 l 1,57,-1
 240.09765625 605.831054688 l 1,58,-1
 398.62109375 540.491210938 l 1,59,-1
 417.575195312 532.678710938 l 1,60,-1
 409.296875 513.923828125 l 2,61,62
 298.005859375 261.794921875 298.005859375 261.794921875 298.268554688 61.2392578125 c 0,0,1
EndSplineSet
Substitution2: "'fina' Terminal Forms in Arabic lookup 9 subtable" uniFEF0
Substitution2: "'medi' Medial Forms in Arabic lookup 11 subtable" uniFBE9
Substitution2: "'init' Initial Forms in Arabic lookup 13 subtable" uniFBE8
EndChar

StartChar: uni064B
Encoding: 1611 1611 46
GlifName: uni064B_
Width: -26
VWidth: 2316
GlyphClass: 4
Flags: W
AnchorPoint: "Anchor-10" 593.551 1113.65 mark 0
AnchorPoint: "Anchor-9" 593.551 1113.65 mark 0
AnchorPoint: "Anchor-1" 553.285 1596.25 basemark 0
AnchorPoint: "Anchor-1" 593.551 1113.65 mark 0
LayerCount: 2
Fore
SplineSet
316.700195312 1076.40039062 m 1,0,-1
 316.700195312 1179.97753906 l 1,1,-1
 316.700195312 1186.69103815 l 1,2,-1
 322.91384908 1189.23300135 l 1,3,-1
 778.313263143 1375.5337826 l 1,4,-1
 792.099609375 1381.17368242 l 1,5,-1
 792.099609375 1366.27832031 l 1,6,-1
 792.099609375 1262.70019531 l 1,7,-1
 792.099609375 1255.98668289 l 1,8,-1
 785.885938605 1253.44472606 l 1,9,-1
 330.486524542 1067.14492137 l 1,10,-1
 316.700195312 1061.50505807 l 1,11,-1
 316.700195312 1076.40039062 l 1,0,-1
316.700195312 1288.40039062 m 1,12,-1
 316.700195312 1391.97753906 l 1,13,-1
 316.700195312 1398.69103815 l 1,14,-1
 322.91384908 1401.23300135 l 1,15,-1
 778.313263143 1587.5337826 l 1,16,-1
 792.099609375 1593.17368242 l 1,17,-1
 792.099609375 1578.27832031 l 1,18,-1
 792.099609375 1474.70019531 l 1,19,-1
 792.099609375 1467.98668289 l 1,20,-1
 785.885938605 1465.44472606 l 1,21,-1
 330.486524542 1279.14492137 l 1,22,-1
 316.700195312 1273.50505807 l 1,23,-1
 316.700195312 1288.40039062 l 1,12,-1
EndSplineSet
EndChar

StartChar: uni064C
Encoding: 1612 1612 47
GlifName: uni064C_
Width: -26
VWidth: 2316
GlyphClass: 4
Flags: W
AnchorPoint: "Anchor-10" 680.906 1218.67 mark 0
AnchorPoint: "Anchor-9" 680.906 1218.67 mark 0
AnchorPoint: "Anchor-1" 571.739 1915.46 basemark 0
AnchorPoint: "Anchor-1" 680.906 1218.67 mark 0
LayerCount: 2
Fore
SplineSet
595.332988616 1710.73949001 m 0,0,1
 590.936791136 1705.56224996 590.936791136 1705.56224996 587.657875341 1700.09285866 c 128,-1,2
 584.378959546 1694.62346735 584.378959546 1694.62346735 582.190196765 1688.80538407 c 128,-1,3
 580.001433983 1682.98730079 580.001433983 1682.98730079 578.889314262 1676.82567593 c 128,-1,4
 577.777194541 1670.66405107 577.777194541 1670.66405107 577.714102801 1664.06956461 c 0,5,6
 577.837544302 1639.00756958 577.837544302 1639.00756958 592.325803191 1620.47765325 c 128,-1,7
 606.81406208 1601.94773693 606.81406208 1601.94773693 637.457754306 1589.06409619 c 0,8,9
 642.632877748 1586.88829992 642.632877748 1586.88829992 649.343514408 1584.39381355 c 128,-1,10
 656.054151068 1581.89932719 656.054151068 1581.89932719 664.258102478 1579.10109687 c 128,-1,11
 672.462053887 1576.30286655 672.462053887 1576.30286655 682.168599427 1573.19904567 c 128,-1,12
 691.875144968 1570.0952248 691.875144968 1570.0952248 703.013938048 1566.70926047 c 1,13,14
 725.00025965 1607.35703093 725.00025965 1607.35703093 725.001953127 1648.82011357 c 0,15,16
 725.001035166 1694.96419042 725.001035166 1694.96419042 707.752262602 1715.78725957 c 128,-1,17
 690.503490037 1736.61032872 690.503490037 1736.61032872 654.369293948 1736.29418675 c 0,18,19
 644.701357554 1736.22700335 644.701357554 1736.22700335 636.245503082 1734.59458644 c 128,-1,20
 627.78964861 1732.96216953 627.78964861 1732.96216953 620.468368965 1729.74486852 c 128,-1,21
 613.147089319 1726.5275675 613.147089319 1726.5275675 606.913689328 1721.80230354 c 128,-1,22
 600.680289337 1717.07703957 600.680289337 1717.07703957 595.332988616 1710.73949001 c 0,0,1
328.794175989 1514.66508857 m 2,23,24
 330.854530626 1403.67155877 330.854530626 1403.67155877 362.043298008 1351.18176536 c 128,-1,25
 393.23206539 1298.69197195 393.23206539 1298.69197195 452.435717992 1299.2748766 c 0,26,27
 519.908803243 1299.95903071 519.908803243 1299.95903071 593.516393978 1371.25249643 c 0,28,29
 633.301872698 1410.50617478 633.301872698 1410.50617478 669.71311544 1479.12629336 c 1,30,-1
 652.935409954 1482.68687219 l 2,31,32
 618.744621666 1490.04763248 618.744621666 1490.04763248 591.753761594 1500.38731518 c 128,-1,33
 564.762901521 1510.72699787 564.762901521 1510.72699787 544.189389231 1524.67339062 c 128,-1,34
 523.615876941 1538.61978337 523.615876941 1538.61978337 510.334967988 1556.01050735 c 0,35,36
 493.260007915 1578.71173903 493.260007915 1578.71173903 484.630003958 1603.56743182 c 128,-1,37
 476 1628.4231246 476 1628.4231246 476 1655.09960938 c 0,38,39
 476 1708.38809745 476 1708.38809745 494.163645835 1744.24880196 c 0,40,41
 540.889269719 1834.97555686 540.889269719 1834.97555686 650.113950745 1835.41389881 c 0,42,43
 726.006785132 1836.0330194 726.006785132 1836.0330194 772.146698583 1791.46525142 c 0,44,45
 789.194599828 1774.96232863 789.194599828 1774.96232863 800.588811506 1753.51021729 c 128,-1,46
 811.983023185 1732.05810595 811.983023185 1732.05810595 817.619402999 1706.35287682 c 128,-1,47
 823.255782813 1680.64764769 823.255782813 1680.64764769 823.39028863 1650.47664788 c 0,48,49
 823.962530996 1612.55825469 823.962530996 1612.55825469 805.141720143 1550.42903107 c 1,50,-1
 822.39407597 1549.52321916 l 2,51,52
 851.343008583 1547.99581168 851.343008583 1547.99581168 880.659935647 1547.51820491 c 2,53,-1
 890.497070312 1547.35797083 l 1,54,-1
 890.497070312 1537.51953125 l 1,55,-1
 890.497070312 1459.00878906 l 1,56,-1
 890.497070312 1448.76103296 l 1,57,-1
 880.252382446 1449.01178312 l 2,58,59
 839.883564296 1449.99985495 839.883564296 1449.99985495 828.933500934 1451.05274565 c 2,60,-1
 760.098965306 1457.671451 l 1,61,62
 713.287940518 1348.35514582 713.287940518 1348.35514582 626.599967731 1273.58686553 c 0,63,64
 543.763167734 1201.00157435 543.763167734 1201.00157435 453.707735365 1200.96387805 c 0,65,66
 258.158918039 1199.94878 258.158918039 1199.94878 253.148730662 1514.3201408 c 2,67,-1
 252.986819431 1524.47949219 l 1,68,-1
 263.147460938 1524.47949219 l 1,69,-1
 318.795898438 1524.47949219 l 1,70,-1
 328.611992829 1524.47949219 l 1,71,-1
 328.794175989 1514.66508857 l 2,23,24
EndSplineSet
EndChar

StartChar: uni064D
Encoding: 1613 1613 48
GlifName: uni064D_
Width: -26
VWidth: 2316
GlyphClass: 4
Flags: W
AnchorPoint: "Anchor-7" 546.278 61.7109 mark 0
AnchorPoint: "Anchor-6" 546.278 61.7109 mark 0
AnchorPoint: "Anchor-0" 592.022 -407.025 basemark 0
AnchorPoint: "Anchor-0" 546.278 61.7109 mark 0
LayerCount: 2
Fore
SplineSet
322.099609375 -446 m 1,0,-1
 322.099609375 -342.422851562 l 1,1,-1
 322.099609375 -335.709347019 l 1,2,-1
 328.313270098 -333.167386426 l 1,3,-1
 783.713660723 -146.866605176 l 1,4,-1
 797.5 -141.226720295 l 1,5,-1
 797.5 -156.122070312 l 1,6,-1
 797.5 -259.700195312 l 1,7,-1
 797.5 -266.413713179 l 1,8,-1
 791.286322275 -268.955667403 l 1,9,-1
 335.88593165 -455.255472091 l 1,10,-1
 322.099609375 -460.895320453 l 1,11,-1
 322.099609375 -446 l 1,0,-1
322.099609375 -234 m 1,12,-1
 322.099609375 -130.422851562 l 1,13,-1
 322.099609375 -123.709347019 l 1,14,-1
 328.313270098 -121.167386426 l 1,15,-1
 783.713660723 65.1333948234 l 1,16,-1
 797.5 70.7732797042 l 1,17,-1
 797.5 55.8779296875 l 1,18,-1
 797.5 -47.7001953125 l 1,19,-1
 797.5 -54.4137131796 l 1,20,-1
 791.286322275 -56.9556674038 l 1,21,-1
 335.88593165 -243.255472091 l 1,22,-1
 322.099609375 -248.895320453 l 1,23,-1
 322.099609375 -234 l 1,12,-1
EndSplineSet
EndChar

StartChar: uni064E
Encoding: 1614 1614 49
GlifName: uni064E_
Width: -26
VWidth: 2316
GlyphClass: 4
Flags: W
AnchorPoint: "Anchor-10" 581.66 1364.63 mark 0
AnchorPoint: "Anchor-9" 581.66 1364.63 mark 0
AnchorPoint: "Anchor-1" 541.396 1651.77 basemark 0
AnchorPoint: "Anchor-1" 581.66 1364.63 mark 0
LayerCount: 2
Fore
SplineSet
286.099609375 1349.09960938 m 1,0,-1
 286.099609375 1452.67773438 l 1,1,-1
 286.099609375 1459.39123892 l 1,2,-1
 292.313270098 1461.93319952 l 1,3,-1
 747.713660723 1648.23398076 l 1,4,-1
 761.5 1653.87386564 l 1,5,-1
 761.5 1638.97851562 l 1,6,-1
 761.5 1535.40039062 l 1,7,-1
 761.5 1528.68688608 l 1,8,-1
 755.286339277 1526.14492548 l 1,9,-1
 299.885948652 1339.84414424 l 1,10,-1
 286.099609375 1334.20425936 l 1,11,-1
 286.099609375 1349.09960938 l 1,0,-1
EndSplineSet
EndChar

StartChar: uni064F
Encoding: 1615 1615 50
GlifName: uni064F_
Width: -26
VWidth: 2316
GlyphClass: 4
Flags: W
AnchorPoint: "Anchor-10" 591.295 1299.37 mark 0
AnchorPoint: "Anchor-9" 591.295 1299.37 mark 0
AnchorPoint: "Anchor-1" 570.134 1910.4 basemark 0
AnchorPoint: "Anchor-1" 591.295 1299.37 mark 0
LayerCount: 2
Fore
SplineSet
812.652665768 1454.00195313 m 2,0,1
 751.78021351 1454.00195313 751.78021351 1454.00195313 712.710230408 1459.08352409 c 2,2,-1
 687.335318331 1462.38386892 l 1,3,4
 558.568322805 1285.06773343 558.568322805 1285.06773343 319.090592357 1272.68521598 c 2,5,-1
 308.57421875 1272.14145277 l 1,6,-1
 308.57421875 1282.671875 l 1,7,-1
 308.57421875 1360.92578125 l 1,8,-1
 308.57421875 1370.50204957 l 1,9,-1
 318.141518054 1370.91641537 l 2,10,11
 490.584426971 1378.38502706 490.584426971 1378.38502706 578.757102994 1491.18579048 c 1,12,13
 541.038598289 1501.14822841 541.038598289 1501.14822841 501.68402816 1522.69510988 c 0,14,15
 409.982875175 1574.15430851 409.982875175 1574.15430851 410.250170025 1665.62552974 c 0,16,17
 410.643388573 1699.41467667 410.643388573 1699.41467667 420.18661631 1727.88861909 c 128,-1,18
 429.729844047 1756.3625615 429.729844047 1756.3625615 448.490385339 1779.17916878 c 0,19,20
 497.305666103 1838.0023159 497.305666103 1838.0023159 582.964142497 1837.95995879 c 0,21,22
 604.330345155 1837.97397636 604.330345155 1837.97397636 623.95206935 1833.73819673 c 128,-1,23
 643.573793544 1829.5024171 643.573793544 1829.5024171 661.3877089 1820.99883643 c 128,-1,24
 679.201624256 1812.49525576 679.201624256 1812.49525576 694.982677151 1799.78879206 c 0,25,26
 706.426351987 1790.57404494 706.426351987 1790.57404494 715.818270914 1779.81924511 c 128,-1,27
 725.21018984 1769.06444529 725.21018984 1769.06444529 732.541487683 1756.7708827 c 128,-1,28
 739.872785525 1744.47732012 739.872785525 1744.47732012 745.112455178 1730.68365456 c 0,29,30
 756.023852439 1700.69730299 756.023852439 1700.69730299 755.545266838 1665.28608535 c 0,31,32
 755.377128819 1647.29862591 755.377128819 1647.29862591 752.840814617 1628.73474727 c 128,-1,33
 750.304500415 1610.17086864 750.304500415 1610.17086864 745.586377096 1591.76463857 c 128,-1,34
 740.868253776 1573.3584085 740.868253776 1573.3584085 734.023022181 1555.02258408 c 1,35,-1
 740.497736842 1554.44642139 l 2,36,37
 759.894859264 1552.72983209 759.894859264 1552.72983209 777.868656864 1552.18766484 c 128,-1,38
 795.842454464 1551.64549759 795.842454464 1551.64549759 812.271598554 1552.27497559 c 2,39,-1
 822.65234375 1552.67050427 l 1,40,-1
 822.65234375 1542.28222656 l 1,41,-1
 822.65234375 1464.00195312 l 1,42,-1
 822.65234375 1454.00227513 l 1,43,-1
 812.652665768 1454.00195313 l 2,0,1
634.23867863 1571.78321197 m 1,44,-1
 636.931063156 1577.99221245 l 2,45,46
 657.007895062 1624.10082108 657.007895062 1624.10082108 657.158130462 1663.71659773 c 0,47,48
 657.018144084 1700.24612947 657.018144084 1700.24612947 635.655859298 1717.72299222 c 0,49,50
 631.036080907 1721.7039971 631.036080907 1721.7039971 626.338501423 1724.85331003 c 128,-1,51
 621.640921939 1728.00262296 621.640921939 1728.00262296 616.866051031 1730.33619975 c 128,-1,52
 612.091180122 1732.66977654 612.091180122 1732.66977654 607.152303932 1734.22865278 c 128,-1,53
 602.213427743 1735.78752902 602.213427743 1735.78752902 597.160415187 1736.58845637 c 128,-1,54
 592.107402632 1737.38938371 592.107402632 1737.38938371 586.804180607 1737.47260192 c 0,55,56
 546.890680085 1737.94181538 546.890680085 1737.94181538 525.35019664 1709.83400709 c 0,57,58
 509.985673696 1689.61299109 509.985673696 1689.61299109 509.868223725 1662.02007811 c 0,59,60
 509.982046733 1621.41814678 509.982046733 1621.41814678 569.930076292 1593.86909017 c 0,61,62
 590.417215556 1584.36605064 590.417215556 1584.36605064 634.23867863 1571.78321197 c 1,44,-1
EndSplineSet
EndChar

StartChar: uni0650
Encoding: 1616 1616 51
GlifName: uni0650
Width: -26
VWidth: 2316
GlyphClass: 4
Flags: W
AnchorPoint: "Anchor-7" 571.144 -44.8242 mark 0
AnchorPoint: "Anchor-6" 571.144 -44.8242 mark 0
AnchorPoint: "Anchor-0" 619.091 -324.624 basemark 0
AnchorPoint: "Anchor-0" 571.144 -44.8242 mark 0
LayerCount: 2
Fore
SplineSet
332.900390625 -345.599609375 m 1,0,-1
 332.900390625 -242.022460938 l 1,1,-1
 332.900390625 -235.308961846 l 1,2,-1
 339.114044393 -232.766998648 l 1,3,-1
 794.513458456 -46.466217397 l 1,4,-1
 808.299804688 -40.8263175765 l 1,5,-1
 808.299804688 -55.7216796875 l 1,6,-1
 808.299804688 -159.299804688 l 1,7,-1
 808.299804688 -166.013317104 l 1,8,-1
 802.086133918 -168.555273934 l 1,9,-1
 346.686719855 -354.855078621 l 1,10,-1
 332.900390625 -360.494941922 l 1,11,-1
 332.900390625 -345.599609375 l 1,0,-1
EndSplineSet
EndChar

StartChar: uni0651
Encoding: 1617 1617 52
GlifName: uni0651
Width: -26
VWidth: 2393
GlyphClass: 4
Flags: W
AnchorPoint: "Anchor-10" 598.801 1463.71 mark 0
AnchorPoint: "Anchor-9" 598.801 1463.71 mark 0
AnchorPoint: "Anchor-1" 570.087 1849.1 basemark 0
AnchorPoint: "Anchor-1" 598.801 1463.71 mark 0
LayerCount: 2
Fore
SplineSet
618.412645919 1768.89242112 m 2,0,1
 619.30749402 1748.07848034 619.30749402 1748.07848034 619.858659898 1727.40284431 c 128,-1,2
 620.409825777 1706.72720828 620.409825777 1706.72720828 620.623282745 1685.93068262 c 0,3,4
 620.423638877 1642.49315672 620.423638877 1642.49315672 634.277786218 1623.29711008 c 128,-1,5
 648.131933559 1604.10106343 648.131933559 1604.10106343 676.611536658 1604.25164957 c 0,6,7
 707.00449922 1604.48846798 707.00449922 1604.48846798 722.167046056 1626.04174361 c 128,-1,8
 737.329592892 1647.59501923 737.329592892 1647.59501923 737.627208882 1695.2404651 c 0,9,10
 737.659516994 1699.7577161 737.659516994 1699.7577161 737.431492037 1704.9594675 c 128,-1,11
 737.20346708 1710.1612189 737.20346708 1710.1612189 736.71568548 1716.04815989 c 128,-1,12
 736.227903879 1721.93510088 736.227903879 1721.93510088 735.473833248 1728.51195407 c 128,-1,13
 734.719762616 1735.08880727 734.719762616 1735.08880727 733.706793956 1742.31800659 c 128,-1,14
 732.693825296 1749.54720591 732.693825296 1749.54720591 731.408157339 1757.47427959 c 128,-1,15
 730.122489382 1765.40135328 730.122489382 1765.40135328 728.578782012 1773.94792963 c 128,-1,16
 727.035074641 1782.49450598 727.035074641 1782.49450598 725.212257706 1791.74691885 c 128,-1,17
 723.389440772 1800.99933173 723.389440772 1800.99933173 721.308988734 1810.84095415 c 2,18,-1
 719.13196939 1821.13939027 l 1,19,-1
 729.528395956 1822.7860579 l 1,20,-1
 817.60456783 1836.73625321 l 1,21,-1
 826.334444655 1838.11895961 l 1,22,-1
 828.778902953 1829.62500588 l 2,23,24
 847.011141889 1766.27199467 847.011141889 1766.27199467 846.527436109 1705.01225672 c 0,25,26
 846.769789179 1601.41683475 846.769789179 1601.41683475 807.605412545 1546.89629847 c 128,-1,27
 768.441035912 1492.37576219 768.441035912 1492.37576219 690.470246765 1491.66628051 c 0,28,29
 631.084250607 1491.23402318 631.084250607 1491.23402318 588.240970019 1535.03857026 c 1,30,31
 551.365722158 1428.19470822 551.365722158 1428.19470822 431.98662674 1427.88961904 c 0,32,33
 360.213905445 1428.05473914 360.213905445 1428.05473914 322.956209773 1473.69156341 c 128,-1,34
 285.698514102 1519.32838767 285.698514102 1519.32838767 284.303887988 1606.3481088 c 0,35,36
 283.379905143 1667.17297955 283.379905143 1667.17297955 297.434663046 1718.38765035 c 2,37,-1
 299.821453858 1727.08496883 l 1,38,-1
 308.718205051 1725.60580102 l 1,39,-1
 387.032658176 1712.5852932 l 1,40,-1
 397.382508131 1710.86453417 l 1,41,-1
 395.167108556 1700.60917409 l 2,42,43
 385.30795128 1654.96990922 385.30795128 1654.96990922 385.576868959 1619.70855201 c 0,44,45
 385.866831848 1580.92533379 385.866831848 1580.92533379 400.043558855 1563.50064917 c 128,-1,46
 414.220285862 1546.07596454 414.220285862 1546.07596454 443.719459544 1545.90215613 c 0,47,48
 480.086450215 1545.67938079 480.086450215 1545.67938079 498.983795789 1570.47892633 c 128,-1,49
 517.881141363 1595.27847187 517.881141363 1595.27847187 519.957531817 1649.59880369 c 0,50,51
 521.89813562 1700.23233456 521.89813562 1700.23233456 521.096395807 1768.34519121 c 2,52,-1
 520.977302836 1778.46289062 l 1,53,-1
 531.095703125 1778.46289062 l 1,54,-1
 608.421875 1778.46289062 l 1,55,-1
 618.001185324 1778.46289062 l 1,56,-1
 618.412645919 1768.89242112 l 2,0,1
EndSplineSet
EndChar

StartChar: uni0652
Encoding: 1618 1618 53
GlifName: uni0652
Width: -26
VWidth: 2316
GlyphClass: 4
Flags: W
AnchorPoint: "Anchor-10" 603.219 1222.43 mark 0
AnchorPoint: "Anchor-9" 603.219 1222.43 mark 0
AnchorPoint: "Anchor-1" 577.537 1799.66 basemark 0
AnchorPoint: "Anchor-1" 603.219 1222.43 mark 0
LayerCount: 2
Fore
SplineSet
388.139648438 1461.671875 m 128,-1,1
 388.139648438 1547.7143508 388.139648438 1547.7143508 447.76786027 1607.34358965 c 128,-1,2
 507.396977322 1666.97167969 507.396977322 1666.97167969 593.439453125 1666.97167969 c 128,-1,3
 679.480952365 1666.97167969 679.480952365 1666.97167969 739.110130312 1607.34352875 c 0,4,5
 768.794066273 1577.65959279 768.794066273 1577.65959279 783.766662042 1541.06079133 c 128,-1,6
 798.739257812 1504.46198987 798.739257812 1504.46198987 798.739257812 1461.671875 c 0,7,8
 798.739257812 1375.63032532 798.739257812 1375.63032532 739.110130312 1316.00119781 c 0,9,10
 709.426204109 1286.31727161 709.426204109 1286.31727161 672.827648554 1271.34467096 c 128,-1,11
 636.229092998 1256.37207031 636.229092998 1256.37207031 593.439453125 1256.37207031 c 0,12,13
 507.396926877 1256.37207031 507.396926877 1256.37207031 447.767738482 1316.0012587 c 128,-1,0
 388.139648438 1375.63037576 388.139648438 1375.63037576 388.139648438 1461.671875 c 128,-1,1
494.539324642 1460.77257275 m 0,14,15
 494.23045463 1418.04970837 494.23045463 1418.04970837 524.01090201 1388.64323768 c 0,16,17
 553.173312079 1359.10597117 553.173312079 1359.10597117 596.155202806 1359.1718629 c 0,18,19
 638.487861988 1359.10601705 638.487861988 1359.10601705 668.267554951 1388.6432087 c 0,20,21
 678.042996785 1398.49993638 678.042996785 1398.49993638 684.543356192 1409.71569337 c 128,-1,22
 691.043715599 1420.93145037 691.043715599 1420.93145037 694.33943196 1433.66982307 c 128,-1,23
 697.635148321 1446.40819577 697.635148321 1446.40819577 697.73899567 1460.77234913 c 0,24,25
 697.430115035 1503.36494145 697.430115035 1503.36494145 668.267525981 1532.90060131 c 0,26,27
 638.487925481 1562.30623576 638.487925481 1562.30623576 596.154978534 1562.37208206 c 0,28,29
 553.172832243 1562.30618994 553.172832243 1562.30618994 524.010766485 1532.90073685 c 0,30,31
 494.230453769 1503.36381879 494.230453769 1503.36381879 494.539324642 1460.77257275 c 0,14,15
EndSplineSet
EndChar

StartChar: uni0653
Encoding: 1619 1619 54
GlifName: uni0653
Width: -30
VWidth: 2673
GlyphClass: 4
Flags: W
AnchorPoint: "Anchor-10" 461.017 1539.11 mark 0
AnchorPoint: "Anchor-9" 461.017 1539.11 mark 0
AnchorPoint: "Anchor-1" 461.017 1995.25 basemark 0
AnchorPoint: "Anchor-1" 461.017 1539.11 mark 0
LayerCount: 2
Fore
SplineSet
400.348632812 1636.8046875 m 2,0,1
 289.097070303 1652.11547185 289.097070303 1652.11547185 197.061523438 1542.6328125 c 1,2,-1
 95.6953125 1669.29980469 l 5,3,4
 214.313143403 1839.44918336 214.313143403 1839.44918336 383.756835938 1812.15820312 c 6,5,-1
 532.506835938 1788.20019531 l 6,6,7
 632 1772 632 1772 752.004882812 1833.74121094 c 5,8,-1
 817.659179688 1677.28320312 l 1,9,10
 689.104504559 1597.06521074 689.104504559 1597.06521074 540.869140625 1617.46582031 c 2,11,-1
 400.348632812 1636.8046875 l 2,0,1
EndSplineSet
EndChar

StartChar: uni0657
Encoding: 1623 1623 57
GlifName: uni0657
Width: -26
VWidth: 2316
GlyphClass: 4
Flags: W
AnchorPoint: "Anchor-10" 513.285 1370.55 mark 0
AnchorPoint: "Anchor-9" 513.285 1370.55 mark 0
AnchorPoint: "Anchor-1" 573.285 2089.85 basemark 0
AnchorPoint: "Anchor-1" 513.285 1370.55 mark 0
LayerCount: 2
Fore
SplineSet
264.808507494 1814.65723412 m 2,0,1
 321.90247807 1813.06248809 321.90247807 1813.06248809 389.727361986 1806.15219534 c 1,2,3
 541.443736303 2019.70779015 541.443736303 2019.70779015 783.730396573 2042.668288 c 2,4,-1
 794.673828125 2043.70535143 l 1,5,-1
 794.673828125 2032.71289062 l 1,6,-1
 794.673828125 1954.59179688 l 1,7,-1
 794.673828125 1946.06661093 l 1,8,-1
 786.256026125 1944.71775771 l 2,9,10
 699.39612922 1930.7994865 699.39612922 1930.7994865 628.593810435 1890.3349333 c 128,-1,11
 557.79149165 1849.8703801 557.79149165 1849.8703801 503.201464312 1783.38144601 c 1,12,13
 557.798449709 1765.22347105 557.798449709 1765.22347105 597.073754521 1736.50521159 c 0,14,15
 632.265637506 1709.94804333 632.265637506 1709.94804333 650.127296646 1675.33309362 c 128,-1,16
 667.988955785 1640.71814391 667.988955785 1640.71814391 667.976561937 1598.87444814 c 0,17,18
 667.984749854 1574.46490521 667.984749854 1574.46490521 662.706686796 1552.59069946 c 128,-1,19
 657.428623737 1530.7164937 657.428623737 1530.7164937 646.836830423 1511.48171698 c 128,-1,20
 636.245037108 1492.24694026 636.245037108 1492.24694026 620.447595793 1475.98124782 c 0,21,22
 574.252928555 1427.99915345 574.252928555 1427.99915345 501.360237084 1428.01367205 c 0,23,24
 422.921952913 1427.99925002 422.921952913 1427.99925002 366.660355719 1483.05479978 c 0,25,26
 322.021094029 1527.84669221 322.021094029 1527.84669221 321.63552931 1603.29540241 c 0,27,28
 321.982169769 1644.90155089 321.982169769 1644.90155089 342.2098304 1713.45910995 c 1,29,30
 324.067200349 1714.79035361 324.067200349 1714.79035361 305.006142728 1715.50353931 c 128,-1,31
 285.945085106 1716.21672502 285.945085106 1716.21672502 264.454611447 1716.37723202 c 2,32,-1
 254.529296875 1716.45136172 l 1,33,-1
 254.529296875 1726.37695312 l 1,34,-1
 254.529296875 1804.66113281 l 1,35,-1
 254.529296875 1814.94435254 l 1,36,-1
 264.808507494 1814.65723412 l 2,0,1
501.186651833 1526.40112916 m 0,37,38
 536.869352751 1526.92566049 536.869352751 1526.92566049 553.59522326 1549.80158766 c 0,39,40
 560.222509977 1559.35675663 560.222509977 1559.35675663 563.697201699 1571.10290841 c 128,-1,41
 567.171893421 1582.8490602 567.171893421 1582.8490602 567.313206395 1596.65855147 c 0,42,43
 567.175414574 1622.75357532 567.175414574 1622.75357532 549.632087961 1643.44819442 c 128,-1,44
 532.088761349 1664.14281352 532.088761349 1664.14281352 495.132733237 1679.77805618 c 0,45,46
 482.447208429 1685.09779239 482.447208429 1685.09779239 468.861357254 1689.63242809 c 128,-1,47
 455.275506079 1694.16706379 455.275506079 1694.16706379 443.200105724 1697.20299204 c 1,48,49
 420.0026413 1640.46636587 420.0026413 1640.46636587 420.023431251 1604.95366433 c 0,50,51
 420.00233399 1586.08216436 420.00233399 1586.08216436 425.95840058 1572.43794911 c 0,52,53
 434.856324819 1552.00548951 434.856324819 1552.00548951 457.021477414 1539.16442005 c 0,54,55
 479.615981606 1526.04460345 479.615981606 1526.04460345 501.186651833 1526.40112916 c 0,37,38
EndSplineSet
EndChar

StartChar: uni065A
Encoding: 1626 1626 58
GlifName: uni065A_
Width: 1135
VWidth: 2316
GlyphClass: 4
Flags: W
AnchorPoint: "Anchor-10" 573.285 1350.55 mark 0
AnchorPoint: "Anchor-9" 573.285 1350.55 mark 0
AnchorPoint: "Anchor-1" 571.012 1862.38 basemark 0
AnchorPoint: "Anchor-1" 573.285 1350.55 mark 0
LayerCount: 2
Fore
SplineSet
493.785304065 1439.29243179 m 1,0,-1
 299.942530627 1763.35688492 l 1,1,-1
 290.89034856 1778.49023438 l 1,2,-1
 308.524414062 1778.49023438 l 1,3,-1
 412.922851562 1778.49023438 l 1,4,-1
 418.274779537 1778.49023438 l 1,5,-1
 421.243432456 1774.03711941 l 1,6,-1
 573.285181585 1545.96755152 l 1,7,-1
 725.327872196 1774.0371428 l 1,8,-1
 728.296527603 1778.49023438 l 1,9,-1
 733.6484375 1778.49023438 l 1,10,-1
 838.047851562 1778.49023438 l 1,11,-1
 855.682053877 1778.49023438 l 1,12,-1
 846.629700818 1763.35682778 l 1,13,-1
 652.783997694 1439.29237465 l 1,14,-1
 649.872946482 1434.42578125 l 1,15,-1
 644.202148438 1434.42578125 l 1,16,-1
 502.3671875 1434.42578125 l 1,17,-1
 496.696345459 1434.42578125 l 1,18,-1
 493.785304065 1439.29243179 l 1,0,-1
EndSplineSet
EndChar

StartChar: afii57392
Encoding: 1632 1632 59
GlifName: afii57392
Width: 1077
VWidth: 2972
GlyphClass: 2
Flags: W
LayerCount: 2
Fore
SplineSet
419.290039062 573.262695312 m 0,0,1
 419.290039062 555.80859375 419.290039062 555.80859375 423.157226562 540.579101562 c 128,-1,2
 427.024414062 525.349609375 427.024414062 525.349609375 434.817382812 512.000976562 c 128,-1,3
 442.610351562 498.65234375 442.610351562 498.65234375 454.54296875 486.720703125 c 0,4,5
 463.458007812 477.8046875 463.458007812 477.8046875 473.288085938 471.209960938 c 128,-1,6
 483.1171875 464.615234375 483.1171875 464.615234375 494.055664062 460.163085938 c 0,7,8
 516.1015625 451.189453125 516.1015625 451.189453125 542.590820312 450.967773438 c 0,9,10
 594.329101562 451.41015625 594.329101562 451.41015625 629.639648438 486.721679688 c 0,11,12
 647.3046875 504.385742188 647.3046875 504.385742188 656.078125 525.877929688 c 0,13,14
 659.001953125 533.041992188 659.001953125 533.041992188 660.951171875 540.611328125 c 128,-1,15
 662.900390625 548.180664062 662.900390625 548.180664062 663.895507812 556.364257812 c 128,-1,16
 664.890625 564.546875 664.890625 564.546875 664.890625 573.262695312 c 0,17,18
 664.890625 599.056640625 664.890625 599.056640625 656.078125 620.649414062 c 0,19,20
 651.692382812 631.39453125 651.692382812 631.39453125 645.127929688 641.138671875 c 128,-1,21
 638.563476562 650.8828125 638.563476562 650.8828125 629.640625 659.806640625 c 0,22,23
 594.330078125 695.116210938 594.330078125 695.116210938 541.588867188 695.559570312 c 0,24,25
 528.633789062 695.44921875 528.633789062 695.44921875 516.627929688 693.130859375 c 128,-1,26
 504.622070312 690.813476562 504.622070312 690.813476562 493.864257812 686.390625 c 0,27,28
 486.658203125 683.427734375 486.658203125 683.427734375 479.943359375 679.532226562 c 128,-1,29
 473.227539062 675.637695312 473.227539062 675.637695312 466.868164062 670.705078125 c 128,-1,30
 460.509765625 665.7734375 460.509765625 665.7734375 454.541992188 659.806640625 c 0,31,32
 419.290039062 624.555664062 419.290039062 624.555664062 419.290039062 573.262695312 c 0,0,1
299.48828125 811.606445312 m 128,-1,34
 324.1171875 836.234375 324.1171875 836.234375 351.228515625 854.737304688 c 128,-1,35
 378.484375 873.338867188 378.484375 873.338867188 408.219726562 885.7421875 c 0,36,37
 467.616210938 910.51953125 467.616210938 910.51953125 536.678710938 910.51953125 c 0,38,39
 582.643554688 910.51953125 582.643554688 910.51953125 624.352539062 899.534179688 c 128,-1,40
 666.232421875 888.50390625 666.232421875 888.50390625 703.717773438 866.42578125 c 0,41,42
 711.198242188 862.020507812 711.198242188 862.020507812 718.50390625 857.172851562 c 128,-1,43
 725.810546875 852.326171875 725.810546875 852.326171875 732.915039062 847.057617188 c 128,-1,44
 740.01953125 841.7890625 740.01953125 841.7890625 746.947265625 836.0859375 c 128,-1,45
 753.874023438 830.3828125 753.874023438 830.3828125 760.599609375 824.266601562 c 128,-1,46
 767.325195312 818.150390625 767.325195312 818.150390625 773.870117188 811.606445312 c 0,47,48
 823.240234375 762.235351562 823.240234375 762.235351562 848.001953125 702.87890625 c 0,49,50
 860.399414062 673.161132812 860.399414062 673.161132812 866.591796875 640.984375 c 128,-1,51
 872.784179688 608.806640625 872.784179688 608.806640625 872.784179688 574.4140625 c 0,52,53
 872.784179688 436.13671875 872.784179688 436.13671875 773.870117188 337.221679688 c 0,54,55
 761.577148438 324.9296875 761.577148438 324.9296875 748.635742188 314.1484375 c 128,-1,56
 735.6953125 303.368164062 735.6953125 303.368164062 722.115234375 294.12109375 c 0,57,58
 718.227539062 291.474609375 718.227539062 291.474609375 714.288085938 288.953125 c 128,-1,59
 710.348632812 286.431640625 710.348632812 286.431640625 706.353515625 284.03515625 c 128,-1,60
 702.358398438 281.637695312 702.358398438 281.637695312 698.3125 279.3671875 c 128,-1,61
 694.265625 277.09765625 694.265625 277.09765625 690.165039062 274.952148438 c 128,-1,62
 686.064453125 272.807617188 686.064453125 272.807617188 681.9140625 270.790039062 c 128,-1,63
 677.763671875 268.772460938 677.763671875 268.772460938 673.559570312 266.881835938 c 128,-1,64
 669.35546875 264.991210938 669.35546875 264.991210938 665.102539062 263.228515625 c 0,65,66
 650.216796875 257.059570312 650.216796875 257.059570312 634.7109375 252.454101562 c 128,-1,67
 619.205078125 247.848632812 619.205078125 247.848632812 603.118164062 244.813476562 c 128,-1,68
 587.12109375 241.795898438 587.12109375 241.795898438 570.418945312 240.3203125 c 128,-1,69
 553.715820312 238.845703125 553.715820312 238.845703125 536.625 238.923828125 c 0,70,71
 467.646484375 238.606445312 467.646484375 238.606445312 408.237304688 263.231445312 c 0,72,73
 398.319335938 267.341796875 398.319335938 267.341796875 388.67578125 272.147460938 c 128,-1,74
 379.03125 276.953125 379.03125 276.953125 369.672851562 282.447265625 c 0,75,76
 350.991210938 293.413085938 350.991210938 293.413085938 333.403320312 307.145507812 c 128,-1,77
 315.891601562 320.817382812 315.891601562 320.817382812 299.487304688 337.22265625 c 128,-1,78
 283.116210938 353.59375 283.116210938 353.59375 269.419921875 371.111328125 c 128,-1,79
 255.723632812 388.629882812 255.723632812 388.629882812 244.674804688 407.379882812 c 128,-1,80
 233.625976562 426.129882812 233.625976562 426.129882812 225.358398438 445.948242188 c 0,81,82
 212.9609375 475.666015625 212.9609375 475.666015625 206.76953125 507.84375 c 128,-1,83
 200.577148438 540.021484375 200.577148438 540.021484375 200.577148438 574.415039062 c 128,-1,84
 200.577148438 608.809570312 200.577148438 608.809570312 206.767578125 640.986328125 c 128,-1,85
 212.958984375 673.162109375 212.958984375 673.162109375 225.353515625 702.875976562 c 128,-1,86
 237.745117188 732.583984375 237.745117188 732.583984375 256.32421875 759.801757812 c 128,-1,33
 274.90234375 787.020507812 274.90234375 787.020507812 299.48828125 811.606445312 c 128,-1,34
EndSplineSet
EndChar

StartChar: afii57393
Encoding: 1633 1633 60
GlifName: afii57393
Width: 756
VWidth: 2972
GlyphClass: 2
Flags: W
LayerCount: 2
Fore
SplineSet
327.916015625 1384.31054688 m 6,0,1
 534.115234375 932.094146253 534.115234375 932.094146253 534.115234375 288.771484375 c 2,2,-1
 534.115234375 31.5537109375 l 1,3,-1
 534.115234375 11.5537109375 l 1,4,-1
 514.115234375 11.5537109375 l 1,5,-1
 334.796875 11.5537109375 l 1,6,-1
 314.796875 11.5537109375 l 1,7,-1
 314.796875 31.5537109375 l 1,8,-1
 314.791992188 291.923828125 l 2,9,10
 314.99978023 928.326899427 314.99978023 928.326899427 126.9453125 1309.05078125 c 6,11,-1
 116.95703125 1329.27246094 l 5,12,-1
 138.228515625 1336.77050781 l 5,13,-1
 303.0703125 1394.875 l 5,14,-1
 320.325195312 1400.95800781 l 5,15,-1
 327.916015625 1384.31054688 l 6,0,1
EndSplineSet
EndChar

StartChar: afii57394
Encoding: 1634 1634 61
GlifName: afii57394
Width: 1217
VWidth: 2972
GlyphClass: 2
Flags: W
LayerCount: 2
Fore
SplineSet
430.086914062 1100.9921875 m 5,0,1
 486 942 486 942 685.025390625 941.76953125 c 4,2,3
 801 942 801 942 843.51953125 1025.15625 c 4,4,5
 869 1075 869 1075 882.569335938 1160.23339844 c 4,6,7
 895.971354654 1245.81707428 895.971354654 1245.81707428 895.948242188 1364.54003906 c 6,8,-1
 895.944335938 1384.60546875 l 5,9,-1
 916.009765625 1384.54394531 l 5,10,-1
 1095.75488281 1383.99023438 l 5,11,-1
 1115.87890625 1383.92773438 l 5,12,-1
 1115.69238281 1363.80566406 l 6,13,14
 1115 1288 1115 1288 1110.70800781 1222.28320312 c 4,15,16
 1091 960 1091 960 998.356445312 843.58984375 c 4,17,18
 895 714 895 714 689.1796875 714.568359375 c 4,19,20
 578 715 578 715 505.107421875 746.079101562 c 5,21,22
 534.115234375 506.046463395 534.115234375 506.046463395 534.115234375 288.771484375 c 2,23,-1
 534.115234375 31.5537109375 l 1,24,-1
 534.115234375 11.5537109375 l 1,25,-1
 514.115234375 11.5537109375 l 1,26,-1
 334.796875 11.5537109375 l 1,27,-1
 314.796875 11.5537109375 l 1,28,-1
 314.796875 31.5537109375 l 1,29,-1
 314.791992188 291.923828125 l 2,30,31
 314.99978023 928.326899427 314.99978023 928.326899427 126.9453125 1309.05078125 c 6,32,-1
 116.95703125 1329.27246094 l 5,33,-1
 138.227539062 1336.77050781 l 5,34,-1
 302.84765625 1394.79980469 l 5,35,-1
 321.564453125 1401.39746094 l 5,36,-1
 328.307617188 1382.73242188 l 5,37,-1
 430.086914062 1100.9921875 l 5,0,1
EndSplineSet
EndChar

StartChar: afii57395
Encoding: 1635 1635 62
GlifName: afii57395
Width: 1492
VWidth: 2972
GlyphClass: 2
Flags: W
LayerCount: 2
Fore
SplineSet
505.276367188 744.950195312 m 5,0,1
 534.115234375 500.021312921 534.115234375 500.021312921 534.115234375 288.771484375 c 2,2,-1
 534.115234375 31.5537109375 l 1,3,-1
 534.115234375 11.5537109375 l 1,4,-1
 514.115234375 11.5537109375 l 1,5,-1
 334.796875 11.5537109375 l 1,6,-1
 314.796875 11.5537109375 l 1,7,-1
 314.796875 31.5537109375 l 1,8,-1
 314.791992188 291.922851562 l 2,9,10
 314.99978023 928.326899426 314.99978023 928.326899426 126.9453125 1309.05078125 c 6,11,-1
 116.95703125 1329.27246094 l 5,12,-1
 138.227539062 1336.77050781 l 5,13,-1
 302.817382812 1394.7890625 l 5,14,-1
 321.739257812 1401.45898438 l 5,15,-1
 328.349609375 1382.51757812 l 5,16,-1
 438.040039062 1068.23242188 l 6,17,18
 476 959 476 959 602.654296875 957.631835938 c 4,19,20
 680 957 680 957 713.470703125 1013.69824219 c 4,21,22
 747.227398909 1070.38184392 747.227398909 1070.38184392 744.370117188 1194.09863281 c 6,23,-1
 741.666992188 1311.140625 l 5,24,-1
 741.209960938 1330.96191406 l 5,25,-1
 761.025390625 1331.59277344 l 5,26,-1
 919.680664062 1336.64355469 l 5,27,-1
 939.795898438 1337.28320312 l 5,28,-1
 940.310546875 1317.16503906 l 5,29,-1
 944.004882812 1172.89648438 l 6,30,31
 947 1057 947 1057 981.267578125 1004.37109375 c 4,32,33
 1016 951 1016 951 1080.74609375 950.890625 c 4,34,35
 1136 950 1136 950 1159.46484375 999.232421875 c 4,36,37
 1165 1011 1165 1011 1168.80957031 1024.29101562 c 4,38,39
 1173 1038 1173 1038 1176.20800781 1054.42285156 c 4,40,41
 1181 1082 1181 1082 1181.38476562 1088.99609375 c 4,42,43
 1183 1111 1183 1111 1184.87402344 1132.62402344 c 4,44,45
 1186 1154 1186 1154 1187.39746094 1173.82324219 c 4,46,47
 1188 1194 1188 1194 1188.94628906 1212.43554688 c 4,48,49
 1189 1231 1189 1231 1189.51855469 1248.34472656 c 6,50,-1
 1189.83105469 1381.17773438 l 5,51,-1
 1189.87792969 1401.11230469 l 5,52,-1
 1209.8125 1401.13085938 l 5,53,-1
 1386.61523438 1401.29394531 l 5,54,-1
 1406.72265625 1401.3125 l 5,55,-1
 1406.63378906 1381.20507812 l 5,56,-1
 1406.0546875 1250.56152344 l 6,57,58
 1406 1189 1406 1189 1398.64355469 1101.89941406 c 4,59,60
 1384 918 1384 918 1305.43554688 822.40234375 c 132,-1,61
 1227 727 1227 727 1086.50976562 727.76953125 c 4,62,63
 938 729 938 729 837.9296875 833.482421875 c 5,64,65
 806 798 806 798 772.040039062 774.41015625 c 132,-1,66
 738 751 738 751 700.576171875 738.881835938 c 4,67,68
 663 727 663 727 623.088867188 726.943359375 c 4,69,70
 549 727 549 727 505.276367188 744.950195312 c 5,0,1
EndSplineSet
EndChar

StartChar: afii57396
Encoding: 1636 1636 63
GlifName: afii57396
Width: 1056
VWidth: 2972
GlyphClass: 2
Flags: W
LayerCount: 2
Fore
SplineSet
119.3203125 331.176757812 m 0,0,1
 111 558 111 558 453.935546875 749.158203125 c 1,2,3
 199 855 199 855 201.663085938 1040.01757812 c 4,4,5
 203 1137 203 1137 253.037109375 1210.65527344 c 4,6,7
 401.206108826 1427.30136311 401.206108826 1427.30136311 822.442382812 1377.24121094 c 6,8,-1
 841.350585938 1374.99414062 l 5,9,-1
 840.034179688 1355.99804688 l 5,10,-1
 827.4140625 1173.89355469 l 5,11,-1
 825.969726562 1153.04882812 l 5,12,-1
 805.208007812 1155.40332031 l 6,13,14
 756 1161 756 1161 713.874023438 1161.45898438 c 4,15,16
 452 1162 452 1162 450.830078125 1041.95996094 c 4,17,18
 450.002918982 919.432390493 450.002918982 919.432390493 789.400390625 891.642578125 c 2,19,-1
 807.541015625 890.157226562 l 1,20,-1
 807.766601562 871.95703125 l 1,21,-1
 810.046875 688.353515625 l 1,22,-1
 810.216796875 674.672851562 l 1,23,-1
 797.52734375 669.556640625 l 2,24,25
 347 488 347 488 355.474609375 371.564453125 c 0,26,27
 360 306 360 306 449.616210938 270.576171875 c 0,28,29
 539.285376379 234.886415655 539.285376379 234.886415655 723.704101562 236.053710938 c 2,30,-1
 917.640625 237.28125 l 1,31,-1
 937.54296875 237.407226562 l 1,32,-1
 937.766601562 217.505859375 l 1,33,-1
 939.983398438 20.244140625 l 1,34,-1
 940.2109375 -0.025390625 l 1,35,-1
 919.940429688 0.01953125 l 1,36,-1
 717.02734375 0.46875 l 2,37,38
 131 2 131 2 119.3203125 331.176757812 c 0,0,1
EndSplineSet
EndChar

StartChar: afii57397
Encoding: 1637 1637 64
GlifName: afii57397
Width: 1257
VWidth: 2972
GlyphClass: 2
Flags: W
LayerCount: 2
Fore
SplineSet
602.853515625 1003.66308594 m 5,0,1
 330 706 330 706 329.721679688 513.233398438 c 0,2,3
 330 378 330 378 429.040039062 299.807617188 c 0,4,5
 470 268 470 268 526.235351562 251.397460938 c 0,6,7
 582 235 582 235 654.083007812 235.291015625 c 0,8,9
 725 235 725 235 778.846679688 257.358398438 c 0,10,11
 832 280 832 280 870.000976562 324.252929688 c 0,12,13
 889 346 889 346 901.178710938 374.82421875 c 0,14,15
 914 403 914 403 920.087890625 439.966796875 c 128,-1,16
 926 477 926 477 926.259765625 520.24609375 c 0,17,18
 926 751 926 751 602.853515625 1003.66308594 c 5,0,1
380.211914062 1201.44238281 m 5,19,-1
 484.9140625 1370.27050781 l 5,20,-1
 495.6171875 1387.52734375 l 5,21,-1
 512.708984375 1376.56347656 l 6,22,23
 1156 964 1156 964 1156.70605469 497.28515625 c 0,24,25
 1157 357 1157 357 1105.48925781 253.5859375 c 128,-1,26
 1054 150 1054 150 951.696289062 86.974609375 c 0,27,28
 823 7 823 7 640.133789062 8.388671875 c 0,29,30
 458 9 458 9 325.381835938 82.8583984375 c 0,31,32
 96 209 96 209 98.6298828125 496.139648438 c 0,33,34
 102 783 102 783 422.716796875 1146.1640625 c 5,35,-1
 385.045898438 1175.02539062 l 5,36,-1
 370.663085938 1186.04394531 l 5,37,-1
 380.211914062 1201.44238281 l 5,19,-1
EndSplineSet
EndChar

StartChar: afii57398
Encoding: 1638 1638 65
GlifName: afii57398
Width: 1305
VWidth: 2972
GlyphClass: 2
Flags: W
LayerCount: 2
Fore
SplineSet
821.90234375 1101.44726562 m 5,0,1
 664 1061 664 1061 494.084960938 1060.07324219 c 4,2,3
 261.704324615 1059.99990669 261.704324615 1059.99990669 73.189453125 1145.09277344 c 6,4,-1
 61.41796875 1150.40625 l 5,5,-1
 61.41796875 1163.32128906 l 5,6,-1
 61.41796875 1373.89746094 l 5,7,-1
 61.41796875 1405.25683594 l 5,8,-1
 89.8525390625 1392.03222656 l 6,9,10
 283 1302 283 1302 509.771484375 1301.84277344 c 4,11,12
 573 1302 573 1302 634.641601562 1307.5859375 c 4,13,14
 697 1314 697 1314 757.8828125 1324.99023438 c 4,15,16
 799 1332 799 1332 879.020507812 1353.92285156 c 4,17,18
 909 1362 909 1362 939.087890625 1372.54394531 c 4,19,20
 968.114681094 1382.34966089 968.114681094 1382.34966089 998.120117188 1394.31347656 c 6,21,-1
 1025.16210938 1405.09570312 l 5,22,-1
 1025.52539062 1375.98535156 l 6,23,24
 1031 938 1031 938 1070.51611328 608.520996094 c 0,25,26
 1110.02756799 277.769227356 1110.02756799 277.769227356 1182.23046875 37.3056640625 c 2,27,-1
 1189.96289062 11.5537109375 l 1,28,-1
 1163.07519531 11.5537109375 l 1,29,-1
 974.34765625 11.5537109375 l 1,30,-1
 958.654296875 11.5537109375 l 1,31,-1
 954.921875 26.796875 l 2,32,33
 835 518 835 518 821.90234375 1101.44726562 c 5,0,1
EndSplineSet
EndChar

StartChar: afii57399
Encoding: 1639 1639 66
GlifName: afii57399
Width: 1301
VWidth: 2972
GlyphClass: 2
Flags: W
LayerCount: 2
Fore
SplineSet
1229.51757812 1298.91015625 m 5,0,1
 875 604 875 604 750.493164062 11.5537109375 c 1,2,-1
 550.520507812 11.5537109375 l 1,3,4
 423 594 423 594 71.517578125 1298.97949219 c 5,5,-1
 276.11328125 1402.90136719 l 5,6,-1
 284.854492188 1384.15332031 l 6,7,8
 544 829 544 829 650.41796875 394.982421875 c 1,9,10
 756.627534328 829.476276176 756.627534328 829.476276176 1016.046875 1384.17578125 c 6,11,-1
 1024.79980469 1402.89160156 l 5,12,-1
 1229.51757812 1298.91015625 l 5,0,1
EndSplineSet
EndChar

StartChar: afii57400
Encoding: 1640 1640 67
GlifName: afii57400
Width: 1301
VWidth: 2972
GlyphClass: 2
Flags: W
LayerCount: 2
Fore
SplineSet
276.083007812 -15.2529296875 m 1,0,-1
 71.521484375 88.65234375 l 1,1,2
 423 794 423 794 550.522460938 1376.08105469 c 5,3,-1
 750.403320312 1376.08105469 l 5,4,5
 877 794 877 794 1229.39453125 88.6630859375 c 1,6,-1
 1024.77148438 -15.2724609375 l 1,7,-1
 1016.03417969 3.486328125 l 2,8,9
 757 560 757 560 650.513671875 992.608398438 c 5,10,11
 543.890126958 556.550652802 543.890126958 556.550652802 284.841796875 3.4482421875 c 2,12,-1
 276.083007812 -15.2529296875 l 1,0,-1
EndSplineSet
EndChar

StartChar: afii57401
Encoding: 1641 1641 68
GlifName: afii57401
Width: 1179
VWidth: 2972
GlyphClass: 2
Flags: W
LayerCount: 2
Fore
SplineSet
510.067382812 555.165039062 m 4,0,1
 408 555 408 555 329.484375 578.74609375 c 4,2,3
 251 602 251 602 198.5625 648.658203125 c 4,4,5
 146 695 146 695 118.876953125 764.686523438 c 4,6,7
 92 834 92 834 91.9462890625 925.943359375 c 4,8,9
 92 1077 92 1077 165.513671875 1195.05664062 c 4,10,11
 293 1400 293 1400 515.057617188 1400.31542969 c 4,12,13
 656 1400 656 1400 754.577148438 1341.21484375 c 4,14,15
 853 1282 853 1282 906.34765625 1167.13671875 c 4,16,17
 960 1052 960 1052 968.918945312 882.495117188 c 4,18,19
 993.206490599 427.853792787 993.206490599 427.853792787 1001.77734375 31.986328125 c 2,20,-1
 1002.21972656 11.5537109375 l 1,21,-1
 981.782226562 11.5537109375 l 1,22,-1
 809.748046875 11.5537109375 l 1,23,-1
 790.151367188 11.5537109375 l 1,24,-1
 789.751953125 31.146484375 l 1,25,-1
 776.698242188 611.663085938 l 5,26,27
 649 555 649 555 510.067382812 555.165039062 c 4,0,1
512.724609375 784.890625 m 4,28,29
 638 785 638 785 757.263671875 841.396484375 c 5,30,-1
 756.4765625 850.768554688 l 6,31,32
 749 935 749 935 731.29296875 993.67578125 c 4,33,34
 713 1054 713 1054 683.6015625 1092.80273438 c 4,35,36
 654 1131 654 1131 614.46484375 1150.13085938 c 4,37,38
 575 1169 575 1169 523.724609375 1168.7265625 c 4,39,40
 503 1169 503 1169 484.018554688 1165.64941406 c 4,41,42
 465 1163 465 1163 448.240234375 1156.18847656 c 4,43,44
 431 1150 431 1150 416.107421875 1140.22265625 c 4,45,46
 401 1131 401 1131 387.465820312 1117.71582031 c 4,47,48
 374 1105 374 1105 362.033203125 1088.546875 c 4,49,50
 343 1063 343 1063 331.200195312 1037.67089844 c 4,51,52
 319 1012 319 1012 312.9765625 986.702148438 c 4,53,54
 307 961 307 961 307.008789062 935.301757812 c 4,55,56
 307 859 307 859 356.15625 822.076171875 c 4,57,58
 405 785 405 785 512.724609375 784.890625 c 4,28,29
EndSplineSet
EndChar

StartChar: afii57381
Encoding: 1642 1642 69
GlifName: afii57381
Width: 1288
VWidth: 4058
GlyphClass: 2
Flags: W
LayerCount: 2
Fore
SplineSet
729.512695312 365.344726562 m 0,0,1
 729.512695312 443.622070312 729.512695312 443.622070312 785.442382812 498.514648438 c 0,2,3
 840.25 553.322265625 840.25 553.322265625 918.368164062 553.83984375 c 0,4,5
 928.036132812 553.903320312 928.036132812 553.903320312 937.405273438 553.088867188 c 128,-1,6
 946.774414062 552.2734375 946.774414062 552.2734375 955.852539062 550.577148438 c 128,-1,7
 964.930664062 548.879882812 964.930664062 548.879882812 973.706054688 546.27734375 c 128,-1,8
 982.481445312 543.673828125 982.481445312 543.673828125 990.866210938 540.18359375 c 0,9,10
 1002.01074219 535.54296875 1002.01074219 535.54296875 1012.58105469 529.265625 c 128,-1,11
 1023.15234375 522.98828125 1023.15234375 522.98828125 1032.90429688 515.267578125 c 128,-1,12
 1042.65625 507.546875 1042.65625 507.546875 1051.65039062 498.3828125 c 0,13,14
 1078.98339844 471.048828125 1078.98339844 471.048828125 1092.74902344 437.671875 c 128,-1,15
 1106.50390625 404.323242188 1106.50390625 404.323242188 1106.50390625 365.344726562 c 0,16,17
 1106.50390625 326.693359375 1106.50390625 326.693359375 1092.62988281 293.051757812 c 128,-1,18
 1078.75585938 259.411132812 1078.75585938 259.411132812 1051.58496094 232.23828125 c 0,19,20
 996.6640625 177.318359375 996.6640625 177.318359375 918.48046875 177.318359375 c 0,21,22
 892.771484375 177.318359375 892.771484375 177.318359375 869.157226562 183.504882812 c 128,-1,23
 845.54296875 189.69140625 845.54296875 189.69140625 824.501953125 201.921875 c 128,-1,24
 803.461914062 214.153320312 803.461914062 214.153320312 785.422851562 232.192382812 c 0,25,26
 757.836914062 259.266601562 757.836914062 259.266601562 743.674804688 292.971679688 c 128,-1,27
 729.512695312 326.67578125 729.512695312 326.67578125 729.512695312 365.344726562 c 0,0,1
180.96875 1179.37011719 m 0,28,29
 181 1257 181 1257 236.895507812 1312.53710938 c 0,30,31
 255 1330 255 1330 275.936523438 1342.68847656 c 0,32,33
 297 1355 297 1355 320.469726562 1361.22558594 c 0,34,35
 344 1368 344 1368 369.815429688 1367.86523438 c 0,36,37
 448 1368 448 1368 503.109375 1312.40527344 c 0,38,39
 558 1257 558 1257 557.959960938 1179.38183594 c 0,40,41
 558 1101 558 1101 502.922851562 1046.14941406 c 0,42,43
 475 1019 475 1019 442.584960938 1005.09960938 c 0,44,45
 409 991 409 991 369.880859375 991.344726562 c 0,46,47
 331 991 331 991 297.646484375 1005.09082031 c 0,48,49
 264 1019 264 1019 236.893554688 1046.20507812 c 0,50,51
 181 1101 181 1101 180.96875 1179.37011719 c 0,28,29
879.12890625 1405.94140625 m 5,52,-1
 1032.40039062 1326.97558594 l 5,53,-1
 1050.21582031 1317.796875 l 5,54,-1
 1041 1300 l 5,55,-1
 372.7109375 44.4775390625 l 1,56,-1
 363.28515625 26.2734375 l 1,57,-1
 345.319335938 36.146484375 l 1,58,-1
 192.479492188 120.13671875 l 1,59,-1
 175.356445312 129.545898438 l 1,60,-1
 184.36328125 146.883789062 l 1,61,-1
 852.220703125 1397.38183594 l 5,62,-1
 861.409179688 1415.0703125 l 5,63,-1
 879.12890625 1405.94140625 l 5,52,-1
EndSplineSet
EndChar

StartChar: uni066B
Encoding: 1643 1643 70
GlifName: uni066B_
Width: 822
VWidth: 2952
GlyphClass: 2
Flags: W
LayerCount: 2
Fore
SplineSet
532.755859375 818.005859375 m 1,0,-1
 664.05859375 762.266601562 l 1,1,-1
 199.7890625 -309.061523438 l 1,2,-1
 66.3642578125 -250.9921875 l 1,3,-1
 532.755859375 818.005859375 l 1,0,-1
EndSplineSet
EndChar

StartChar: uni066C
Encoding: 1644 1644 71
GlifName: uni066C_
Width: 588
VWidth: 2842
GlyphClass: 2
Flags: W
LayerCount: 2
Fore
SplineSet
127.02734375 150.623046875 m 0,0,1
 127.514648438 199.213867188 127.514648438 199.213867188 145.67578125 231.4453125 c 128,-1,2
 163.8359375 263.676757812 163.8359375 263.676757812 199.989257812 279.850585938 c 128,-1,3
 236.142578125 296.024414062 236.142578125 296.024414062 290.584960938 296.182617188 c 0,4,5
 436.666015625 296.829101562 436.666015625 296.829101562 463.669921875 167.809570312 c 0,6,7
 478.244140625 96.7724609375 478.244140625 96.7724609375 451.774414062 -9.224609375 c 0,8,9
 393.353515625 -232.500976562 393.353515625 -232.500976562 188.64453125 -401.0546875 c 1,10,-1
 137.49609375 -368.359375 l 1,11,12
 310.2109375 -193.501953125 310.2109375 -193.501953125 323.518554688 -10.2431640625 c 2,13,-1
 324.041015625 -3.078125 l 1,14,-1
 324.28125 0.2177734375 l 1,15,-1
 320.977539062 0.138671875 l 1,16,-1
 313.798828125 -0.0322265625 l 2,17,18
 266.21484375 -1.1533203125 266.21484375 -1.1533203125 246.815429688 3.404296875 c 0,19,20
 126.26953125 27.7294921875 126.26953125 27.7294921875 127.02734375 150.623046875 c 0,0,1
EndSplineSet
EndChar

StartChar: afii63167
Encoding: 1645 1645 72
GlifName: afii63167
Width: 1584
VWidth: 2952
GlyphClass: 2
Flags: W
LayerCount: 2
Fore
SplineSet
232.590820312 1038.65136719 m 1,0,-1
 662.741210938 1038.65136719 l 1,1,-1
 664.913085938 1038.65136719 l 1,2,-1
 665.591796875 1040.71484375 l 1,3,-1
 799.995117188 1449.92871094 l 1,4,-1
 934.400390625 1040.71484375 l 1,5,-1
 935.079101562 1038.65136719 l 1,6,-1
 937.250976562 1038.65136719 l 1,7,-1
 1367.40136719 1038.65136719 l 1,8,-1
 1019.86132812 784.586914062 l 1,9,-1
 1018.10644531 783.303710938 l 1,10,-1
 1018.77929688 781.236328125 l 1,11,-1
 1151.70117188 372.89453125 l 1,12,-1
 801.751953125 625.767578125 l 1,13,-1
 799.995117188 627.037109375 l 1,14,-1
 798.23828125 625.767578125 l 1,15,-1
 448.291992188 372.89453125 l 1,16,-1
 581.211914062 781.236328125 l 1,17,-1
 581.884765625 783.303710938 l 1,18,-1
 580.129882812 784.586914062 l 1,19,-1
 232.590820312 1038.65136719 l 1,0,-1
EndSplineSet
EndChar

StartChar: uni066E
Encoding: 1646 1646 73
GlifName: uni066E_
Width: 1837
VWidth: 2972
GlyphClass: 2
Flags: W
AnchorPoint: "Anchor-10" 1007.36 1435.35 basechar 0
AnchorPoint: "Anchor-7" 957.36 -237.261 basechar 0
LayerCount: 2
Fore
SplineSet
890.911132812 0 m 2,0,1
 490.80078125 0 490.80078125 0 285.438476562 126.150390625 c 128,-1,2
 80.076171875 252.301757812 80.076171875 252.301757812 80.16015625 505.848632812 c 0,3,4
 79.9951171875 645.271484375 79.9951171875 645.271484375 136.416015625 770.975585938 c 2,5,-1
 144.5078125 789.00390625 l 1,6,-1
 162.631835938 781.129882812 l 1,7,-1
 320.403320312 712.584960938 l 1,8,-1
 338.241210938 704.834960938 l 1,9,-1
 330.9921875 686.787109375 l 2,10,11
 299.021484375 607.1875 299.021484375 607.1875 299.424804688 534.564453125 c 0,12,13
 299.2265625 380.6328125 299.2265625 380.6328125 439.536132812 302.350585938 c 128,-1,14
 579.845703125 224.069335938 579.845703125 224.069335938 871.873046875 224.13671875 c 0,15,16
 1366.43554688 224.001953125 1366.43554688 224.001953125 1491.69921875 316.197265625 c 0,17,18
 1548.03222656 357.203125 1548.03222656 357.203125 1548.37988281 465.400390625 c 0,19,20
 1548.00976562 552.663085938 1548.00976562 552.663085938 1512.328125 706.1015625 c 2,21,-1
 1507.87890625 725.234375 l 1,22,-1
 1526.92871094 730.02734375 l 1,23,-1
 1690.01367188 771.0625 l 1,24,-1
 1708.01367188 775.591796875 l 1,25,-1
 1713.87207031 757.978515625 l 2,26,27
 1765.00292969 604.231445312 1765.00292969 604.231445312 1764.90625 479.716796875 c 0,28,29
 1765.00390625 232.584960938 1765.00390625 232.584960938 1618.26464844 129.944335938 c 0,30,31
 1432.29492188 0 1432.29492188 0 894.356445312 0 c 2,32,-1
 890.911132812 0 l 2,0,1
EndSplineSet
Substitution2: "'init' Initial Forms in Arabic lookup 13 subtable" uni066E.init
Substitution2: "'medi' Medial Forms in Arabic lookup 11 subtable" uni066E.medi
Substitution2: "'fina' Terminal Forms in Arabic lookup 9 subtable" uni066E.fina
EndChar

StartChar: uni066F
Encoding: 1647 1647 74
GlifName: uni066F_
Width: 1511
VWidth: 2972
GlyphClass: 2
Flags: W
AnchorPoint: "Anchor-10" 121.809 1382.22 basechar 0
AnchorPoint: "Anchor-7" 335.219 -741.353 basechar 0
LayerCount: 2
Fore
SplineSet
1416.27734375 37.232421875 m 0,0,1
 1377.3515625 -210.353515625 1377.3515625 -210.353515625 1205.91210938 -335.19140625 c 128,-1,2
 1034.47363281 -460.029296875 1034.47363281 -460.029296875 736.87109375 -460.060546875 c 0,3,4
 523.758789062 -459.999023438 523.758789062 -459.999023438 380.459960938 -396.407226562 c 0,5,6
 230.76171875 -329.544921875 230.76171875 -329.544921875 156.0234375 -195.224609375 c 0,7,8
 82.0283203125 -62.2412109375 82.0283203125 -62.2412109375 80.9580078125 132.690429688 c 0,9,10
 79.9814453125 367.401367188 79.9814453125 367.401367188 182.883789062 587.6640625 c 2,11,-1
 190.967773438 604.966796875 l 1,12,-1
 208.625 597.689453125 l 1,13,-1
 367.3515625 532.266601562 l 1,14,-1
 385.653320312 524.72265625 l 1,15,-1
 378.298828125 506.344726562 l 2,16,17
 336.180664062 401.099609375 336.180664062 401.099609375 316.231445312 310.255859375 c 0,18,19
 296.012695312 219.846679688 296.012695312 219.846679688 296.459960938 140.875976562 c 0,20,21
 297.680664062 -53.6259765625 297.680664062 -53.6259765625 405.796875 -148.639648438 c 128,-1,22
 513.913085938 -243.654296875 513.913085938 -243.654296875 736.256835938 -243.326171875 c 0,23,24
 960.064453125 -242.69921875 960.064453125 -242.69921875 1079.12695312 -157.021484375 c 128,-1,25
 1198.18945312 -71.34375 1198.18945312 -71.34375 1219.87402344 100.575195312 c 1,26,27
 1177.57324219 90.01953125 1177.57324219 90.01953125 1134.2734375 84.8193359375 c 128,-1,28
 1090.97460938 79.6181640625 1090.97460938 79.6181640625 1043.88476562 79.3193359375 c 0,29,30
 875.50390625 78.1171875 875.50390625 78.1171875 786.413085938 151.740234375 c 128,-1,31
 697.321289062 225.36328125 697.321289062 225.36328125 695.42578125 370.452148438 c 0,32,33
 694.98046875 415.920898438 694.98046875 415.920898438 703.458007812 457.498046875 c 0,34,35
 737.577148438 624.751953125 737.577148438 624.751953125 822.083007812 711.4765625 c 0,36,37
 866.029296875 756.959960938 866.029296875 756.959960938 921.876953125 780.08203125 c 128,-1,38
 977.724609375 803.204101562 977.724609375 803.204101562 1043.77734375 803.43359375 c 0,39,40
 1133.91894531 804.040039062 1133.91894531 804.040039062 1201.80664062 759.453125 c 0,41,42
 1380.77929688 644.717773438 1380.77929688 644.717773438 1418.62890625 317.045898438 c 0,43,44
 1436.17871094 166.631835938 1436.17871094 166.631835938 1416.27734375 37.232421875 c 0,0,1
899.454101562 397.69140625 m 0,45,46
 899.6875 344.34765625 899.6875 344.34765625 936.559570312 318.412109375 c 128,-1,47
 973.430664062 292.477539062 973.430664062 292.477539062 1056.50195312 293.232421875 c 0,48,49
 1129.99023438 293.900390625 1129.99023438 293.900390625 1205.06347656 314.034179688 c 1,50,51
 1197.75097656 366.232421875 1197.75097656 366.232421875 1186.08105469 408.868164062 c 128,-1,52
 1174.41113281 451.50390625 1174.41113281 451.50390625 1157.88671875 486.999023438 c 0,53,54
 1114.09570312 583.979492188 1114.09570312 583.979492188 1037.39453125 583.857421875 c 0,55,56
 947.763671875 583.979492188 947.763671875 583.979492188 910.623046875 463.30078125 c 0,57,58
 899.952148438 428.8203125 899.952148438 428.8203125 899.454101562 397.69140625 c 0,45,46
EndSplineSet
Substitution2: "'init' Initial Forms in Arabic lookup 13 subtable" uni066F.init
Substitution2: "'medi' Medial Forms in Arabic lookup 11 subtable" uni066F.medi
Substitution2: "'fina' Terminal Forms in Arabic lookup 9 subtable" uni066F.fina
EndChar

StartChar: uni0670
Encoding: 1648 1648 75
GlifName: uni0670
Width: -29
VWidth: 2574
GlyphClass: 4
Flags: W
AnchorPoint: "Anchor-10" 636.984 1500.61 mark 0
AnchorPoint: "Anchor-9" 636.984 1500.61 mark 0
AnchorPoint: "Anchor-1" 636.984 1997.18 basemark 0
AnchorPoint: "Anchor-1" 636.984 1500.61 mark 0
LayerCount: 2
Fore
SplineSet
583.435546875 1568.26757812 m 1,0,-1
 583.435546875 1969.51660156 l 1,1,-1
 583.435546875 1979.51660156 l 1,2,-1
 593.435546875 1979.51660156 l 1,3,-1
 680.533203125 1979.51660156 l 1,4,-1
 690.533203125 1979.51660156 l 1,5,-1
 690.533203125 1969.51660156 l 1,6,-1
 690.533203125 1568.26757812 l 1,7,-1
 690.533203125 1558.26757812 l 1,8,-1
 680.533203125 1558.26757812 l 1,9,-1
 593.435546875 1558.26757812 l 1,10,-1
 583.435546875 1558.26757812 l 1,11,-1
 583.435546875 1568.26757812 l 1,0,-1
EndSplineSet
EndChar

StartChar: uni0674
Encoding: 1652 1652 76
GlifName: uni0674
Width: 551
VWidth: 2537
GlyphClass: 2
Flags: W
LayerCount: 2
Fore
SplineSet
152.948491566 1975.76088251 m 1,0,1
 91 2034 91 2034 90.783177468 2130.52033426 c 0,2,3
 91 2223 91 2223 152.443070705 2287.8851281 c 0,4,5
 225 2364 225 2364 337.015755588 2364.01562478 c 0,6,7
 414.947485303 2364.00001052 414.947485303 2364.00001052 483.287077756 2319.88082729 c 2,8,-1
 487.834244882 2316.94523326 l 1,9,-1
 487.863138755 2311.53287644 l 1,10,-1
 488.565287193 2180.00748581 l 1,11,-1
 488.664791368 2161.36851331 l 1,12,-1
 473.080048363 2171.59284617 l 2,13,14
 458 2182 458 2182 442.759277635 2188.94073833 c 0,15,16
 428 2196 428 2196 412.303337993 2201.30142593 c 0,17,18
 397 2206 397 2206 381.746050392 2208.71619203 c 0,19,20
 366 2211 366 2211 351.000639113 2211.26163512 c 0,21,22
 321 2211 321 2211 298.851272424 2203.22453972 c 0,23,24
 276 2195 276 2195 261.132392926 2179.92006407 c 0,25,26
 257 2176 257 2176 253.437810663 2170.97299087 c 128,-1,27
 250 2166 250 2166 247.192352845 2161.51841104 c 0,28,29
 244 2157 244 2157 242.384062981 2151.53540044 c 0,30,31
 240 2146 240 2146 239.005151233 2140.99955146 c 128,-1,32
 238 2136 238 2136 237.043383333 2129.89017217 c 0,33,34
 236 2124 236 2124 236.490691667 2118.18308722 c 0,35,36
 237 2092 237 2092 258.487214698 2070.87955655 c 0,37,38
 280 2050 280 2050 324.366218291 2033.19552266 c 0,39,40
 335 2029 335 2029 343.018422455 2031.09583776 c 0,41,42
 368.171466296 2036.09332445 368.171466296 2036.09332445 482.840812883 2058.36057317 c 2,43,-1
 494.747070312 2060.67260863 l 1,44,-1
 494.747070312 2048.54394531 l 1,45,-1
 494.747070312 1923.015625 l 5,46,-1
 494.747070312 1915.13964844 l 5,47,-1
 487.090820312 1913.29394531 l 5,48,-1
 80.6298828125 1815.30566406 l 5,49,-1
 68.2861328125 1812.33007812 l 5,50,-1
 68.2861328125 1825.02734375 l 5,51,-1
 68.2861328125 1948.27050781 l 1,52,-1
 68.2861328125 1956.22585765 l 1,53,-1
 76.0378046502 1958.01448136 l 1,54,-1
 152.948491566 1975.76088251 l 1,0,1
EndSplineSet
EndChar

StartChar: uni06A1
Encoding: 1697 1697 80
GlifName: uni06A_1
Width: 1851
VWidth: 2972
GlyphClass: 2
Flags: W
AnchorPoint: "Anchor-10" 670.853 1650.62 basechar 0
AnchorPoint: "Anchor-7" 653.182 -332.248 basechar 0
LayerCount: 2
Fore
SplineSet
1767.56054688 493.369140625 m 0,0,1
 1765.9453125 199.9609375 1765.9453125 199.9609375 1624.140625 93.5693359375 c 0,2,3
 1498.63476562 0 1498.63476562 0 1190.20996094 0 c 2,4,-1
 859.911132812 0 l 2,5,6
 474.68359375 0 474.68359375 0 276.879882812 126.299804688 c 128,-1,7
 79.0771484375 252.600585938 79.0771484375 252.600585938 79.16015625 505.848632812 c 0,8,9
 78.9951171875 645.271484375 78.9951171875 645.271484375 135.416015625 770.975585938 c 2,10,-1
 143.5078125 789.00390625 l 1,11,-1
 161.631835938 781.129882812 l 1,12,-1
 319.403320312 712.584960938 l 1,13,-1
 337.096679688 704.897460938 l 1,14,-1
 330.052734375 686.938476562 l 2,15,16
 298.021484375 605.271484375 298.021484375 605.271484375 298.43359375 531.317382812 c 0,17,18
 298.231445312 378.963867188 298.231445312 378.963867188 432.396484375 301.623046875 c 128,-1,19
 566.5625 224.282226562 566.5625 224.282226562 846.158203125 224.159179688 c 2,20,-1
 1211.35058594 223.999023438 l 2,21,22
 1391.33984375 223.999023438 1391.33984375 223.999023438 1478.53222656 267.296875 c 128,-1,23
 1565.72460938 310.59375 1565.72460938 310.59375 1570.63867188 392.799804688 c 1,24,25
 1486.28417969 370.974609375 1486.28417969 370.974609375 1391.16210938 370.76953125 c 0,26,27
 1223.61523438 370.888671875 1223.61523438 370.888671875 1134.59472656 444.452148438 c 128,-1,28
 1045.57421875 518.014648438 1045.57421875 518.014648438 1042.83398438 661.745117188 c 0,29,30
 1042.54492188 676.653320312 1042.54492188 676.653320312 1043.3515625 691.444335938 c 128,-1,31
 1044.15722656 706.235351562 1044.15722656 706.235351562 1046.03808594 720.639648438 c 128,-1,32
 1047.91796875 735.04296875 1047.91796875 735.04296875 1050.84472656 748.860351562 c 0,33,34
 1060.93066406 802.82421875 1060.93066406 802.82421875 1077.33496094 848.98828125 c 128,-1,35
 1093.73925781 895.15234375 1093.73925781 895.15234375 1116.85546875 933.90234375 c 128,-1,36
 1139.97167969 972.651367188 1139.97167969 972.651367188 1169.4921875 1002.93164062 c 0,37,38
 1213.73339844 1048.68554688 1213.73339844 1048.68554688 1269.6015625 1071.81542969 c 128,-1,39
 1325.46972656 1094.9453125 1325.46972656 1094.9453125 1391.28027344 1094.88476562 c 0,40,41
 1480.88085938 1095.0078125 1480.88085938 1095.0078125 1549.18945312 1050.91894531 c 0,42,43
 1725.8671875 936.614257812 1725.8671875 936.614257812 1760.05761719 618.290039062 c 0,44,45
 1763.52246094 585.224609375 1763.52246094 585.224609375 1765.3984375 554.000976562 c 128,-1,46
 1767.27441406 522.776367188 1767.27441406 522.776367188 1767.56054688 493.369140625 c 0,0,1
1246.85839844 689.228515625 m 0,47,48
 1246.91796875 636.231445312 1246.91796875 636.231445312 1283.78222656 610.296875 c 128,-1,49
 1320.64550781 584.362304688 1320.64550781 584.362304688 1404.01367188 584.684570312 c 0,50,51
 1477.05175781 584.958984375 1477.05175781 584.958984375 1552.41308594 605.41015625 c 1,52,53
 1537.74804688 707.557617188 1537.74804688 707.557617188 1505.28320312 778.470703125 c 0,54,55
 1482.375 828.579101562 1482.375 828.579101562 1452.59960938 851.877929688 c 128,-1,56
 1422.82421875 875.176757812 1422.82421875 875.176757812 1384.79296875 875.30859375 c 0,57,58
 1355.42089844 875.221679688 1355.42089844 875.221679688 1332.18164062 862.962890625 c 128,-1,59
 1308.94238281 850.703125 1308.94238281 850.703125 1290.14160156 823.755859375 c 128,-1,60
 1271.33984375 796.80859375 1271.33984375 796.80859375 1257.98925781 754.629882812 c 0,61,62
 1256.3984375 749.603515625 1256.3984375 749.603515625 1255.03515625 744.665039062 c 128,-1,63
 1253.67285156 739.727539062 1253.67285156 739.727539062 1252.54394531 734.913085938 c 128,-1,64
 1251.41601562 730.099609375 1251.41601562 730.099609375 1250.51269531 725.37109375 c 128,-1,65
 1249.60839844 720.642578125 1249.60839844 720.642578125 1248.93261719 716.034179688 c 128,-1,66
 1248.25683594 711.42578125 1248.25683594 711.42578125 1247.80078125 706.900390625 c 128,-1,67
 1247.34570312 702.374023438 1247.34570312 702.374023438 1247.11132812 697.965820312 c 128,-1,68
 1246.87695312 693.557617188 1246.87695312 693.557617188 1246.85839844 689.228515625 c 0,47,48
EndSplineSet
Substitution2: "'init' Initial Forms in Arabic lookup 13 subtable" uni06A1.init
Substitution2: "'medi' Medial Forms in Arabic lookup 11 subtable" uni06A1.medi
Substitution2: "'fina' Terminal Forms in Arabic lookup 9 subtable" uni06A1.fina
EndChar

StartChar: uni06A9
Encoding: 1705 1705 81
GlifName: uni06A_9
Width: 1878
VWidth: 2972
GlyphClass: 2
Flags: W
AnchorPoint: "Anchor-7" 750.268 -216.468 basechar 0
AnchorPoint: "Anchor-10" 1125.88 1455.07 basechar 0
LayerCount: 2
Fore
SplineSet
1543.93847656 693.24609375 m 0,0,1
 1679.10644531 546.700195312 1679.10644531 546.700195312 1676.70703125 370.030273438 c 0,2,3
 1674.32226562 245.499023438 1674.32226562 245.499023438 1600.37792969 162.69921875 c 128,-1,4
 1526.43359375 79.8994140625 1526.43359375 79.8994140625 1387.29394531 39.94921875 c 128,-1,5
 1248.15429688 -0 1248.15429688 -0 1044.10449219 0 c 2,6,-1
 862.553710938 0 l 2,7,8
 476.017578125 0 476.017578125 0 277.546875 126.288085938 c 128,-1,9
 79.0771484375 252.577148438 79.0771484375 252.577148438 79.16015625 505.848632812 c 0,10,11
 78.9951171875 645.271484375 78.9951171875 645.271484375 135.416015625 770.975585938 c 2,12,-1
 143.5078125 789.00390625 l 1,13,-1
 161.631835938 781.129882812 l 1,14,-1
 319.403320312 712.584960938 l 1,15,-1
 337.096679688 704.897460938 l 1,16,-1
 330.052734375 686.938476562 l 2,17,18
 313.96484375 645.921875 313.96484375 645.921875 306.096679688 607.063476562 c 128,-1,19
 298.227539062 568.204101562 298.227539062 568.204101562 298.43359375 531.370117188 c 0,20,21
 299.904296875 223.993164062 299.904296875 223.993164062 862.553710938 223.993164062 c 2,22,-1
 1043.27441406 223.993164062 l 2,23,24
 1457.91796875 224 1457.91796875 224 1457.21679688 395.0546875 c 0,25,26
 1457.01953125 484.333007812 1457.01953125 484.333007812 1360.00390625 575.53125 c 0,27,28
 1206.98632812 717.790039062 1206.98632812 717.790039062 1088.17285156 811.245117188 c 0,29,30
 1048.40625 842.15625 1048.40625 842.15625 1021.4765625 874.670898438 c 128,-1,31
 994.547851562 907.185546875 994.547851562 907.185546875 980.40234375 942.50390625 c 128,-1,32
 966.2578125 977.822265625 966.2578125 977.822265625 966.411132812 1014.46777344 c 0,33,34
 965.954101562 1157.23339844 965.954101562 1157.23339844 1119.50683594 1215.54296875 c 2,35,-1
 1812.76367188 1478.79785156 l 1,36,-1
 1839.86328125 1489.08886719 l 1,37,-1
 1839.86328125 1460.10058594 l 1,38,-1
 1839.86328125 1279.46289062 l 1,39,-1
 1839.86328125 1265.57617188 l 1,40,-1
 1826.8515625 1260.72363281 l 1,41,-1
 1186.140625 1021.78613281 l 1,42,43
 1309.04003906 917.876953125 1309.04003906 917.876953125 1398.30078125 835.931640625 c 128,-1,44
 1487.5625 753.986328125 1487.5625 753.986328125 1543.93847656 693.24609375 c 0,0,1
EndSplineSet
Substitution2: "'init' Initial Forms in Arabic lookup 13 subtable" uniFB90
Substitution2: "'medi' Medial Forms in Arabic lookup 11 subtable" uniFB91
Substitution2: "'fina' Terminal Forms in Arabic lookup 9 subtable" uniFB8F
EndChar

StartChar: afii57514
Encoding: 1722 1722 83
GlifName: afii57514
Width: 1475
VWidth: 2972
GlyphClass: 2
Flags: W
AnchorPoint: "Anchor-10" 727.479 1217.75 basechar 0
AnchorPoint: "Anchor-7" 758.023 -703.042 basechar 0
LayerCount: 2
Fore
SplineSet
716.37109375 -239.6953125 m 0,0,1
 947.578125 -238.87109375 947.578125 -238.87109375 1059.54003906 -134.325195312 c 128,-1,2
 1171.50195312 -29.779296875 1171.50195312 -29.779296875 1171.03710938 183.40625 c 0,3,4
 1171.00097656 370.39453125 1171.00097656 370.39453125 1083.04199219 551.354492188 c 2,5,-1
 1073.21777344 571.56640625 l 1,6,-1
 1094.43261719 578.978515625 l 1,7,-1
 1267.55761719 639.465820312 l 1,8,-1
 1285.59179688 645.766601562 l 1,9,-1
 1292.71289062 628.040039062 l 2,10,11
 1392.00683594 380.850585938 1392.00683594 380.850585938 1391.67871094 182.11328125 c 0,12,13
 1391.33203125 86.935546875 1391.33203125 86.935546875 1374.04199219 4.4375 c 128,-1,14
 1356.75195312 -78.0615234375 1356.75195312 -78.0615234375 1322.27539062 -147.919921875 c 0,15,16
 1167.33886719 -457.015625 1167.33886719 -457.015625 707.006835938 -456.431640625 c 0,17,18
 398.998046875 -456.2109375 398.998046875 -456.2109375 241.31640625 -311.791015625 c 128,-1,19
 83.6357421875 -167.370117188 83.6357421875 -167.370117188 83.25 116.5703125 c 0,20,21
 82.9951171875 333.951171875 82.9951171875 333.951171875 184.932617188 581.083984375 c 2,22,-1
 192.557617188 599.568359375 l 1,23,-1
 211.04296875 591.94921875 l 1,24,-1
 369.655273438 526.572265625 l 1,25,-1
 387.89453125 519.053710938 l 1,26,-1
 380.627929688 500.713867188 l 2,27,28
 298.015625 292.221679688 298.015625 292.221679688 298.752929688 115.159179688 c 0,29,30
 299.828125 -64.798828125 299.828125 -64.798828125 402.31640625 -152.563476562 c 128,-1,31
 504.803710938 -240.329101562 504.803710938 -240.329101562 716.37109375 -239.6953125 c 0,0,1
EndSplineSet
Substitution2: "'init' Initial Forms in Arabic lookup 13 subtable" uni06BA.init
Substitution2: "'medi' Medial Forms in Arabic lookup 11 subtable" uni06BA.medi
Substitution2: "'fina' Terminal Forms in Arabic lookup 9 subtable" uniFB9F
EndChar

StartChar: uni06F4
Encoding: 1780 1780 90
GlifName: uni06F_4
Width: 1244
VWidth: 2972
GlyphClass: 2
Flags: W
LayerCount: 2
Fore
SplineSet
1102.74023438 1335.58300781 m 5,0,-1
 1059.74511719 1163.19433594 l 5,1,-1
 1054.1953125 1140.94335938 l 5,2,-1
 1032.90625 1149.46679688 l 6,3,4
 959 1179 959 1179 880.237304688 1178.92675781 c 4,5,6
 784 1179 784 1179 718.956054688 1131.65136719 c 4,7,8
 611 1051 611 1051 596.553710938 925.1015625 c 4,9,10
 595 912 595 912 611.436523438 893.712890625 c 4,11,12
 628 876 628 876 666.72265625 855.412109375 c 4,13,14
 699 839 699 839 745.916992188 829.66015625 c 4,15,16
 793 821 793 821 852.946289062 820.590820312 c 4,17,18
 921 821 921 821 984.719726562 832.915039062 c 4,19,20
 1048.5109874 845.097585905 1048.5109874 845.097585905 1107.60546875 869.061523438 c 6,21,-1
 1131.52832031 878.762695312 l 5,22,-1
 1134.94628906 853.17578125 l 5,23,-1
 1158.2734375 678.5390625 l 5,24,-1
 1160.26171875 663.65234375 l 5,25,-1
 1146.52050781 657.591796875 l 6,26,27
 1018 601 1018 601 873.149414062 601.181640625 c 4,28,29
 794 601 794 601 726.272460938 613.423828125 c 4,30,31
 659 625 659 625 603.326171875 649.493164062 c 4,32,33
 548 674 548 674 505.1796875 709.520507812 c 5,34,35
 534.115234375 483.098284768 534.115234375 483.098284768 534.115234375 288.771484375 c 2,36,-1
 534.115234375 31.5537109375 l 1,37,-1
 534.115234375 11.5537109375 l 1,38,-1
 514.115234375 11.5537109375 l 1,39,-1
 334.796875 11.5537109375 l 1,40,-1
 314.796875 11.5537109375 l 1,41,-1
 314.796875 31.5537109375 l 1,42,-1
 314.791992188 291.923828125 l 2,43,44
 314.99978023 928.326899427 314.99978023 928.326899427 126.9453125 1309.05078125 c 6,45,-1
 116.95703125 1329.27246094 l 5,46,-1
 138.227539062 1336.77050781 l 5,47,-1
 302.923828125 1394.82617188 l 5,48,-1
 321.887695312 1401.51074219 l 5,49,-1
 328.470703125 1382.51171875 l 6,50,51
 352 1313 352 1313 377.55859375 1239.54882812 c 4,52,53
 403 1164 403 1164 430.629882812 1082.53320312 c 5,54,55
 446 1131 446 1131 468.376953125 1173.08398438 c 4,56,57
 490 1215 490 1215 519.1015625 1250.49414062 c 4,58,59
 548 1286 548 1286 583.217773438 1315.3828125 c 4,60,61
 697 1410 697 1410 855.119140625 1409.43164062 c 4,62,63
 980.315888544 1408.99890816 980.315888544 1408.99890816 1091.58105469 1358.64355469 c 6,64,-1
 1106.77636719 1351.76660156 l 5,65,-1
 1102.74023438 1335.58300781 l 5,0,-1
EndSplineSet
EndChar

StartChar: uni06F5
Encoding: 1781 1781 91
GlifName: uni06F_5
Width: 1328
VWidth: 2972
GlyphClass: 2
Flags: W
LayerCount: 2
Fore
SplineSet
303.965820312 359.411132812 m 0,0,1
 304 294 304 294 326.786132812 266.202148438 c 0,2,3
 350 238 350 238 398.053710938 237.844726562 c 0,4,5
 526.799573455 237.999758652 526.799573455 237.999758652 590.150390625 536.732421875 c 6,6,-1
 593.514648438 552.596679688 l 5,7,-1
 609.731445312 552.583007812 l 5,8,-1
 734.0390625 552.477539062 l 5,9,-1
 750.919921875 552.462890625 l 5,10,-1
 753.741210938 535.819335938 l 6,11,12
 805 234 805 234 939.271484375 234.079101562 c 0,13,14
 982 234 982 234 1003.09960938 263.055664062 c 128,-1,15
 1024 292 1024 292 1023.97851562 359.677734375 c 0,16,17
 1024 609 1024 609 631.040039062 1010.05761719 c 1,18,19
 304 573 304 573 303.965820312 359.411132812 c 0,0,1
383.447265625 11.9833984375 m 0,20,21
 238 12 238 12 163.53125 100.841796875 c 0,22,23
 89 190 89 190 89.2421875 359.331054688 c 0,24,25
 89 655 89 655 468.721679688 1169.30566406 c 1,26,-1
 425.515625 1209.74804688 l 1,27,-1
 411.85546875 1222.53515625 l 1,28,-1
 423.706054688 1237.015625 l 1,29,-1
 547.96484375 1388.85644531 l 1,30,-1
 561.59375 1405.51171875 l 1,31,-1
 577.20703125 1390.70019531 l 1,32,-1
 702.594726562 1271.75390625 l 1,33,34
 1242 742 1242 742 1239.44238281 369.24609375 c 0,35,36
 1239 279 1239 279 1221.44140625 216.150390625 c 0,37,38
 1203 150 1203 150 1168.04199219 104.196289062 c 0,39,40
 1133 59 1133 59 1078.8203125 35.3466796875 c 0,41,42
 1025 12 1025 12 954.303710938 11.943359375 c 0,43,44
 764 12 764 12 672.811523438 208.947265625 c 1,45,46
 585 12 585 12 383.447265625 11.9833984375 c 0,20,21
EndSplineSet
EndChar

StartChar: uni06F6
Encoding: 1782 1782 92
GlifName: uni06F_6
Width: 1124
VWidth: 2972
GlyphClass: 2
Flags: W
LayerCount: 2
Fore
SplineSet
750.57421875 1171.01660156 m 6,0,1
 738 1172 738 1172 715.147460938 1173.83398438 c 4,2,3
 697 1175 697 1175 677.443359375 1175.65332031 c 4,4,5
 658 1176 658 1176 637.623046875 1176.46582031 c 4,6,7
 576 1176 576 1176 526.4453125 1166.83007812 c 4,8,9
 477 1157 477 1157 442.081054688 1139.63769531 c 4,10,11
 407 1122 407 1122 383.9609375 1095.97460938 c 4,12,13
 358 1066 358 1066 344.688476562 1034.89453125 c 4,14,15
 332 1004 332 1004 331.594726562 969.73046875 c 4,16,17
 332 922 332 922 352.258789062 886.672851562 c 4,18,19
 373 851 373 851 415.444335938 825.895507812 c 4,20,21
 458 801 458 801 525.3828125 787.857421875 c 4,22,23
 593 775 593 775 684.461914062 774.37890625 c 5,24,25
 882.7546294 882.234770003 882.7546294 882.234770003 966.333984375 916.287109375 c 6,26,-1
 992.690429688 927.025390625 l 5,27,-1
 993.86328125 898.58984375 l 5,28,-1
 1001.54003906 712.4609375 l 5,29,-1
 1002.09570312 698.977539062 l 5,30,31
 554 494 554 494 329.630859375 -33.3115234375 c 1,32,-1
 142.659179688 29.30859375 l 1,33,-1
 122.53515625 36.048828125 l 1,34,-1
 130.456054688 55.73828125 l 2,35,36
 243 335 243 335 481.923828125 586.591796875 c 5,37,38
 297 613 297 613 201.684570312 710.922851562 c 4,39,40
 107 809 107 809 107.64453125 974.967773438 c 4,41,42
 108 1074 108 1074 148.4375 1157.21484375 c 4,43,44
 273 1407 273 1407 606.114257812 1402.40820312 c 4,45,46
 633 1402 633 1402 661.868164062 1400.61816406 c 4,47,48
 690 1399 690 1399 720.26171875 1395.81738281 c 4,49,50
 747.561633649 1393.04452496 747.561633649 1393.04452496 781.313476562 1388.01367188 c 6,51,-1
 801.034179688 1385.07421875 l 5,52,-1
 798.155273438 1365.34570312 l 5,53,-1
 772.2890625 1188.03710938 l 5,54,-1
 769.5390625 1169.18261719 l 5,55,-1
 750.57421875 1171.01660156 l 6,0,1
EndSplineSet
EndChar

StartChar: uniFB8F
Encoding: 64399 64399 107
GlifName: uniF_B_8F_
Width: 1954
VWidth: 2972
GlyphClass: 2
Flags: W
AnchorPoint: "Anchor-10" 1170.88 1458.07 basechar 0
AnchorPoint: "Anchor-7" 750.268 -216.468 basechar 0
LayerCount: 2
Fore
SplineSet
860.911132812 0 m 2,0,1
 475.1875 0 475.1875 0 277.131835938 126.294921875 c 128,-1,2
 79.0771484375 252.58984375 79.0771484375 252.58984375 79.16015625 505.848632812 c 0,3,4
 78.9951171875 645.271484375 78.9951171875 645.271484375 135.416015625 770.975585938 c 2,5,-1
 143.5078125 789.00390625 l 1,6,-1
 161.631835938 781.129882812 l 1,7,-1
 319.403320312 712.584960938 l 1,8,-1
 337.096679688 704.897460938 l 1,9,-1
 330.052734375 686.938476562 l 2,10,11
 313.96484375 645.921875 313.96484375 645.921875 306.096679688 607.063476562 c 128,-1,12
 298.227539062 568.204101562 298.227539062 568.204101562 298.43359375 531.370117188 c 0,13,14
 299.163085938 379.001953125 299.163085938 379.001953125 437.041015625 301.498046875 c 128,-1,15
 574.918945312 223.993164062 574.918945312 223.993164062 860.911132812 223.993164062 c 2,16,-1
 1042.63183594 223.993164062 l 2,17,18
 1456.05957031 224 1456.05957031 224 1456.57421875 395.205078125 c 0,19,20
 1456.765625 439.137695312 1456.765625 439.137695312 1432.85742188 484.170898438 c 128,-1,21
 1408.95019531 529.204101562 1408.95019531 529.204101562 1359.38378906 575.510742188 c 0,22,23
 1306.57128906 624.616210938 1306.57128906 624.616210938 1258.70019531 667.227539062 c 128,-1,24
 1210.82910156 709.838867188 1210.82910156 709.838867188 1168.05566406 745.82421875 c 128,-1,25
 1125.28222656 781.810546875 1125.28222656 781.810546875 1087.53222656 811.243164062 c 0,26,27
 966.022460938 906.23046875 966.022460938 906.23046875 965.768554688 1014.45214844 c 0,28,29
 965.895507812 1085.3203125 965.895507812 1085.3203125 1005.04785156 1136.25585938 c 128,-1,30
 1044.20117188 1187.19042969 1044.20117188 1187.19042969 1118.86425781 1215.54296875 c 2,31,-1
 1812.12109375 1478.79785156 l 1,32,-1
 1839.22070312 1489.08886719 l 1,33,-1
 1839.22070312 1460.10058594 l 1,34,-1
 1839.22070312 1279.46289062 l 1,35,-1
 1839.22070312 1265.57617188 l 1,36,-1
 1826.20898438 1260.72363281 l 1,37,-1
 1185.58984375 1021.8203125 l 1,38,39
 1428.11914062 817.706054688 1428.11914062 817.706054688 1543.27832031 693.263671875 c 0,40,41
 1626.47265625 603.572265625 1626.47265625 603.572265625 1676.77050781 461.572265625 c 0,42,43
 1761.125 223.993164062 1761.125 223.993164062 1945.76367188 223.993164062 c 2,44,-1
 1962.08984375 223.993164062 l 2,45,46
 1971.88867188 223.99609375 1971.88867188 223.99609375 1979.13476562 220.223632812 c 128,-1,47
 1986.38183594 216.450195312 1986.38183594 216.450195312 1990.58203125 207.84765625 c 128,-1,48
 1994.78222656 199.244140625 1994.78222656 199.244140625 1997.33691406 191.920898438 c 128,-1,49
 1999.89160156 184.59765625 1999.89160156 184.59765625 2000.84960938 170.634765625 c 128,-1,50
 2001.80761719 156.672851562 2001.80761719 156.672851562 2001.99121094 149.50390625 c 128,-1,51
 2002.17382812 142.333984375 2002.17382812 142.333984375 2002.17382812 127.174804688 c 2,52,-1
 2002.17382812 108.28515625 l 2,53,54
 2002.16992188 106.224609375 2002.16992188 106.224609375 2002.16894531 102.047851562 c 0,55,56
 2002.16210938 77.9248046875 2002.16210938 77.9248046875 2001.40234375 65.0771484375 c 128,-1,57
 2000.64355469 52.228515625 2000.64355469 52.228515625 1997.2734375 34.341796875 c 128,-1,58
 1993.90429688 16.455078125 1993.90429688 16.455078125 1985.11914062 8.2275390625 c 128,-1,59
 1976.33398438 0 1976.33398438 0 1962.09570312 0 c 2,60,-1
 1945.65722656 0 l 2,61,62
 1732.68261719 0 1732.68261719 0 1597.51367188 163.552734375 c 1,63,64
 1465.61132812 0 1465.61132812 0 1043.46191406 0 c 2,65,-1
 860.911132812 0 l 2,0,1
EndSplineSet
EndChar

StartChar: uniFB9F
Encoding: 64415 64415 115
GlifName: uniF_B_9F_
Width: 1549
VWidth: 2972
GlyphClass: 2
Flags: W
AnchorPoint: "Anchor-10" 703.458 1386.61 basechar 0
AnchorPoint: "Anchor-7" 595.902 -780.086 basechar 0
LayerCount: 2
Fore
SplineSet
1388.4140625 36.8818359375 m 1,0,1
 1379.56445312 -86.1279296875 1379.56445312 -86.1279296875 1321.84960938 -205.743164062 c 0,2,3
 1167.45410156 -520.0078125 1167.45410156 -520.0078125 707.338867188 -519.724609375 c 0,4,5
 398.096679688 -519.865234375 398.096679688 -519.865234375 239.98828125 -373.461914062 c 128,-1,6
 81.8798828125 -227.05859375 81.8798828125 -227.05859375 81.7529296875 61.0517578125 c 0,7,8
 82.0048828125 269.986328125 82.0048828125 269.986328125 184.547851562 517.772460938 c 2,9,-1
 192.185546875 536.2265625 l 1,10,-1
 210.649414062 528.616210938 l 1,11,-1
 369.169921875 463.278320312 l 1,12,-1
 387.381835938 455.771484375 l 1,13,-1
 380.153320312 437.447265625 l 2,14,15
 298.005859375 229.212890625 298.005859375 229.212890625 298.268554688 62.869140625 c 0,16,17
 298.139648438 -122.18359375 298.139648438 -122.18359375 400.319335938 -212.64453125 c 128,-1,18
 502.499023438 -303.104492188 502.499023438 -303.104492188 714.391601562 -303.203125 c 0,19,20
 945.055664062 -303.104492188 945.055664062 -303.104492188 1057.4296875 -198.045898438 c 128,-1,21
 1169.80371094 -92.9873046875 1169.80371094 -92.9873046875 1170.5546875 121.982421875 c 0,22,23
 1170.98925781 301.408203125 1170.98925781 301.408203125 1082.46875 483.004882812 c 2,24,-1
 1072.61035156 503.228515625 l 1,25,-1
 1093.84960938 510.649414062 l 1,26,-1
 1266.49121094 570.966796875 l 1,27,-1
 1285.86035156 577.734375 l 1,28,-1
 1292.13085938 558.198242188 l 1,29,-1
 1365.30273438 330.219726562 l 2,30,31
 1382.60253906 276.584960938 1382.60253906 276.584960938 1424.80078125 250.291992188 c 128,-1,32
 1466.99902344 223.999023438 1466.99902344 223.999023438 1539.02050781 223.999023438 c 2,33,-1
 1558.13378906 223.999023438 l 2,34,35
 1572.31347656 224 1572.31347656 224 1581.14160156 216.159179688 c 128,-1,36
 1589.96972656 208.319335938 1589.96972656 208.319335938 1593.3203125 191.94140625 c 128,-1,37
 1596.67089844 175.564453125 1596.67089844 175.564453125 1597.4453125 164.041992188 c 128,-1,38
 1598.21875 152.520507812 1598.21875 152.520507812 1598.21875 131.889648438 c 2,39,-1
 1598.21875 108.287109375 l 2,40,41
 1598.21386719 106.1953125 1598.21386719 106.1953125 1598.20996094 101.956054688 c 0,42,43
 1598.19238281 77.845703125 1598.19238281 77.845703125 1597.42871094 65.0087890625 c 128,-1,44
 1596.66503906 52.1708984375 1596.66503906 52.1708984375 1593.29003906 34.3017578125 c 128,-1,45
 1589.91601562 16.43359375 1589.91601562 16.43359375 1581.13769531 8.216796875 c 128,-1,46
 1572.35839844 0 1572.35839844 0 1558.13671875 0 c 2,47,-1
 1543.41894531 0 l 2,48,49
 1448.87304688 0 1448.87304688 0 1388.4140625 36.8818359375 c 1,0,1
EndSplineSet
EndChar

StartChar: uniFBE8
Encoding: 64488 64488 118
GlifName: uniF_B_E_8
Width: 646
VWidth: 2972
GlyphClass: 2
Flags: W
AnchorPoint: "Anchor-10" 311.384 1373 basechar 0
AnchorPoint: "Anchor-7" 303.422 -203.625 basechar 0
LayerCount: 2
Fore
SplineSet
68.673828125 0 m 2,0,-1
 -6.9384765625 0 l 2,1,2
 -46.005859375 0 -46.005859375 0 -65.3916015625 29.646484375 c 128,-1,3
 -84.7783203125 59.2939453125 -84.7783203125 59.2939453125 -84.7783203125 108.313476562 c 2,4,-1
 -84.7783203125 127.147460938 l 2,5,6
 -84.9052734375 170.982421875 -84.9052734375 170.982421875 -64.96875 197.48828125 c 128,-1,7
 -45.033203125 223.993164062 -45.033203125 223.993164062 -6.9384765625 223.993164062 c 2,8,-1
 68.68359375 223.993164062 l 2,9,10
 145.760742188 223.99609375 145.760742188 223.99609375 198.575195312 231.868164062 c 128,-1,11
 251.390625 239.739257812 251.390625 239.739257812 275.563476562 253.483398438 c 0,12,13
 351.015625 297.497070312 351.015625 297.497070312 351.221679688 445.029296875 c 0,14,15
 351.004882812 561.502929688 351.004882812 561.502929688 314.9453125 704.751953125 c 2,16,-1
 310.0625 724.1484375 l 1,17,-1
 329.459960938 729.029296875 l 1,18,-1
 492.544921875 770.063476562 l 1,19,-1
 510.883789062 774.677734375 l 1,20,-1
 516.516601562 756.625976562 l 2,21,22
 565.995117188 598.0625 565.995117188 598.0625 566.223632812 448.333984375 c 0,23,24
 565.991210938 193.017578125 565.991210938 193.017578125 417.5859375 81.265625 c 0,25,26
 310.7421875 0 310.7421875 0 68.673828125 0 c 2,0,-1
EndSplineSet
EndChar

StartChar: uniFBE9
Encoding: 64489 64489 119
GlifName: uniF_B_E_9
Width: 717
VWidth: 2972
GlyphClass: 2
Flags: W
AnchorPoint: "Anchor-10" 315.665 1317.09 basechar 0
AnchorPoint: "Anchor-7" 350.537 -157.742 basechar 0
LayerCount: 2
Fore
SplineSet
764.731445312 108.340820312 m 2,0,1
 764.731445312 106.40625 764.731445312 106.40625 764.737304688 102.48828125 c 0,2,3
 764.7734375 78.29296875 764.7734375 78.29296875 764.033203125 65.3935546875 c 128,-1,4
 763.29296875 52.494140625 763.29296875 52.494140625 759.938476562 34.5224609375 c 128,-1,5
 756.584960938 16.55078125 756.584960938 16.55078125 747.770507812 8.275390625 c 128,-1,6
 738.956054688 0 738.956054688 0 724.650390625 0 c 2,7,-1
 715.006835938 0 l 2,8,9
 524.426757812 0 524.426757812 0 440.198242188 125.774414062 c 1,10,11
 331.760742188 0 331.760742188 0 95.759765625 0 c 2,12,-1
 -8.1171875 0 l 2,13,14
 -46.7548828125 0 -46.7548828125 0 -65.7666015625 29.6806640625 c 128,-1,15
 -84.7783203125 59.361328125 -84.7783203125 59.361328125 -84.7783203125 108.313476562 c 2,16,-1
 -84.7783203125 127.157226562 l 2,17,18
 -84.904296875 170.892578125 -84.904296875 170.892578125 -65.3408203125 197.442382812 c 128,-1,19
 -45.7763671875 223.993164062 -45.7763671875 223.993164062 -8.1171875 223.993164062 c 2,20,-1
 91.01171875 223.993164062 l 2,21,22
 305.373046875 223.999023438 305.373046875 223.999023438 326.887695312 339.834960938 c 0,23,24
 333.010742188 372.896484375 333.010742188 372.896484375 333.291992188 419.265625 c 0,25,26
 333.00390625 468.358398438 333.00390625 468.358398438 330.049804688 512.340820312 c 2,27,-1
 324.559570312 594.096679688 l 1,28,-1
 323.284179688 613.08203125 l 1,29,-1
 342.182617188 615.299804688 l 1,30,-1
 506.989257812 634.647460938 l 1,31,-1
 527.818359375 637.092773438 l 1,32,-1
 529.2734375 616.170898438 l 1,33,-1
 545.344726562 385.0078125 l 2,34,35
 549.247070312 329.400390625 549.247070312 329.400390625 568.880859375 293.903320312 c 128,-1,36
 588.514648438 258.405273438 588.514648438 258.405273438 624.961914062 241.19921875 c 128,-1,37
 661.409179688 223.993164062 661.409179688 223.993164062 716.57421875 223.993164062 c 2,38,-1
 724.64453125 223.993164062 l 2,39,40
 738.9296875 223.998046875 738.9296875 223.998046875 747.747070312 215.793945312 c 128,-1,41
 756.563476562 207.58984375 756.563476562 207.58984375 759.916992188 189.874023438 c 128,-1,42
 763.270507812 172.159179688 763.270507812 172.159179688 764.016601562 159.500976562 c 128,-1,43
 764.76171875 146.842773438 764.76171875 146.842773438 764.735351562 123.24609375 c 0,44,45
 764.731445312 119.951171875 764.731445312 119.951171875 764.731445312 118.322265625 c 2,46,-1
 764.731445312 108.340820312 l 2,0,1
EndSplineSet
EndChar

StartChar: uniFE73
Encoding: 65139 65139 127
GlifName: uniF_E_73
Width: 672
VWidth: 2972
GlyphClass: 2
Flags: W
AnchorPoint: "Anchor-10" 342.943 1032.47 basechar 0
AnchorPoint: "Anchor-7" 416.943 -186.304 basechar 0
LayerCount: 2
Fore
SplineSet
320.336914062 446.018554688 m 2,0,1
 320.336914062 334.180664062 320.336914062 334.180664062 392.497070312 279.26171875 c 128,-1,2
 464.65625 224.342773438 464.65625 224.342773438 618.00390625 224.342773438 c 2,3,-1
 688.674804688 224.342773438 l 1,4,-1
 708.674804688 224.342773438 l 1,5,-1
 708.674804688 204.342773438 l 1,6,-1
 708.674804688 21.5537109375 l 1,7,-1
 708.674804688 1.5537109375 l 1,8,-1
 688.674804688 1.5537109375 l 1,9,-1
 607.989257812 1.5537109375 l 2,10,11
 352.658203125 1.7822265625 352.658203125 1.7822265625 221.1015625 114.467773438 c 128,-1,12
 89.544921875 227.153320312 89.544921875 227.153320312 89.544921875 448.563476562 c 2,13,-1
 89.544921875 472.69140625 l 1,14,-1
 89.544921875 492.69140625 l 1,15,-1
 109.544921875 492.69140625 l 1,16,-1
 300.336914062 492.69140625 l 1,17,-1
 320.336914062 492.69140625 l 1,18,-1
 320.336914062 472.69140625 l 1,19,-1
 320.336914062 446.018554688 l 2,0,1
EndSplineSet
EndChar

StartChar: uniFE8E
Encoding: 65166 65166 153
GlifName: uniF_E_8E_
Width: 531
VWidth: 2972
GlyphClass: 2
Flags: W
AnchorPoint: "Anchor-10" 234.697 1559.11 basechar 0
AnchorPoint: "Anchor-7" 296.078 -219.903 basechar 0
LayerCount: 2
Fore
SplineSet
578.618164062 108.466796875 m 1,0,1
 580 90 580 90 578.665039062 70.974609375 c 0,2,3
 578 52 578 52 574.831054688 35.9716796875 c 0,4,5
 572 20 572 20 562.870117188 10.099609375 c 0,6,7
 554 0 554 0 538.537109375 0 c 2,8,-1
 517.658203125 0 l 2,9,10
 130.283203125 0 130.283203125 0 130.283203125 454.395507812 c 2,11,-1
 130.283203125 1388.171875 l 1,12,-1
 130.283203125 1408.171875 l 1,13,-1
 150.283203125 1408.171875 l 1,14,-1
 323.598632812 1408.171875 l 1,15,-1
 343.598632812 1408.171875 l 1,16,-1
 343.598632812 1388.171875 l 1,17,-1
 343.598632812 456.465820312 l 2,18,19
 344.379667053 223.993164062 344.379667053 223.993164062 520.712890625 223.993164062 c 6,20,-1
 538.53125 223.993164062 l 2,21,22
 548 224 548 224 555.577148438 220.223632812 c 0,23,24
 563 216 563 216 567.024414062 207.848632812 c 0,25,26
 571 199 571 199 573.780273438 191.920898438 c 0,27,28
 576 185 576 185 577.293945312 170.635742188 c 0,29,30
 578 150 578 150 578.434570312 149.50390625 c 0,31,32
 578.618164062 149.340289022 578.618164062 149.340289022 578.618164062 127.174804688 c 2,33,-1
 578.618164062 108.466796875 l 1,0,1
EndSplineSet
EndChar

StartChar: uniFEA2
Encoding: 65186 65186 173
GlifName: uniF_E_A_2
Width: 1386
VWidth: 2972
GlyphClass: 2
Flags: W
AnchorPoint: "Anchor-7" 580.833 -790.619 basechar 0
AnchorPoint: "Anchor-10" 649.478 1282.07 basechar 0
LayerCount: 2
Fore
SplineSet
1277.85253906 679.200195312 m 1,0,-1
 1264.85839844 505.369140625 l 1,1,-1
 1263.57714844 488.227539062 l 1,2,-1
 1246.4375 486.91796875 l 2,3,4
 1154.03417969 479.861328125 1154.03417969 479.861328125 1069.85742188 468.868164062 c 1,5,6
 1071.55273438 384.833007812 1071.55273438 384.833007812 1100.19921875 330.690429688 c 128,-1,7
 1128.84472656 276.548828125 1128.84472656 276.548828125 1185.88085938 250.154296875 c 128,-1,8
 1242.91601562 223.759765625 1242.91601562 223.759765625 1330.55175781 224.061523438 c 2,9,-1
 1393.99707031 224.279296875 l 2,10,11
 1408.18945312 224.083007812 1408.18945312 224.083007812 1416.99902344 216.213867188 c 128,-1,12
 1425.80859375 208.344726562 1425.80859375 208.344726562 1429.13964844 191.935546875 c 128,-1,13
 1432.47167969 175.525390625 1432.47167969 175.525390625 1433.22460938 164.123046875 c 128,-1,14
 1433.97851562 152.719726562 1433.97851562 152.719726562 1433.97851562 131.889648438 c 2,15,-1
 1433.97851562 108.31640625 l 2,16,17
 1433.97851562 106.399414062 1433.97851562 106.399414062 1433.98535156 102.51953125 c 0,18,19
 1434.02636719 78.322265625 1434.02636719 78.322265625 1433.2890625 65.4189453125 c 128,-1,20
 1432.55078125 52.5166015625 1432.55078125 52.5166015625 1429.19921875 34.5380859375 c 128,-1,21
 1425.84667969 16.5595703125 1425.84667969 16.5595703125 1417.02929688 8.279296875 c 128,-1,22
 1408.21191406 0 1408.21191406 0 1393.8984375 0 c 2,23,-1
 1331.49511719 0 l 2,24,25
 1111.05566406 0 1111.05566406 0 995.833984375 108.87890625 c 128,-1,26
 880.612304688 217.756835938 880.612304688 217.756835938 876.342773438 430.064453125 c 1,27,28
 591.903320312 354.298828125 591.903320312 354.298828125 453.517578125 219.890625 c 128,-1,29
 315.131835938 85.4833984375 315.131835938 85.4833984375 315.249023438 -109.31640625 c 0,30,31
 315.130859375 -283.9609375 315.130859375 -283.9609375 440.446289062 -370.92578125 c 128,-1,32
 565.762695312 -457.889648438 565.762695312 -457.889648438 826.40625 -457.783203125 c 0,33,34
 1038.4765625 -457.995117188 1038.4765625 -457.995117188 1234.68847656 -364.237304688 c 2,35,-1
 1257.84375 -353.172851562 l 1,36,-1
 1262.91699219 -378.330078125 l 1,37,-1
 1298.9765625 -557.157226562 l 1,38,-1
 1302.03613281 -572.33203125 l 1,39,-1
 1288.11328125 -579.098632812 l 2,40,41
 1084.61132812 -677.99609375 1084.61132812 -677.99609375 811.515625 -678.249023438 c 0,42,43
 681.081054688 -678.165039062 681.081054688 -678.165039062 574.313476562 -657.143554688 c 128,-1,44
 467.544921875 -636.122070312 467.544921875 -636.122070312 383.330078125 -593.283203125 c 128,-1,45
 299.115234375 -550.4453125 299.115234375 -550.4453125 239.325195312 -485.895507812 c 0,46,47
 105.000976562 -340.838867188 105.000976562 -340.838867188 104.98046875 -124.543945312 c 0,48,49
 104.990234375 163.54296875 104.990234375 163.54296875 276.098632812 351.479492188 c 128,-1,50
 447.20703125 539.415039062 447.20703125 539.415039062 784.043945312 624.821289062 c 1,51,52
 772.124023438 629.544921875 772.124023438 629.544921875 758.640625 634.90234375 c 128,-1,53
 745.157226562 640.259765625 745.157226562 640.259765625 729.424804688 646.5234375 c 0,54,55
 538.145507812 723.983398438 538.145507812 723.983398438 469.56640625 723.6875 c 0,56,57
 434.750976562 723.784179688 434.750976562 723.784179688 404.62109375 714.477539062 c 128,-1,58
 374.491210938 705.171875 374.491210938 705.171875 348.290039062 686.110351562 c 128,-1,59
 322.087890625 667.048828125 322.087890625 667.048828125 299.436523438 637.872070312 c 2,60,-1
 271.408203125 601.76953125 l 1,61,-1
 261.396484375 588.873046875 l 1,62,-1
 246.756835938 596.100585938 l 1,63,-1
 92.896484375 672.060546875 l 1,64,-1
 73.3515625 681.709960938 l 1,65,-1
 84.642578125 700.353515625 l 1,66,-1
 101.3515625 727.947265625 l 2,67,68
 233.75 946.0078125 233.75 946.0078125 471.784179688 945.841796875 c 0,69,70
 602.588867188 946.005859375 602.588867188 946.005859375 783.751953125 858.008789062 c 0,71,72
 1092.015625 707.803710938 1092.015625 707.803710938 1258.76269531 700.672851562 c 2,73,-1
 1279.39160156 699.791015625 l 1,74,-1
 1277.85253906 679.200195312 l 1,0,-1
EndSplineSet
EndChar

StartChar: uniFEA3
Encoding: 65187 65187 174
GlifName: uniF_E_A_3
Width: 1337
VWidth: 2972
GlyphClass: 2
Flags: W
AnchorPoint: "Anchor-10" 565.825 1200.07 basechar 0
AnchorPoint: "Anchor-7" 513.524 -214.745 basechar 0
LayerCount: 2
Fore
SplineSet
-6.9384765625 0 m 2,0,1
 -46.005859375 0 -46.005859375 0 -65.3916015625 29.646484375 c 128,-1,2
 -84.7783203125 59.2939453125 -84.7783203125 59.2939453125 -84.7783203125 108.313476562 c 2,3,-1
 -84.7783203125 127.157226562 l 2,4,5
 -84.9052734375 170.991210938 -84.9052734375 170.991210938 -64.96875 197.495117188 c 128,-1,6
 -45.0322265625 223.999023438 -45.0322265625 223.999023438 -6.9384765625 223.999023438 c 2,7,-1
 52.54296875 223.999023438 l 2,8,9
 378.345703125 224 378.345703125 224 859.82421875 472.607421875 c 2,10,-1
 892.716796875 489.591796875 l 1,11,12
 864.391601562 500.392578125 864.391601562 500.392578125 821.63671875 517.395507812 c 128,-1,13
 778.8828125 534.399414062 778.8828125 534.399414062 719.391601562 558.510742188 c 0,14,15
 527.16796875 635.981445312 527.16796875 635.981445312 460.337890625 635.657226562 c 0,16,17
 356.311523438 635.971679688 356.311523438 635.971679688 289.4453125 549.842773438 c 2,18,-1
 261.416992188 513.740234375 l 1,19,-1
 251.405273438 500.84375 l 1,20,-1
 236.765625 508.071289062 l 1,21,-1
 82.9052734375 584.03125 l 1,22,-1
 63.3603515625 593.680664062 l 1,23,-1
 74.6513671875 612.32421875 l 1,24,-1
 91.3447265625 639.892578125 l 2,25,26
 156.482421875 747.532226562 156.482421875 747.532226562 249.547851562 802.459960938 c 128,-1,27
 342.612304688 857.388671875 342.612304688 857.388671875 461.282226562 857.8125 c 0,28,29
 592.587890625 858.006835938 592.587890625 858.006835938 773.759765625 769.979492188 c 0,30,31
 1082.01660156 619.802734375 1082.01660156 619.802734375 1248.77441406 612.643554688 c 2,32,-1
 1268.11914062 611.813476562 l 1,33,-1
 1267.91601562 592.452148438 l 1,34,-1
 1266.09082031 418.783203125 l 1,35,-1
 1265.90039062 400.637695312 l 1,36,-1
 1247.82226562 399.068359375 l 2,37,38
 1136.74804688 389.423828125 1136.74804688 389.423828125 831.014648438 228.461914062 c 0,39,40
 397.952148438 0 397.952148438 0 40.767578125 0 c 2,41,-1
 -6.9384765625 0 l 2,0,1
EndSplineSet
EndChar

StartChar: uniFEA4
Encoding: 65188 65188 175
GlifName: uniF_E_A_4
Width: 1351
VWidth: 2972
GlyphClass: 2
Flags: W
AnchorPoint: "Anchor-10" 565.825 1200.07 basechar 0
AnchorPoint: "Anchor-7" 513.524 -214.745 basechar 0
LayerCount: 2
Fore
SplineSet
892.591796875 489.52734375 m 1,0,1
 864.8359375 500.104492188 864.8359375 500.104492188 821.79296875 517.249023438 c 128,-1,2
 778.75 534.39453125 778.75 534.39453125 719.383789062 558.513671875 c 0,3,4
 527.16796875 635.981445312 527.16796875 635.981445312 460.337890625 635.657226562 c 0,5,6
 356.311523438 635.971679688 356.311523438 635.971679688 289.4453125 549.842773438 c 2,7,-1
 261.416992188 513.740234375 l 1,8,-1
 251.405273438 500.84375 l 1,9,-1
 236.765625 508.071289062 l 1,10,-1
 82.9052734375 584.03125 l 1,11,-1
 63.3603515625 593.680664062 l 1,12,-1
 74.6513671875 612.32421875 l 1,13,-1
 91.3447265625 639.892578125 l 2,14,15
 156.482421875 747.532226562 156.482421875 747.532226562 249.547851562 802.459960938 c 128,-1,16
 342.612304688 857.388671875 342.612304688 857.388671875 461.282226562 857.8125 c 0,17,18
 592.587890625 858.006835938 592.587890625 858.006835938 773.759765625 769.979492188 c 0,19,20
 1082.01660156 619.802734375 1082.01660156 619.802734375 1248.77441406 612.643554688 c 2,21,-1
 1268.11914062 611.813476562 l 1,22,-1
 1267.91601562 592.452148438 l 1,23,-1
 1266.09082031 418.783203125 l 1,24,-1
 1265.89746094 400.385742188 l 1,25,-1
 1247.54785156 399.045898438 l 2,26,27
 1211.50683594 396.415039062 1211.50683594 396.415039062 1163.70117188 380.944335938 c 128,-1,28
 1115.89453125 365.47265625 1115.89453125 365.47265625 1059.94335938 338.075195312 c 1,29,30
 1074.83886719 224.279296875 1074.83886719 224.279296875 1316.61132812 224.279296875 c 2,31,-1
 1360.53320312 224.279296875 l 2,32,33
 1374.71289062 224.086914062 1374.71289062 224.086914062 1383.51855469 216.215820312 c 128,-1,34
 1392.32421875 208.34375 1392.32421875 208.34375 1395.65820312 191.948242188 c 128,-1,35
 1398.99121094 175.553710938 1398.99121094 175.553710938 1399.74902344 164.124023438 c 128,-1,36
 1400.50585938 152.694335938 1400.50585938 152.694335938 1400.50585938 131.889648438 c 2,37,-1
 1400.50585938 108.3828125 l 2,38,39
 1400.94140625 96.2197265625 1400.94140625 96.2197265625 1400.55859375 83.4609375 c 128,-1,40
 1400.17480469 70.7021484375 1400.17480469 70.7021484375 1399.6015625 58.66015625 c 128,-1,41
 1399.02832031 46.6171875 1399.02832031 46.6171875 1396.37304688 35.9462890625 c 128,-1,42
 1393.71777344 25.275390625 1393.71777344 25.275390625 1389.61035156 17.287109375 c 128,-1,43
 1385.50195312 9.298828125 1385.50195312 9.298828125 1378.04882812 4.6494140625 c 128,-1,44
 1370.59570312 0 1370.59570312 0 1360.42773438 0 c 2,45,-1
 1301.09667969 0 l 2,46,47
 1122.84082031 0 1122.84082031 0 1018.15820312 64.5400390625 c 128,-1,48
 913.475585938 129.081054688 913.475585938 129.081054688 888.44140625 258.205078125 c 1,49,50
 874.068359375 250.90625 874.068359375 250.90625 860.06640625 243.653320312 c 128,-1,51
 846.064453125 236.400390625 846.064453125 236.400390625 831.014648438 228.461914062 c 0,52,53
 397.952148438 0 397.952148438 0 40.767578125 0 c 2,54,-1
 -6.9384765625 0 l 2,55,56
 -46.005859375 0 -46.005859375 0 -65.3916015625 29.646484375 c 128,-1,57
 -84.7783203125 59.2939453125 -84.7783203125 59.2939453125 -84.7783203125 108.313476562 c 2,58,-1
 -84.7783203125 127.157226562 l 2,59,60
 -84.9052734375 170.991210938 -84.9052734375 170.991210938 -64.96875 197.495117188 c 128,-1,61
 -45.0322265625 223.999023438 -45.0322265625 223.999023438 -6.9384765625 223.999023438 c 2,62,-1
 52.54296875 223.999023438 l 2,63,64
 378.345703125 224 378.345703125 224 859.82421875 472.607421875 c 2,65,-1
 892.591796875 489.52734375 l 1,0,1
EndSplineSet
EndChar

StartChar: uniFEAA
Encoding: 65194 65194 181
GlifName: uniF_E_A_A_
Width: 1101
VWidth: 2972
GlyphClass: 2
Flags: W
AnchorPoint: "Anchor-7" 437.24 -219.316 basechar 0
AnchorPoint: "Anchor-10" 562.848 1265.53 basechar 0
LayerCount: 2
Fore
SplineSet
387.551757812 0.8193359375 m 0,0,1
 252.124023438 1.0029296875 252.124023438 1.0029296875 98.4033203125 29.8857421875 c 2,2,-1
 82.0966796875 32.9501953125 l 1,3,-1
 82.0966796875 49.5419921875 l 1,4,-1
 82.0966796875 234.252929688 l 1,5,-1
 82.0966796875 258.8671875 l 1,6,-1
 106.190429688 253.829101562 l 2,7,8
 244.064453125 225.000976562 244.064453125 225.000976562 392.985351562 225.068359375 c 0,9,10
 688.012695312 225.00390625 688.012695312 225.00390625 688.088867188 349.055664062 c 0,11,12
 688.05078125 376.129882812 688.05078125 376.129882812 665.208007812 446.30078125 c 128,-1,13
 642.365234375 516.47265625 642.365234375 516.47265625 598.413085938 620.6328125 c 2,14,-1
 471.573242188 921.224609375 l 1,15,-1
 464.038085938 939.08203125 l 1,16,-1
 481.650390625 947.173828125 l 1,17,-1
 646.282226562 1022.81542969 l 1,18,-1
 665.49609375 1031.64355469 l 1,19,-1
 673.2421875 1011.96777344 l 1,20,-1
 871.168945312 509.196289062 l 2,21,22
 928.092773438 364.81640625 928.092773438 364.81640625 984.052734375 294.404296875 c 128,-1,23
 1040.01171875 223.993164062 1040.01171875 223.993164062 1088.87988281 223.993164062 c 2,24,-1
 1108.51171875 223.993164062 l 2,25,26
 1118.31054688 223.99609375 1118.31054688 223.99609375 1125.55761719 220.223632812 c 128,-1,27
 1132.80371094 216.450195312 1132.80371094 216.450195312 1137.00488281 207.84765625 c 128,-1,28
 1141.20507812 199.245117188 1141.20507812 199.245117188 1143.75976562 191.920898438 c 128,-1,29
 1146.31445312 184.596679688 1146.31445312 184.596679688 1147.2734375 170.635742188 c 128,-1,30
 1148.23144531 156.674804688 1148.23144531 156.674804688 1148.41503906 149.50390625 c 128,-1,31
 1148.59765625 142.33203125 1148.59765625 142.33203125 1148.59765625 127.174804688 c 2,32,-1
 1148.59765625 108.439453125 l 2,33,34
 1149.01367188 74.0185546875 1149.01367188 74.0185546875 1145.58691406 54.7900390625 c 0,35,36
 1142.21679688 31.880859375 1142.21679688 31.880859375 1136.83105469 20.3623046875 c 0,37,-1
 1136.359375 19.419921875 l 2,38,39
 1125.99804688 0 1125.99804688 0 1108.51757812 0 c 2,40,-1
 1088.53222656 0 l 2,41,42
 923.364257812 0 923.364257812 0 824.467773438 147.462890625 c 1,43,44
 683.073242188 1.3203125 683.073242188 1.3203125 387.551757812 0.8193359375 c 0,0,1
EndSplineSet
EndChar

StartChar: uniFEAE
Encoding: 65198 65198 185
GlifName: uniF_E_A_E_
Width: 910
VWidth: 2164
GlyphClass: 2
Flags: W
AnchorPoint: "Anchor-7" 322.969 -647.998 basechar 0
AnchorPoint: "Anchor-10" 507.256 946.2 basechar 0
LayerCount: 2
Fore
SplineSet
663.326171875 557.224609375 m 1,0,-1
 720.125976562 364.1953125 l 2,1,2
 741.143554688 292.109375 741.143554688 292.109375 783.090820312 258.053710938 c 128,-1,3
 825.037109375 223.999023438 825.037109375 223.999023438 891.31640625 223.999023438 c 2,4,-1
 918.573242188 223.999023438 l 2,5,6
 932.729492188 224 932.729492188 224 941.55078125 216.182617188 c 128,-1,7
 950.373046875 208.365234375 950.373046875 208.365234375 953.7265625 192.08203125 c 128,-1,8
 957.080078125 175.798828125 957.080078125 175.798828125 957.859375 164.295898438 c 128,-1,9
 958.638671875 152.793945312 958.638671875 152.793945312 958.638671875 132.322265625 c 2,10,-1
 958.638671875 108.25 l 2,11,12
 958.645507812 106.5859375 958.645507812 106.5859375 958.663085938 103.221679688 c 0,13,14
 958.7890625 78.93359375 958.7890625 78.93359375 958.088867188 65.9521484375 c 128,-1,15
 957.388671875 52.9697265625 957.388671875 52.9697265625 954.072265625 34.849609375 c 128,-1,16
 950.754882812 16.728515625 950.754882812 16.728515625 941.883789062 8.3642578125 c 128,-1,17
 933.013671875 -0 933.013671875 -0 918.57421875 0 c 2,18,-1
 901.80078125 0 l 2,19,20
 864.53125 0 864.53125 0 834.142578125 3.4990234375 c 128,-1,21
 803.75390625 6.998046875 803.75390625 6.998046875 778.655273438 14.5185546875 c 128,-1,22
 753.555664062 22.0400390625 753.555664062 22.0400390625 734.828125 33.6689453125 c 1,23,24
 694.798828125 -204.329101562 694.798828125 -204.329101562 517.6328125 -340.517578125 c 128,-1,25
 340.465820312 -476.706054688 340.465820312 -476.706054688 31.5830078125 -510.0390625 c 2,26,-1
 14.2607421875 -511.908203125 l 1,27,-1
 10.0341796875 -495.004882812 l 1,28,-1
 -32.5341796875 -324.729492188 l 1,29,-1
 -38.14453125 -302.287109375 l 1,30,-1
 -15.126953125 -299.978515625 l 2,31,32
 263.153320312 -272.069335938 263.153320312 -272.069335938 398.381835938 -154.291015625 c 128,-1,33
 533.610351562 -36.5126953125 533.610351562 -36.5126953125 533.25 173.309570312 c 0,34,35
 533.0078125 318.540039062 533.0078125 318.540039062 455.881835938 483.530273438 c 2,36,-1
 446.515625 503.56640625 l 1,37,-1
 467.389648438 510.875976562 l 1,38,-1
 637.529296875 570.455078125 l 1,39,-1
 657.38671875 577.409179688 l 1,40,-1
 663.326171875 557.224609375 l 1,0,-1
EndSplineSet
PairPos2: "'kern' Horizontal Kerning lookup 15-2" uniFBFE dx=60 dy=0 dh=60 dv=0 dx=0 dy=0 dh=0 dv=0
PairPos2: "'kern' Horizontal Kerning lookup 15-1" uniFEE7 dx=-178 dy=0 dh=-178 dv=0 dx=0 dy=0 dh=0 dv=0
PairPos2: "'kern' Horizontal Kerning lookup 15-2" uniFB90 dx=-226 dy=0 dh=-226 dv=0 dx=0 dy=0 dh=0 dv=0
PairPos2: "'kern' Horizontal Kerning lookup 15-2" uniFB8E dx=-226 dy=0 dh=-226 dv=0 dx=0 dy=0 dh=0 dv=0
PairPos2: "'kern' Horizontal Kerning lookup 15-2" uni06A9 dx=-226 dy=0 dh=-226 dv=0 dx=0 dy=0 dh=0 dv=0
PairPos2: "'kern' Horizontal Kerning lookup 15-2" uni064A dx=-60 dy=0 dh=-60 dv=0 dx=0 dy=0 dh=0 dv=0
PairPos2: "'kern' Horizontal Kerning lookup 15-2" afii57414 dx=-60 dy=0 dh=-60 dv=0 dx=0 dy=0 dh=0 dv=0
PairPos2: "'kern' Horizontal Kerning lookup 15-2" uni0649 dx=-60 dy=0 dh=-60 dv=0 dx=0 dy=0 dh=0 dv=0
PairPos2: "'kern' Horizontal Kerning lookup 15-2" uniFEEB dx=-178 dy=0 dh=-178 dv=0 dx=0 dy=0 dh=0 dv=0
PairPos2: "'kern' Horizontal Kerning lookup 15-2" uni0647 dx=-178 dy=0 dh=-178 dv=0 dx=0 dy=0 dh=0 dv=0
PairPos2: "'kern' Horizontal Kerning lookup 15-2" uni0646 dx=-60 dy=0 dh=-60 dv=0 dx=0 dy=0 dh=0 dv=0
PairPos2: "'kern' Horizontal Kerning lookup 15-2" uniFEE3 dx=-178 dy=0 dh=-178 dv=0 dx=0 dy=0 dh=0 dv=0
PairPos2: "'kern' Horizontal Kerning lookup 15-2" uni0645 dx=-178 dy=0 dh=-178 dv=0 dx=0 dy=0 dh=0 dv=0
PairPos2: "'kern' Horizontal Kerning lookup 15-2" uniFEFB dx=-143 dy=0 dh=-143 dv=0 dx=0 dy=0 dh=0 dv=0
PairPos2: "'kern' Horizontal Kerning lookup 15-2" uniFEDF dx=-143 dy=0 dh=-143 dv=0 dx=0 dy=0 dh=0 dv=0
PairPos2: "'kern' Horizontal Kerning lookup 15-2" uni0644 dx=-60 dy=0 dh=-60 dv=0 dx=0 dy=0 dh=0 dv=0
PairPos2: "'kern' Horizontal Kerning lookup 15-2" uniFEDB dx=-226 dy=0 dh=-226 dv=0 dx=0 dy=0 dh=0 dv=0
PairPos2: "'kern' Horizontal Kerning lookup 15-2" uni0643 dx=-143 dy=0 dh=-143 dv=0 dx=0 dy=0 dh=0 dv=0
PairPos2: "'kern' Horizontal Kerning lookup 15-2" uniFED7 dx=-178 dy=0 dh=-178 dv=0 dx=0 dy=0 dh=0 dv=0
PairPos2: "'kern' Horizontal Kerning lookup 15-2" uni0642 dx=-60 dy=0 dh=-60 dv=0 dx=0 dy=0 dh=0 dv=0
PairPos2: "'kern' Horizontal Kerning lookup 15-2" uniFED3 dx=-178 dy=0 dh=-178 dv=0 dx=0 dy=0 dh=0 dv=0
PairPos2: "'kern' Horizontal Kerning lookup 15-2" uni0641 dx=-178 dy=0 dh=-178 dv=0 dx=0 dy=0 dh=0 dv=0
PairPos2: "'kern' Horizontal Kerning lookup 15-2" uniFECF dx=-178 dy=0 dh=-178 dv=0 dx=0 dy=0 dh=0 dv=0
PairPos2: "'kern' Horizontal Kerning lookup 15-2" uniFECB dx=-178 dy=0 dh=-178 dv=0 dx=0 dy=0 dh=0 dv=0
PairPos2: "'kern' Horizontal Kerning lookup 15-2" uniFEC7 dx=-178 dy=0 dh=-178 dv=0 dx=0 dy=0 dh=0 dv=0
PairPos2: "'kern' Horizontal Kerning lookup 15-2" uni0638 dx=-178 dy=0 dh=-178 dv=0 dx=0 dy=0 dh=0 dv=0
PairPos2: "'kern' Horizontal Kerning lookup 15-2" uniFEC3 dx=-178 dy=0 dh=-178 dv=0 dx=0 dy=0 dh=0 dv=0
PairPos2: "'kern' Horizontal Kerning lookup 15-2" uni0637 dx=-178 dy=0 dh=-178 dv=0 dx=0 dy=0 dh=0 dv=0
PairPos2: "'kern' Horizontal Kerning lookup 15-2" uniFEBF dx=-178 dy=0 dh=-178 dv=0 dx=0 dy=0 dh=0 dv=0
PairPos2: "'kern' Horizontal Kerning lookup 15-2" uni0636 dx=-178 dy=0 dh=-178 dv=0 dx=0 dy=0 dh=0 dv=0
PairPos2: "'kern' Horizontal Kerning lookup 15-2" uniFEBB dx=-178 dy=0 dh=-178 dv=0 dx=0 dy=0 dh=0 dv=0
PairPos2: "'kern' Horizontal Kerning lookup 15-2" uni0635 dx=-178 dy=0 dh=-178 dv=0 dx=0 dy=0 dh=0 dv=0
PairPos2: "'kern' Horizontal Kerning lookup 15-2" uniFEB7 dx=-178 dy=0 dh=-178 dv=0 dx=0 dy=0 dh=0 dv=0
PairPos2: "'kern' Horizontal Kerning lookup 15-2" uni0634 dx=-178 dy=0 dh=-178 dv=0 dx=0 dy=0 dh=0 dv=0
PairPos2: "'kern' Horizontal Kerning lookup 15-2" uniFEB3 dx=-178 dy=0 dh=-178 dv=0 dx=0 dy=0 dh=0 dv=0
PairPos2: "'kern' Horizontal Kerning lookup 15-2" uni0633 dx=-178 dy=0 dh=-178 dv=0 dx=0 dy=0 dh=0 dv=0
PairPos2: "'kern' Horizontal Kerning lookup 15-2" uni0630 dx=-178 dy=0 dh=-178 dv=0 dx=0 dy=0 dh=0 dv=0
PairPos2: "'kern' Horizontal Kerning lookup 15-2" uni062F dx=-178 dy=0 dh=-178 dv=0 dx=0 dy=0 dh=0 dv=0
PairPos2: "'kern' Horizontal Kerning lookup 15-2" uniFEA7 dx=-178 dy=0 dh=-178 dv=0 dx=0 dy=0 dh=0 dv=0
PairPos2: "'kern' Horizontal Kerning lookup 15-2" uniFEA3 dx=-178 dy=0 dh=-178 dv=0 dx=0 dy=0 dh=0 dv=0
PairPos2: "'kern' Horizontal Kerning lookup 15-2" uniFE9F dx=-178 dy=0 dh=-178 dv=0 dx=0 dy=0 dh=0 dv=0
PairPos2: "'kern' Horizontal Kerning lookup 15-2" uniFE9B dx=-178 dy=0 dh=-178 dv=0 dx=0 dy=0 dh=0 dv=0
PairPos2: "'kern' Horizontal Kerning lookup 15-2" uni062B dx=-178 dy=0 dh=-178 dv=0 dx=0 dy=0 dh=0 dv=0
PairPos2: "'kern' Horizontal Kerning lookup 15-2" uniFE97 dx=-178 dy=0 dh=-178 dv=0 dx=0 dy=0 dh=0 dv=0
PairPos2: "'kern' Horizontal Kerning lookup 15-2" uni062A dx=-178 dy=0 dh=-178 dv=0 dx=0 dy=0 dh=0 dv=0
PairPos2: "'kern' Horizontal Kerning lookup 15-2" uni0629 dx=-178 dy=0 dh=-178 dv=0 dx=0 dy=0 dh=0 dv=0
PairPos2: "'kern' Horizontal Kerning lookup 15-2" uni0628 dx=-178 dy=0 dh=-178 dv=0 dx=0 dy=0 dh=0 dv=0
PairPos2: "'kern' Horizontal Kerning lookup 15-2" uni0627 dx=-143 dy=0 dh=-143 dv=0 dx=0 dy=0 dh=0 dv=0
PairPos2: "'kern' Horizontal Kerning lookup 15-2" uni0623 dx=-143 dy=0 dh=-143 dv=0 dx=0 dy=0 dh=0 dv=0
PairPos2: "'kern' Horizontal Kerning lookup 15-2" uni0622 dx=-143 dy=0 dh=-143 dv=0 dx=0 dy=0 dh=0 dv=0
PairPos2: "'kern' Horizontal Kerning lookup 15-2" uni0621 dx=-178 dy=0 dh=-178 dv=0 dx=0 dy=0 dh=0 dv=0
PairPos2: "'kern' Horizontal Kerning lookup 15-2" uniFB94 dx=-226 dy=0 dh=-226 dv=0 dx=0 dy=0 dh=0 dv=0
PairPos2: "'kern' Horizontal Kerning lookup 15-2" uniFB92 dx=-226 dy=0 dh=-226 dv=0 dx=0 dy=0 dh=0 dv=0
PairPos2: "'kern' Horizontal Kerning lookup 15-2" uni06AF dx=-226 dy=0 dh=-226 dv=0 dx=0 dy=0 dh=0 dv=0
PairPos2: "'kern' Horizontal Kerning lookup 15-2" afii57506 dx=-178 dy=0 dh=-178 dv=0 dx=0 dy=0 dh=0 dv=0
PairPos2: "'kern' Horizontal Kerning lookup 15-2" afii57440 dx=-178 dy=0 dh=-178 dv=0 dx=0 dy=0 dh=0 dv=0
PairPos2: "'kern' Horizontal Kerning lookup 15-2" uniFE8B dx=-178 dy=0 dh=-178 dv=0 dx=0 dy=0 dh=0 dv=0
EndChar

StartChar: uniFEB2
Encoding: 65202 65202 189
GlifName: uniF_E_B_2
Width: 2589
VWidth: 2972
GlyphClass: 2
Flags: W
AnchorPoint: "Anchor-7" 681.902 -736.086 basechar 0
AnchorPoint: "Anchor-10" 1810.53 1110.1 basechar 0
LayerCount: 2
Fore
SplineSet
1352.02832031 373.159179688 m 2,0,1
 1376.65722656 297.071289062 1376.65722656 297.071289062 1426.20996094 260.5546875 c 128,-1,2
 1475.76269531 224.0390625 1475.76269531 224.0390625 1554.09570312 224.073242188 c 0,3,4
 1641.18554688 224.0390625 1641.18554688 224.0390625 1681.58398438 263.243164062 c 128,-1,5
 1721.98242188 302.446289062 1721.98242188 302.446289062 1721.96777344 386.374023438 c 0,6,7
 1721.98339844 424.913085938 1721.98339844 424.913085938 1721.51855469 451.426757812 c 128,-1,8
 1721.0546875 477.940429688 1721.0546875 477.940429688 1720.15625 491.314453125 c 2,9,-1
 1714.66503906 573.07421875 l 1,10,-1
 1713.38964844 592.05859375 l 1,11,-1
 1732.28808594 594.27734375 l 1,12,-1
 1897.09472656 613.625 l 1,13,-1
 1917.92382812 616.0703125 l 1,14,-1
 1919.37890625 595.1484375 l 1,15,-1
 1935.453125 363.948242188 l 2,16,17
 1940.28125 291.489257812 1940.28125 291.489257812 1973.58398438 258.11328125 c 128,-1,18
 2006.88671875 224.736328125 2006.88671875 224.736328125 2073.21191406 224.520507812 c 0,19,20
 2138.36425781 224.73046875 2138.36425781 224.73046875 2170.58007812 268.061523438 c 128,-1,21
 2202.796875 311.392578125 2202.796875 311.392578125 2203.51269531 406.953125 c 0,22,23
 2203.9921875 471.024414062 2203.9921875 471.024414062 2198.52832031 532.419921875 c 2,24,-1
 2193.11035156 593.296875 l 1,25,-1
 2191.38769531 612.65234375 l 1,26,-1
 2210.68457031 614.932617188 l 1,27,-1
 2375.51269531 634.405273438 l 1,28,-1
 2396.04589844 636.831054688 l 1,29,-1
 2397.78808594 616.228515625 l 1,30,-1
 2413.77734375 427.133789062 l 2,31,32
 2422.89648438 321.684570312 2422.89648438 321.684570312 2463.828125 272.850585938 c 128,-1,33
 2504.75976562 224.016601562 2504.75976562 224.016601562 2579.36230469 224 c 2,34,-1
 2597.43261719 223.99609375 l 2,35,36
 2607.23339844 223.998046875 2607.23339844 223.998046875 2614.48046875 220.22265625 c 128,-1,37
 2621.72851562 216.447265625 2621.72851562 216.447265625 2625.9296875 207.840820312 c 128,-1,38
 2630.13183594 199.235351562 2630.13183594 199.235351562 2632.68652344 191.90625 c 128,-1,39
 2635.2421875 184.577148438 2635.2421875 184.577148438 2636.20117188 170.609375 c 128,-1,40
 2637.16015625 156.642578125 2637.16015625 156.642578125 2637.34277344 149.463867188 c 128,-1,41
 2637.52636719 142.284179688 2637.52636719 142.284179688 2637.52636719 127.1171875 c 2,42,-1
 2637.52636719 108.131835938 l 2,43,44
 2637.47460938 105.158203125 2637.47460938 105.158203125 2637.39257812 99.1015625 c 0,45,46
 2637.06835938 75.42578125 2637.06835938 75.42578125 2636.17089844 62.9111328125 c 128,-1,47
 2635.2734375 50.3974609375 2635.2734375 50.3974609375 2631.78808594 33.076171875 c 128,-1,48
 2628.30371094 15.755859375 2628.30371094 15.755859375 2619.74023438 7.849609375 c 128,-1,49
 2611.17675781 -0.056640625 2611.17675781 -0.056640625 2597.4453125 -0.056640625 c 2,50,-1
 2581.11425781 -0.056640625 l 2,51,52
 2520.69335938 -0.0390625 2520.69335938 -0.0390625 2472.46386719 12.888671875 c 128,-1,53
 2424.234375 25.8173828125 2424.234375 25.8173828125 2387.99023438 52.4248046875 c 128,-1,54
 2351.74707031 79.033203125 2351.74707031 79.033203125 2329.43359375 118.919921875 c 1,55,56
 2289.36523438 59.5986328125 2289.36523438 59.5986328125 2227.00683594 29.798828125 c 128,-1,57
 2164.6484375 0 2164.6484375 0 2082.5 0 c 0,58,59
 1899.39453125 0 1899.39453125 0 1828.30664062 123.264648438 c 1,60,61
 1802.62011719 92.5458984375 1802.62011719 92.5458984375 1772.40136719 69.529296875 c 128,-1,62
 1742.18164062 46.51171875 1742.18164062 46.51171875 1707.66699219 31.3095703125 c 128,-1,63
 1673.15234375 16.107421875 1673.15234375 16.107421875 1634.45996094 8.5224609375 c 128,-1,64
 1595.76660156 0.9384765625 1595.76660156 0.9384765625 1552.79296875 0.9189453125 c 0,65,66
 1454.82714844 0.9873046875 1454.82714844 0.9873046875 1388.51367188 39.015625 c 1,67,68
 1387.56347656 25.3974609375 1387.56347656 25.3974609375 1386.00195312 11.8017578125 c 128,-1,69
 1384.44042969 -1.79296875 1384.44042969 -1.79296875 1382.27050781 -15.3623046875 c 128,-1,70
 1380.10058594 -28.931640625 1380.10058594 -28.931640625 1377.31640625 -42.5 c 128,-1,71
 1374.53125 -56.068359375 1374.53125 -56.068359375 1371.140625 -69.62109375 c 128,-1,72
 1367.75 -83.173828125 1367.75 -83.173828125 1363.7421875 -96.748046875 c 128,-1,73
 1359.734375 -110.321289062 1359.734375 -110.321289062 1355.12304688 -123.889648438 c 128,-1,74
 1350.51074219 -137.458984375 1350.51074219 -137.458984375 1345.27832031 -151.069335938 c 128,-1,75
 1340.04589844 -164.680664062 1340.04589844 -164.680664062 1334.21191406 -178.296875 c 128,-1,76
 1328.37792969 -191.9140625 1328.37792969 -191.9140625 1321.92089844 -205.594726562 c 0,77,78
 1170.56542969 -520.0078125 1170.56542969 -520.0078125 707.34375 -519.724609375 c 0,79,80
 645.607421875 -519.752929688 645.607421875 -519.752929688 589.76953125 -513.890625 c 128,-1,81
 533.932617188 -508.028320312 533.932617188 -508.028320312 484.170898438 -496.325195312 c 128,-1,82
 434.41015625 -484.622070312 434.41015625 -484.622070312 390.65234375 -467.0546875 c 128,-1,83
 346.89453125 -449.48828125 346.89453125 -449.48828125 309.291992188 -426.154296875 c 128,-1,84
 271.688476562 -402.821289062 271.688476562 -402.821289062 240.194335938 -373.646484375 c 128,-1,85
 208.700195312 -344.47265625 208.700195312 -344.47265625 183.438476562 -309.607421875 c 128,-1,86
 158.176757812 -274.741210938 158.176757812 -274.741210938 139.129882812 -234.05859375 c 128,-1,87
 120.083007812 -193.375 120.083007812 -193.375 107.346679688 -147.075195312 c 128,-1,88
 94.6103515625 -100.775390625 94.6103515625 -100.775390625 88.1943359375 -48.681640625 c 128,-1,89
 81.7783203125 3.4130859375 81.7783203125 3.4130859375 81.7529296875 61.0517578125 c 0,90,91
 82.0048828125 269.986328125 82.0048828125 269.986328125 184.547851562 517.772460938 c 2,92,-1
 192.185546875 536.2265625 l 1,93,-1
 210.649414062 528.616210938 l 1,94,-1
 369.169921875 463.278320312 l 1,95,-1
 387.381835938 455.771484375 l 1,96,-1
 380.153320312 437.447265625 l 2,97,98
 298.005859375 229.212890625 298.005859375 229.212890625 298.268554688 62.869140625 c 0,99,100
 298.139648438 -122.18359375 298.139648438 -122.18359375 400.309570312 -212.64453125 c 128,-1,101
 502.479492188 -303.104492188 502.479492188 -303.104492188 714.353515625 -303.203125 c 0,102,103
 945.01171875 -303.104492188 945.01171875 -303.104492188 1057.40820312 -197.609375 c 128,-1,104
 1169.8046875 -92.11328125 1169.8046875 -92.11328125 1170.55664062 123.783203125 c 0,105,106
 1170.70117188 183.256835938 1170.70117188 183.256835938 1161.01367188 242.87109375 c 128,-1,107
 1151.32714844 302.485351562 1151.32714844 302.485351562 1131.69824219 362.545898438 c 128,-1,108
 1112.06933594 422.606445312 1112.06933594 422.606445312 1082.48730469 482.966796875 c 2,109,-1
 1072.56445312 503.212890625 l 1,110,-1
 1093.84960938 510.649414062 l 1,111,-1
 1266.49121094 570.966796875 l 1,112,-1
 1285.8125 577.716796875 l 1,113,-1
 1292.11621094 558.245117188 l 1,114,-1
 1352.02832031 373.159179688 l 2,0,1
EndSplineSet
EndChar

StartChar: uniFEB3
Encoding: 65203 65203 190
GlifName: uniF_E_B_3
Width: 1599
VWidth: 2972
GlyphClass: 2
Flags: W
AnchorPoint: "Anchor-10" 859.961 1103.67 basechar 0
AnchorPoint: "Anchor-7" 759.534 -216.974 basechar 0
LayerCount: 2
Fore
SplineSet
817.54296875 354.905273438 m 0,0,1
 822.998046875 381.983398438 822.998046875 381.983398438 822.953125 421.454101562 c 0,2,3
 822.9765625 443.45703125 822.9765625 443.45703125 821.954101562 466.0703125 c 128,-1,4
 820.932617188 488.682617188 820.932617188 488.682617188 818.860351562 511.981445312 c 2,5,-1
 813.459960938 572.697265625 l 1,6,-1
 811.736328125 592.065429688 l 1,7,-1
 831.049804688 594.33203125 l 1,8,-1
 995.775390625 613.665039062 l 1,9,-1
 1016.60351562 616.110351562 l 1,10,-1
 1018.05859375 595.188476562 l 1,11,-1
 1034.13085938 364.001953125 l 2,12,13
 1039.10742188 291.517578125 1039.10742188 291.517578125 1072.33300781 258.131835938 c 128,-1,14
 1105.55761719 224.74609375 1105.55761719 224.74609375 1171.49707031 224.538085938 c 0,15,16
 1187.37597656 224.587890625 1187.37597656 224.587890625 1201.11425781 227.283203125 c 128,-1,17
 1214.8515625 229.979492188 1214.8515625 229.979492188 1226.95410156 235.517578125 c 128,-1,18
 1239.05566406 241.0546875 1239.05566406 241.0546875 1249.02929688 249.6171875 c 128,-1,19
 1259.00292969 258.178710938 1259.00292969 258.178710938 1267.19140625 269.869140625 c 128,-1,20
 1275.38085938 281.559570312 1275.38085938 281.559570312 1281.46484375 296.65625 c 128,-1,21
 1287.54882812 311.75390625 1287.54882812 311.75390625 1291.69921875 330.267578125 c 128,-1,22
 1295.85058594 348.78125 1295.85058594 348.78125 1297.91894531 371.084960938 c 128,-1,23
 1299.98828125 393.388671875 1299.98828125 393.388671875 1299.98632812 419.401367188 c 0,24,25
 1299.99023438 452.291992188 1299.99023438 452.291992188 1295.24511719 490.856445312 c 128,-1,26
 1290.49902344 529.421875 1290.49902344 529.421875 1280.86035156 574.083984375 c 128,-1,27
 1271.22167969 618.747070312 1271.22167969 618.747070312 1256.76855469 668.754882812 c 2,28,-1
 1251.10449219 688.354492188 l 1,29,-1
 1270.81347656 693.627929688 l 1,30,-1
 1441.76464844 739.368164062 l 1,31,-1
 1460.22753906 744.30859375 l 1,32,-1
 1466 726.087890625 l 2,33,34
 1517.02246094 565.021484375 1517.02246094 565.021484375 1516.01953125 425.919921875 c 0,35,36
 1516.00976562 424.3984375 1516.00976562 424.3984375 1516.00488281 423.064453125 c 128,-1,37
 1516 421.731445312 1516 421.731445312 1516 420.456054688 c 0,38,39
 1515.48535156 303.28125 1515.48535156 303.28125 1483.56640625 215.84375 c 128,-1,40
 1451.6484375 128.40625 1451.6484375 128.40625 1387.53125 72.2060546875 c 0,41,42
 1306.54199219 1 1306.54199219 1 1174.72460938 0.9931640625 c 0,43,44
 1087.73339844 0.99609375 1087.73339844 0.99609375 1024.83007812 31.93359375 c 128,-1,45
 961.926757812 62.8701171875 961.926757812 62.8701171875 926.971679688 123.625976562 c 1,46,47
 822.544921875 0 822.544921875 0 646.323242188 0 c 0,48,49
 444.203125 0.9423828125 444.203125 0.9423828125 370.008789062 121.662109375 c 1,50,51
 275.5859375 0.3642578125 275.5859375 0.3642578125 48.849609375 -0 c 2,52,-1
 -6.9384765625 0 l 2,53,54
 -46.005859375 0 -46.005859375 0 -65.3916015625 29.646484375 c 128,-1,55
 -84.7783203125 59.2939453125 -84.7783203125 59.2939453125 -84.7783203125 108.313476562 c 2,56,-1
 -84.7783203125 127.157226562 l 2,57,58
 -84.9052734375 170.991210938 -84.9052734375 170.991210938 -64.96875 197.495117188 c 128,-1,59
 -45.0322265625 223.999023438 -45.0322265625 223.999023438 -6.9384765625 223.999023438 c 2,60,-1
 51.00390625 223.999023438 l 2,61,62
 116.521484375 223.999023438 116.521484375 223.999023438 161.765625 238.971679688 c 128,-1,63
 207.009765625 253.943359375 207.009765625 253.943359375 232.5859375 282.6953125 c 128,-1,64
 258.162109375 311.447265625 258.162109375 311.447265625 267.344726562 355.104492188 c 0,65,66
 270.125 368.365234375 270.125 368.365234375 271.489257812 384.948242188 c 128,-1,67
 272.852539062 401.532226562 272.852539062 401.532226562 272.716796875 421.467773438 c 0,68,69
 272.854492188 442.264648438 272.854492188 442.264648438 271.836914062 464.786132812 c 128,-1,70
 270.819335938 487.307617188 270.819335938 487.307617188 268.624023438 511.99609375 c 2,71,-1
 263.223632812 572.711914062 l 1,72,-1
 261.5 592.080078125 l 1,73,-1
 280.813476562 594.346679688 l 1,74,-1
 445.5390625 613.6796875 l 1,75,-1
 466.3671875 616.125 l 1,76,-1
 467.822265625 595.203125 l 1,77,-1
 483.892578125 364.037109375 l 2,78,79
 488.915039062 291.998046875 488.915039062 291.998046875 528.362304688 258.018554688 c 128,-1,80
 567.810546875 224.0390625 567.810546875 224.0390625 648.073242188 224.073242188 c 0,81,82
 697.641601562 224.05078125 697.641601562 224.05078125 732.194335938 238.280273438 c 128,-1,83
 766.74609375 252.510742188 766.74609375 252.510742188 787.705078125 281.323242188 c 128,-1,84
 808.663085938 310.13671875 808.663085938 310.13671875 817.54296875 354.905273438 c 0,0,1
EndSplineSet
EndChar

StartChar: uniFEB4
Encoding: 65204 65204 191
GlifName: uniF_E_B_4
Width: 1688
VWidth: 2965
GlyphClass: 2
Flags: W
AnchorPoint: "Anchor-7" 759.534 -216.974 basechar 0
AnchorPoint: "Anchor-10" 873.961 1103.67 basechar 0
LayerCount: 2
Fore
SplineSet
1034.12988281 364.018554688 m 2,0,1
 1037.50488281 315.46484375 1037.50488281 315.46484375 1053.61816406 284.740234375 c 128,-1,2
 1069.73046875 254.016601562 1069.73046875 254.016601562 1099.18847656 239.361328125 c 128,-1,3
 1128.64648438 224.706054688 1128.64648438 224.706054688 1173.36816406 224.579101562 c 0,4,5
 1239.01855469 224.763671875 1239.01855469 224.763671875 1270.84765625 267.37890625 c 128,-1,6
 1302.67675781 309.993164062 1302.67675781 309.993164062 1302.38769531 404.139648438 c 0,7,8
 1302.00585938 481.709960938 1302.00585938 481.709960938 1297.48828125 532.4765625 c 2,9,-1
 1292.0703125 593.353515625 l 1,10,-1
 1290.34765625 612.708984375 l 1,11,-1
 1309.64453125 614.989257812 l 1,12,-1
 1474.47265625 634.461914062 l 1,13,-1
 1495.00585938 636.887695312 l 1,14,-1
 1496.74804688 616.28515625 l 1,15,-1
 1512.73632812 427.192382812 l 2,16,17
 1518.87597656 356.336914062 1518.87597656 356.336914062 1539.56640625 311.092773438 c 128,-1,18
 1560.25683594 265.84765625 1560.25683594 265.84765625 1594.48632812 244.919921875 c 128,-1,19
 1628.71582031 223.993164062 1628.71582031 223.993164062 1678.31640625 223.998046875 c 2,20,-1
 1696.39648438 224 l 2,21,22
 1706.19433594 224 1706.19433594 224 1713.44042969 220.224609375 c 128,-1,23
 1720.68652344 216.448242188 1720.68652344 216.448242188 1724.88769531 207.850585938 c 128,-1,24
 1729.08886719 199.251953125 1729.08886719 199.251953125 1731.64453125 191.921875 c 128,-1,25
 1734.20019531 184.591796875 1734.20019531 184.591796875 1735.16015625 170.640625 c 128,-1,26
 1736.11914062 156.688476562 1736.11914062 156.688476562 1736.30273438 149.504882812 c 128,-1,27
 1736.48632812 142.321289062 1736.48632812 142.321289062 1736.48632812 127.173828125 c 2,28,-1
 1736.48632812 108.306640625 l 2,29,30
 1736.47363281 106.014648438 1736.47363281 106.014648438 1736.45800781 101.364257812 c 0,31,32
 1736.11230469 0 1736.11230469 0 1696.40527344 0 c 2,33,-1
 1680.08007812 0 l 2,34,35
 1494.02734375 0 1494.02734375 0 1428.26464844 118.8125 c 1,36,37
 1347.34765625 0 1347.34765625 0 1179 0 c 0,38,39
 1093.43457031 0 1093.43457031 0 1029.87597656 31.4287109375 c 128,-1,40
 966.317382812 62.857421875 966.317382812 62.857421875 927.875 124.69921875 c 1,41,42
 823.099609375 0 823.099609375 0 646.323242188 0 c 0,43,44
 444.203125 0.9423828125 444.203125 0.9423828125 370.008789062 121.662109375 c 1,45,46
 275.5859375 0.3642578125 275.5859375 0.3642578125 48.849609375 -0 c 2,47,-1
 -6.9384765625 0 l 2,48,49
 -46.005859375 0 -46.005859375 0 -65.3916015625 29.646484375 c 128,-1,50
 -84.7783203125 59.2939453125 -84.7783203125 59.2939453125 -84.7783203125 108.313476562 c 2,51,-1
 -84.7783203125 127.157226562 l 2,52,53
 -84.9052734375 170.991210938 -84.9052734375 170.991210938 -64.96875 197.495117188 c 128,-1,54
 -45.0322265625 223.999023438 -45.0322265625 223.999023438 -6.9384765625 223.999023438 c 2,55,-1
 51.00390625 223.999023438 l 2,56,57
 149.123046875 223.999023438 149.123046875 223.999023438 201.827148438 256.715820312 c 128,-1,58
 254.53125 289.431640625 254.53125 289.431640625 268.352539062 355.142578125 c 0,59,60
 272.987304688 377.033203125 272.987304688 377.033203125 272.716796875 421.475585938 c 0,61,62
 272.9921875 462.880859375 272.9921875 462.880859375 268.624023438 511.99609375 c 2,63,-1
 263.223632812 572.711914062 l 1,64,-1
 261.5 592.080078125 l 1,65,-1
 280.813476562 594.346679688 l 1,66,-1
 445.5390625 613.6796875 l 1,67,-1
 466.3671875 616.125 l 1,68,-1
 467.822265625 595.203125 l 1,69,-1
 483.892578125 364.037109375 l 2,70,71
 488.915039062 291.998046875 488.915039062 291.998046875 528.362304688 258.018554688 c 128,-1,72
 567.810546875 224.0390625 567.810546875 224.0390625 648.073242188 224.073242188 c 0,73,74
 685.564453125 224.056640625 685.564453125 224.056640625 714.34375 231.950195312 c 128,-1,75
 743.123046875 239.844726562 743.123046875 239.844726562 764.12109375 256.134765625 c 128,-1,76
 785.118164062 272.424804688 785.118164062 272.424804688 798.501953125 296.883789062 c 128,-1,77
 811.885742188 321.34375 811.885742188 321.34375 818.543945312 354.908203125 c 0,78,79
 822.998046875 376.987304688 822.998046875 376.987304688 822.953125 421.455078125 c 0,80,81
 822.999023438 465.44140625 822.999023438 465.44140625 818.860351562 511.981445312 c 2,82,-1
 813.459960938 572.697265625 l 1,83,-1
 811.736328125 592.065429688 l 1,84,-1
 831.049804688 594.33203125 l 1,85,-1
 995.775390625 613.665039062 l 1,86,-1
 1016.60351562 616.110351562 l 1,87,-1
 1018.05859375 595.188476562 l 1,88,-1
 1034.12988281 364.018554688 l 2,0,1
EndSplineSet
EndChar

StartChar: uniFEBA
Encoding: 65210 65210 197
GlifName: uniF_E_B_A_
Width: 2626
VWidth: 2972
GlyphClass: 2
Flags: W
AnchorPoint: "Anchor-7" 681.902 -736.086 basechar 0
AnchorPoint: "Anchor-10" 2058.53 1233.1 basechar 0
LayerCount: 2
Fore
SplineSet
1423.796875 255.41015625 m 1,0,1
 1772.43359375 837.012695312 1772.43359375 837.012695312 2119.38769531 836.42578125 c 0,2,3
 2281.203125 835.98046875 2281.203125 835.98046875 2380.7109375 753.98046875 c 0,4,5
 2515.02050781 643.424804688 2515.02050781 643.424804688 2514.59667969 443.803710938 c 0,6,7
 2514.97851562 329.427734375 2514.97851562 329.427734375 2454.6875 235.884765625 c 1,8,9
 2476.08398438 230.134765625 2476.08398438 230.134765625 2516.70605469 227.067382812 c 128,-1,10
 2557.328125 224 2557.328125 224 2615.73828125 224 c 2,11,-1
 2634.37109375 224 l 2,12,13
 2644.11328125 224 2644.11328125 224 2651.31738281 220.288085938 c 128,-1,14
 2658.52050781 216.576171875 2658.52050781 216.576171875 2662.71289062 207.803710938 c 128,-1,15
 2666.90625 199.032226562 2666.90625 199.032226562 2669.4453125 192.008789062 c 128,-1,16
 2671.98535156 184.985351562 2671.98535156 184.985351562 2672.99023438 170.622070312 c 128,-1,17
 2673.99609375 156.258789062 2673.99609375 156.258789062 2674.19433594 149.620117188 c 128,-1,18
 2674.39257812 142.981445312 2674.39257812 142.981445312 2674.49316406 127.239257812 c 2,19,-1
 2674.49316406 108.305664062 l 2,20,21
 2674.49316406 106.375 2674.49316406 106.375 2674.49902344 102.46484375 c 0,22,23
 2674.53417969 78.27734375 2674.53417969 78.27734375 2673.79394531 65.3818359375 c 128,-1,24
 2673.05371094 52.4853515625 2673.05371094 52.4853515625 2669.70019531 34.5166015625 c 128,-1,25
 2666.34570312 16.5478515625 2666.34570312 16.5478515625 2657.53222656 8.2744140625 c 128,-1,26
 2648.71777344 0 2648.71777344 0 2634.41210938 0 c 2,27,-1
 2610.2265625 0 l 2,28,29
 2493.98242188 0 2493.98242188 0 2407.00195312 20.8330078125 c 128,-1,30
 2320.02246094 41.666015625 2320.02246094 41.666015625 2263.00292969 83.890625 c 1,31,32
 2100.37695312 0.1630859375 2100.37695312 0.1630859375 1773.15136719 -0 c 2,33,-1
 1722.34082031 0 l 2,34,35
 1614.47070312 0 1614.47070312 0 1530.88183594 11.447265625 c 128,-1,36
 1447.29296875 22.8935546875 1447.29296875 22.8935546875 1388.97753906 45.7958984375 c 1,37,38
 1381.68066406 -81.7431640625 1381.68066406 -81.7431640625 1321.88769531 -205.663085938 c 0,39,40
 1170.56542969 -520.0078125 1170.56542969 -520.0078125 706.509765625 -519.724609375 c 0,41,42
 398.703125 -519.354492188 398.703125 -519.354492188 240.806640625 -373.749023438 c 128,-1,43
 82.91015625 -228.142578125 82.91015625 -228.142578125 81.7587890625 57.9267578125 c 0,44,45
 80.9853515625 267.9453125 80.9853515625 267.9453125 184.552734375 517.784179688 c 2,46,-1
 192.196289062 536.221679688 l 1,47,-1
 210.649414062 528.616210938 l 1,48,-1
 369.169921875 463.278320312 l 1,49,-1
 387.352539062 455.783203125 l 1,50,-1
 380.165039062 437.477539062 l 2,51,52
 298.005859375 228.229492188 298.005859375 228.229492188 298.26953125 61.8017578125 c 0,53,54
 298.620117188 -124.577148438 298.620117188 -124.577148438 402.829101562 -214.803710938 c 128,-1,55
 507.038085938 -305.029296875 507.038085938 -305.029296875 722.733398438 -303.166992188 c 0,56,57
 949.140625 -301.143554688 949.140625 -301.143554688 1059.47167969 -196.553710938 c 128,-1,58
 1169.80273438 -91.96484375 1169.80273438 -91.96484375 1170.55273438 120.165039062 c 0,59,60
 1170.98925781 300.4296875 1170.98925781 300.4296875 1082.45019531 483.04296875 c 2,61,-1
 1072.65527344 503.244140625 l 1,62,-1
 1093.84960938 510.649414062 l 1,63,-1
 1266.49121094 570.966796875 l 1,64,-1
 1285.953125 577.766601562 l 1,65,-1
 1292.16015625 558.107421875 l 1,66,-1
 1360.07226562 343.021484375 l 2,67,68
 1368.41601562 316.595703125 1368.41601562 316.595703125 1379.09375 297.831054688 c 128,-1,69
 1389.77148438 279.067382812 1389.77148438 279.067382812 1400.68359375 269.205078125 c 128,-1,70
 1411.59472656 259.342773438 1411.59472656 259.342773438 1423.796875 255.41015625 c 1,0,1
1768.73925781 224.534179688 m 2,71,72
 2292.05761719 224.982421875 2292.05761719 224.982421875 2292.66113281 435.440429688 c 0,73,74
 2292.96484375 526.533203125 2292.96484375 526.533203125 2223.64355469 574.424804688 c 0,75,76
 2180.69140625 604.0546875 2180.69140625 604.0546875 2121.92382812 604.57421875 c 0,77,78
 2019.93066406 605.659179688 2019.93066406 605.659179688 1903.921875 511.030273438 c 128,-1,79
 1787.91210938 416.401367188 1787.91210938 416.401367188 1661.45898438 224.447265625 c 1,80,-1
 1768.73925781 224.534179688 l 2,71,72
EndSplineSet
EndChar

StartChar: uniFEBB
Encoding: 65211 65211 198
GlifName: uniF_E_B_B_
Width: 1680
VWidth: 2972
GlyphClass: 2
Flags: W
AnchorPoint: "Anchor-10" 1118.91 1222.52 basechar 0
AnchorPoint: "Anchor-7" 699.209 -220.348 basechar 0
LayerCount: 2
Fore
SplineSet
1202.359375 836.42578125 m 0,0,1
 1364.20410156 835.98046875 1364.20410156 835.98046875 1463.69238281 753.981445312 c 0,2,3
 1598.02050781 643.424804688 1598.02050781 643.424804688 1597.57910156 443.717773438 c 0,4,5
 1596.74902344 220.87890625 1596.74902344 220.87890625 1408.68554688 110.439453125 c 128,-1,6
 1220.62207031 0 1220.62207031 0 856.133789062 0 c 2,7,-1
 805.323242188 0 l 2,8,9
 453.54296875 0 453.54296875 0 347.325195312 131.724609375 c 1,10,11
 233.989257812 0 233.989257812 0 9.984375 0 c 2,12,-1
 -6.9384765625 0 l 2,13,14
 -46.1015625 0 -46.1015625 0 -65.501953125 29.666015625 c 128,-1,15
 -84.9013671875 59.33203125 -84.9013671875 59.33203125 -84.7783203125 108.338867188 c 2,16,-1
 -84.7783203125 127.186523438 l 2,17,18
 -84.7783203125 155.90625 -84.7783203125 155.90625 -76.2216796875 177.401367188 c 128,-1,19
 -67.6640625 198.896484375 -67.6640625 198.896484375 -49.6591796875 211.448242188 c 128,-1,20
 -31.6533203125 224 -31.6533203125 224 -5.9384765625 224 c 2,21,-1
 10.1103515625 224 l 2,22,23
 215.373046875 224 215.373046875 224 236.899414062 339.8984375 c 0,24,25
 247.87109375 397.221679688 247.87109375 397.221679688 240.049804688 512.340820312 c 2,26,-1
 234.559570312 594.096679688 l 1,27,-1
 233.284179688 613.08203125 l 1,28,-1
 252.182617188 615.299804688 l 1,29,-1
 416.989257812 634.647460938 l 1,30,-1
 437.666992188 637.075195312 l 1,31,-1
 439.262695312 616.317382812 l 1,32,-1
 457.108398438 384.189453125 l 2,33,34
 459.866210938 348.307617188 459.866210938 348.307617188 467.422851562 321.684570312 c 128,-1,35
 474.979492188 295.060546875 474.979492188 295.060546875 485.102539062 280.048828125 c 128,-1,36
 495.225585938 265.036132812 495.225585938 265.036132812 508.194335938 257.810546875 c 1,37,38
 855.124023438 837.01171875 855.124023438 837.01171875 1202.359375 836.42578125 c 0,0,1
851.721679688 224.534179688 m 2,39,40
 1375.05566406 224.982421875 1375.05566406 224.982421875 1375.64355469 435.444335938 c 0,41,42
 1375.96289062 526.532226562 1375.96289062 526.532226562 1306.62304688 574.426757812 c 0,43,44
 1298.05859375 580.336914062 1298.05859375 580.336914062 1288.94238281 585.072265625 c 128,-1,45
 1279.82714844 589.807617188 1279.82714844 589.807617188 1270.01367188 593.419921875 c 128,-1,46
 1260.20019531 597.032226562 1260.20019531 597.032226562 1249.74902344 599.46875 c 128,-1,47
 1239.29882812 601.905273438 1239.29882812 601.905273438 1228.08984375 603.186523438 c 128,-1,48
 1216.88085938 604.46875 1216.88085938 604.46875 1204.94824219 604.57421875 c 0,49,50
 1154.44628906 604.896484375 1154.44628906 604.896484375 1100.40332031 581.76953125 c 128,-1,51
 1046.36035156 558.643554688 1046.36035156 558.643554688 988.696289062 511.876953125 c 128,-1,52
 931.033203125 465.110351562 931.033203125 465.110351562 869.5703125 392.887695312 c 128,-1,53
 808.108398438 320.666015625 808.108398438 320.666015625 744.509765625 224.447265625 c 1,54,-1
 851.721679688 224.534179688 l 2,39,40
EndSplineSet
EndChar

StartChar: uniFEBC
Encoding: 65212 65212 199
GlifName: uniF_E_B_C_
Width: 1719
VWidth: 2972
GlyphClass: 2
Flags: W
AnchorPoint: "Anchor-7" 699.209 -220.348 basechar 0
AnchorPoint: "Anchor-10" 1148.91 1222.52 basechar 0
LayerCount: 2
Fore
SplineSet
1597.57910156 443.8046875 m 0,0,1
 1597.97753906 329.427734375 1597.97753906 329.427734375 1537.67382812 235.885742188 c 1,2,3
 1559.07714844 230.134765625 1559.07714844 230.134765625 1599.6953125 227.067382812 c 128,-1,4
 1640.31347656 224 1640.31347656 224 1698.72070312 224 c 2,5,-1
 1717.35351562 224 l 2,6,7
 1731.39257812 224 1731.39257812 224 1740.13964844 216.17578125 c 128,-1,8
 1748.88671875 208.3515625 1748.88671875 208.3515625 1752.29199219 191.704101562 c 128,-1,9
 1755.69824219 175.056640625 1755.69824219 175.056640625 1756.51660156 163.293945312 c 128,-1,10
 1757.3359375 151.532226562 1757.3359375 151.532226562 1757.45996094 129.938476562 c 0,11,12
 1757.46972656 128.131835938 1757.46972656 128.131835938 1757.47558594 127.236328125 c 2,13,-1
 1757.47558594 108.305664062 l 2,14,15
 1757.47558594 106.375 1757.47558594 106.375 1757.48144531 102.46484375 c 0,16,17
 1757.51660156 78.27734375 1757.51660156 78.27734375 1756.77636719 65.3818359375 c 128,-1,18
 1756.03613281 52.4853515625 1756.03613281 52.4853515625 1752.68261719 34.5166015625 c 128,-1,19
 1749.328125 16.5478515625 1749.328125 16.5478515625 1740.51464844 8.2744140625 c 128,-1,20
 1731.70019531 0 1731.70019531 0 1717.39453125 0 c 2,21,-1
 1693.20898438 0 l 2,22,23
 1459.28710938 0 1459.28710938 0 1345.98632812 83.890625 c 1,24,25
 1184.39355469 0 1184.39355469 0 856.133789062 0 c 2,26,-1
 805.323242188 0 l 2,27,28
 456.798828125 0 456.798828125 0 347.606445312 132.051757812 c 1,29,30
 233.989257812 0 233.989257812 0 9.984375 0 c 2,31,-1
 -6.9384765625 0 l 2,32,33
 -46.1015625 0 -46.1015625 0 -65.501953125 29.666015625 c 128,-1,34
 -84.9013671875 59.33203125 -84.9013671875 59.33203125 -84.7783203125 108.338867188 c 2,35,-1
 -84.7783203125 127.186523438 l 2,36,37
 -84.7783203125 171.030273438 -84.7783203125 171.030273438 -64.857421875 197.514648438 c 128,-1,38
 -44.9375 224 -44.9375 224 -6.9384765625 224 c 2,39,-1
 9.1103515625 224 l 2,40,41
 215.373046875 224 215.373046875 224 236.899414062 339.8984375 c 0,42,43
 247.87109375 397.221679688 247.87109375 397.221679688 240.049804688 512.340820312 c 2,44,-1
 234.559570312 594.096679688 l 1,45,-1
 233.284179688 613.08203125 l 1,46,-1
 252.182617188 615.299804688 l 1,47,-1
 416.989257812 634.647460938 l 1,48,-1
 437.666992188 637.075195312 l 1,49,-1
 439.262695312 616.317382812 l 1,50,-1
 457.108398438 384.189453125 l 2,51,52
 459.8671875 348.30078125 459.8671875 348.30078125 467.419921875 321.682617188 c 128,-1,53
 474.973632812 295.064453125 474.973632812 295.064453125 485.100585938 280.049804688 c 128,-1,54
 495.227539062 265.03515625 495.227539062 265.03515625 508.211914062 257.80078125 c 1,55,56
 856.127929688 837.01171875 856.127929688 837.01171875 1202.37011719 836.42578125 c 0,57,58
 1282.63085938 836.205078125 1282.63085938 836.205078125 1348.19726562 815.668945312 c 128,-1,59
 1413.76367188 795.1328125 1413.76367188 795.1328125 1463.69238281 753.981445312 c 0,60,61
 1530.73828125 698.799804688 1530.73828125 698.799804688 1564.26855469 620.7578125 c 128,-1,62
 1597.79785156 542.715820312 1597.79785156 542.715820312 1597.57910156 443.8046875 c 0,0,1
851.721679688 224.534179688 m 2,63,64
 1375.05566406 224.982421875 1375.05566406 224.982421875 1375.64355469 435.444335938 c 0,65,66
 1375.96289062 526.532226562 1375.96289062 526.532226562 1306.62304688 574.426757812 c 0,67,68
 1263.68945312 604.0546875 1263.68945312 604.0546875 1204.90625 604.57421875 c 0,69,70
 996.3359375 606.79296875 996.3359375 606.79296875 744.442382812 224.447265625 c 1,71,-1
 851.721679688 224.534179688 l 2,63,64
EndSplineSet
EndChar

